<?xml version="1.0" encoding="utf-8"?>
<!-- Generator: Adobe Illustrator 18.1.1, SVG Export Plug-In . SVG Version: 6.00 Build 0)  -->
<!DOCTYPE svg PUBLIC "-//W3C//DTD SVG 1.1//EN" "http://www.w3.org/Graphics/SVG/1.1/DTD/svg11.dtd">
<svg version="1.1" id="Layer_1" xmlns="http://www.w3.org/2000/svg" xmlns:xlink="http://www.w3.org/1999/xlink" x="0px" y="0px"
	 viewBox="58.6 72.3 494.8 494.5" enable-background="new 58.6 72.3 494.8 494.5" xml:space="preserve">
<g>
	<path fill="#FFFFFF" d="M66,245.9c2.1,0.8,4.6,1.2,6.9,1.2h466.2c2.3,0,4.8-0.3,6.9-1.2c2.7-1.1,4.6-2.9,6.1-5.4
		c1.3-2.3,1.3-5.1,1.3-7.7c0.1-3-0.1-6.1-0.3-9.1c-0.7-12.2-2.9-24.2-6.7-35.8c-2.4-7.2-5.3-14.1-8.7-20.9
		c-3.1-6.2-6.6-12.2-10.4-18.1c-3.3-5.1-6.8-10-10.6-14.7c-13.6-17.1-30.6-31.4-50-41.4c-3.8-1.9-7.6-3.7-11.6-5.3
		c-12.4-5-25.4-8.1-38.5-10.3c-30.4-5-61.7-4.9-92.5-5.1c-6.1,0-30.3,0-36.4,0c-30.8,0.2-62,0.1-92.5,5.1
		c-13.1,2.2-26.1,5.3-38.5,10.3c-4,1.6-7.8,3.4-11.6,5.3c-19.4,9.9-36.4,24.2-50,41.4c-3.8,4.7-7.3,9.6-10.6,14.7
		c-3.8,5.8-7.2,11.9-10.4,18.1c-3.4,6.7-6.4,13.7-8.7,20.9c-3.8,11.6-6,23.6-6.7,35.8c-0.2,3-0.3,6.1-0.3,9.1c0,2.6,0,5.4,1.3,7.7
		C61.3,243,63.3,244.8,66,245.9z M437.8,113.8c6.9,0,12.5,2.6,12.5,5.9s-5.6,5.9-12.5,5.9c-6.9,0-12.5-2.6-12.5-5.9
		C425.3,116.4,430.9,113.8,437.8,113.8z M395.1,96.7c6.9,0,12.5,2.6,12.5,5.9c0,3.3-5.6,5.9-12.5,5.9c-6.9,0-12.5-2.6-12.5-5.9
		C382.6,99.4,388.2,96.7,395.1,96.7z M349.9,113.8c6.9,0,12.5,2.6,12.5,5.9s-5.6,5.9-12.5,5.9c-6.9,0-12.5-2.6-12.5-5.9
		C337.5,116.4,343,113.8,349.9,113.8z M307.2,96.7c6.9,0,12.5,2.6,12.5,5.9c0,3.3-5.6,5.9-12.5,5.9c-6.9,0-12.5-2.6-12.5-5.9
		C294.8,99.4,300.3,96.7,307.2,96.7z M262.1,113.8c6.9,0,12.5,2.6,12.5,5.9s-5.6,5.9-12.5,5.9c-6.9,0-12.5-2.6-12.5-5.9
		C249.6,116.4,255.2,113.8,262.1,113.8z M219.4,96.7c6.9,0,12.5,2.6,12.5,5.9c0,3.3-5.6,5.9-12.5,5.9c-6.9,0-12.5-2.6-12.5-5.9
		C206.9,99.4,212.5,96.7,219.4,96.7z M174.2,113.8c6.9,0,12.5,2.6,12.5,5.9s-5.6,5.9-12.5,5.9c-6.9,0-12.5-2.6-12.5-5.9
		C161.8,116.4,167.4,113.8,174.2,113.8z M524.7,337.4h-71.8l-128.7,39c-18.1,7.5-36.2,0-36.2,0l0,0l-128.7-39H87.3
		c-15.9,0-28.8,12.9-28.8,28.8v40c0,15.9,12.9,28.8,28.8,28.8h437.3c15.9,0,28.8-12.9,28.8-28.8v-40
		C553.4,350.3,540.5,337.4,524.7,337.4z M72.2,296.8c7.1,0,9.9,2.2,15.1,6.2c6.5,5,15.4,11.9,31.7,11.9c8.4,0,16.5-2,23.7-6.2
		c6-3.6,11.2-9.3,18.4-10.6c7.9-1.4,15.3,3.2,21.3,7.7c8.8,6.6,19.3,9.1,30.2,9.1c10,0,18.8-5.1,27.4-10.1
		c13.1-7.6,21.5-8.9,34.8-1.2c9.1,5.2,19.3,11.2,31.3,11.2c12,0,22.2-6,31.3-11.2c13.3-7.7,21.7-6.5,34.8,1.2
		c8.5,5,17.4,10.1,27.4,10.1c10.9,0,21.4-2.5,30.2-9.1c6.1-4.5,13.4-9.1,21.3-7.7c7.2,1.3,12.4,7,18.4,10.6
		c7.2,4.3,15.3,6.2,23.7,6.2c16.3,0,25.2-6.9,31.7-11.9c5.2-4,8-6.2,15.1-6.2c7.5,0,13.6-6.1,13.6-13.6s-6.1-13.6-13.6-13.6
		c-16.3,0-25.2,6.9-31.7,11.9c-5.2,4-8,6.2-15.1,6.2c-7.1,0-9.9-2.2-15.1-6.2c-6.5-5-15.4-11.9-31.7-11.9c-16.2,0-24,6.8-29.7,11.8
		c-15.7,13.7-32.9-2.8-47.9-8.6c-5-1.9-10.6-3.1-16.1-3.1c-10.8,0-20.5,5.6-29,10.6c-5.3,3-10.8,6.7-17.1,7.1
		c-6.9,0.4-12.5-3.8-18.2-7.1c-8.5-4.9-18.2-10.6-29-10.6c-5.4,0-11,1.2-16.1,3.1c-15,5.8-32.2,22.4-47.9,8.6
		c-5.7-5-13.4-11.8-29.7-11.8c-16.3,0-25.2,6.9-31.7,11.9c-5.2,4-8,6.2-15.1,6.2s-9.9-2.2-15.1-6.2c-6.5-5-15.4-11.9-31.7-11.9
		c-7.5,0-13.6,6.1-13.6,13.6C58.6,290.7,64.7,296.8,72.2,296.8z M548.4,462.1c-2.3-2.2-5.1-3.5-8.3-4.2c-2.1-0.4-3.6-0.4-6.9-0.4
		H78.8c-3.4,0.1-4.8,0-6.9,0.4c-3.2,0.6-5.9,1.9-8.3,4.2c-2.5,2.3-3.8,6.1-4.1,9.5c-0.2,2.8,0.1,5.9,0.7,8.6
		c1.1,4.8,2.9,9.6,5.3,14.3c2.3,4.5,5.3,8.8,8.7,13c3.1,3.9,6.6,7.7,10.4,11.3c3.3,3.2,6.8,6.2,10.6,9.2
		c13.6,10.7,30.6,19.7,50,25.9c3.8,1.2,7.6,2.3,11.6,3.3c12.4,3.1,25.4,5.1,38.5,6.4c30.4,3.1,61.7,3,92.5,3.2c3,0,33.4,0,36.4,0
		c30.8-0.1,62,0,92.5-3.2c13.1-1.3,26.1-3.3,38.5-6.4c4-1,7.8-2.1,11.6-3.3c19.4-6.2,36.4-15.2,50-25.9c3.8-3,7.3-6,10.6-9.2
		c3.8-3.6,7.2-7.4,10.4-11.3c3.4-4.2,6.4-8.6,8.7-13c2.4-4.7,4.2-9.4,5.3-14.3c0.6-2.7,1-5.8,0.7-8.6
		C552.2,468.2,550.8,464.4,548.4,462.1z"/>
</g>
</svg>
