<?xml version="1.0" encoding="utf-8"?>
<!-- Generator: Adobe Illustrator 18.1.1, SVG Export Plug-In . SVG Version: 6.00 Build 0)  -->
<!DOCTYPE svg PUBLIC "-//W3C//DTD SVG 1.1//EN" "http://www.w3.org/Graphics/SVG/1.1/DTD/svg11.dtd">
<svg version="1.1" xmlns="http://www.w3.org/2000/svg" xmlns:xlink="http://www.w3.org/1999/xlink" x="0px" y="0px"
	 viewBox="0 0 72 72" enable-background="new 0 0 72 72" xml:space="preserve">
<g id="Layer_1">
</g>
<g id="Layer_2">
	<polygon fill="#52C2BD" points="36,54.2 25.2,35.5 14.4,16.8 36,16.8 57.6,16.8 46.8,35.5 	"/>
	<rect x="14.4" y="53.8" fill="#52C2BD" width="43.2" height="1.4"/>
	<rect x="14.4" y="38.9" fill="#52C2BD" width="43.2" height="1.4"/>
	<g>
		<defs>
			<rect id="SVGID_1_" x="0" y="4" width="72" height="63.9"/>
		</defs>
		<clipPath id="SVGID_2_">
			<use xlink:href="#SVGID_1_"  overflow="visible"/>
		</clipPath>
		<path clip-path="url(#SVGID_2_)" fill="#732A80" d="M14.5,56.7c0,0.8-0.1,1.6-0.4,2.3c-0.2,0.8-0.6,1.5-1,2.1
			c-0.5,0.6-1,1.1-1.7,1.5c-0.7,0.4-1.5,0.6-2.4,0.6c-0.8,0-1.5-0.1-2.1-0.4c-0.7-0.3-1.2-0.7-1.5-1.2h0v1.3l-4.8,0l0-17.4h5.3
			l0,6.3l0,0c0.4-0.4,0.8-0.7,1.4-1c0.6-0.2,1.2-0.3,1.7-0.3c0.9,0,1.7,0.2,2.4,0.6c0.7,0.4,1.3,0.9,1.7,1.4c0.5,0.6,0.8,1.3,1,2
			C14.4,55.2,14.5,55.9,14.5,56.7"/>
		<polygon clip-path="url(#SVGID_2_)" fill="#732A80" points="16.5,46.5 22,46.5 22,58.1 27.5,58.1 27.5,62.8 16.5,62.8 		"/>
		<rect x="28.8" y="46.5" clip-path="url(#SVGID_2_)" fill="#732A80" width="5.5" height="16.3"/>
		<polygon clip-path="url(#SVGID_2_)" fill="#732A80" points="37.2,46.5 42.7,46.5 47.3,54.8 47.4,54.8 47.2,46.5 52.4,46.5 
			52.4,62.8 46.8,62.8 42.3,55 42.2,55 42.4,62.8 37.2,62.8 		"/>
		<polygon clip-path="url(#SVGID_2_)" fill="#732A80" points="55.2,62.8 55.2,46.5 60.5,46.5 64.9,46.5 71.4,46.5 65.2,54 
			71.7,62.8 64.9,62.8 		"/>
		<path clip-path="url(#SVGID_2_)" fill="#732A80" d="M14.5,32.3c0,0.8-0.1,1.6-0.4,2.3c-0.2,0.8-0.6,1.5-1,2.1
			c-0.5,0.6-1,1.1-1.7,1.5c-0.7,0.4-1.5,0.6-2.4,0.6c-0.8,0-1.5-0.1-2.1-0.4c-0.7-0.3-1.2-0.7-1.5-1.2h0l0,1.3l-4.8,0l0-17.4l5.3,0
			l0,6.3l0,0c0.4-0.4,0.8-0.7,1.4-1C7.8,26.1,8.4,26,9,26c0.9,0,1.7,0.2,2.4,0.6c0.7,0.4,1.3,0.9,1.7,1.5c0.5,0.6,0.8,1.3,1,2
			C14.4,30.8,14.5,31.5,14.5,32.3"/>
		<polygon clip-path="url(#SVGID_2_)" fill="#732A80" points="16.5,22.1 22,22.1 22,33.7 27.5,33.7 27.5,38.4 16.5,38.4 		"/>
		<rect x="28.8" y="22.1" clip-path="url(#SVGID_2_)" fill="#732A80" width="5.5" height="16.3"/>
		<polygon clip-path="url(#SVGID_2_)" fill="#732A80" points="37.2,22.1 42.7,22.1 47.3,30.4 47.4,30.4 47.2,22.1 52.4,22.1 
			52.4,38.4 46.8,38.4 42.3,30.6 42.2,30.6 42.4,38.4 37.2,38.4 		"/>
		<polygon clip-path="url(#SVGID_2_)" fill="#732A80" points="55.2,38.4 55.2,22.1 60.5,22.1 64.9,22.1 71.4,22.1 65.2,29.6 
			71.7,38.4 64.9,38.4 		"/>
	</g>
</g>
</svg>
