<?xml version="1.0" encoding="utf-8"?>
<!-- Generator: Adobe Illustrator 18.1.1, SVG Export Plug-In . SVG Version: 6.00 Build 0)  -->
<!DOCTYPE svg PUBLIC "-//W3C//DTD SVG 1.1//EN" "http://www.w3.org/Graphics/SVG/1.1/DTD/svg11.dtd">
<svg version="1.1" id="Layer_1" xmlns="http://www.w3.org/2000/svg" xmlns:xlink="http://www.w3.org/1999/xlink" x="0px" y="0px"
	 viewBox="0 0 612 792" enable-background="new 0 0 612 792" xml:space="preserve">
<path d="M118.2,316c3.7-2.3,92.6-56.7,178.8-56.7c86.3,0,172.6,57.4,176.3,59.9c0.2,0.1,0.4,0.3,0.6,0.5
	c12.4-15.5,18.2-36.2,13.8-57.7c-18-88-65.5-213.4-190.7-213.4S124.2,173.9,106.3,261.9c-4.1,20,0.7,39.3,11.4,54.4
	C117.9,316.2,118,316.1,118.2,316z M152.9,207.1c0.8-2.8,19.7-68.3,54.7-88.6c2.1-1.2,4.7-0.5,5.9,1.6c1.2,2.1,0.5,4.7-1.6,5.9
	c-32.1,18.6-50.6,82.9-50.8,83.5c-0.5,1.9-2.3,3.1-4.1,3.1c-0.4,0-0.8-0.1-1.2-0.2C153.6,211.7,152.2,209.4,152.9,207.1z
	 M142.4,246.5l5-20.5c0.6-2.3,2.9-3.7,5.2-3.2c2.3,0.6,3.7,2.9,3.2,5.2l-5,20.5c-0.5,2-2.2,3.3-4.2,3.3c-0.3,0-0.7,0-1-0.1
	C143.3,251.1,141.8,248.8,142.4,246.5z M532.2,550.9c-0.5,3-3,5.1-5.9,5.1c-0.3,0-0.6,0-1-0.1c-54.4-8.9-105.4-52.7-151.7-130.1
	c-34.1-57.1-56.1-119.6-56.3-120.1l-10.8-0.6c0,1,4.4,102.3,52.8,147.5c2.4,2.3,2.6,6.1,0.3,8.5c-1.2,1.3-2.8,1.9-4.4,1.9
	c-1.5,0-2.9-0.5-4.1-1.6c-22-20.5-38.2-52.6-48.2-95.4c-7.4-31.6-8.4-60-8.4-61l-10.5,0.3c-0.1,2.4-4.6,241.1,94.6,249.3
	c3.3,0.3,5.8,3.2,5.5,6.5c-0.3,3.1-2.9,5.5-6,5.5c-0.2,0-0.3,0-0.5,0c-26.2-2.2-48.1-17.5-65-45.6c-13.1-21.7-23.2-51.1-30.2-87.4
	c-11.8-61.2-10.4-126.9-10.4-127.5l-10.1,1.2l-29.1,278c-0.3,3.1-2.9,5.4-6,5.4c-0.2,0-0.4,0-0.6,0c-3.3-0.3-5.7-3.3-5.4-6.6
	l29.1-274.8c-8.1,1.6-21.5,5.4-21.5,5.4c0,0.3-0.3,37.2-4.4,71.7c-5.9,48.9-15.8,75.5-30.4,81.1c-2.1,0.8-4.2,1.2-6.3,1.2
	c-6.4,0-13.1-3.6-19.8-10.8c-35.8-38.2-64.8-56.5-88.5-56.1c-13.8,0.3-26,6.7-37.3,19.8c-2.2,2.5-6,2.8-8.5,0.6
	c-2.5-2.2-2.8-6-0.6-8.5c13.5-15.5,29.1-23.6,46.2-23.9c27.8-0.5,58.8,18.5,97.5,59.9c3.7,3.9,8.9,8.2,13,6.6
	c17.5-6.8,26.5-84,27.4-137.3c-29.8,11.9-41.5,27.3-41.5,27.3c-19.5,0-36.8-7.9-49.3-20.3c9.9-5.9,93.3-54.3,171.4-54.3
	c77.6,0,158.3,50.5,168.5,57.1c-12.2,10.9-28.4,17.6-46.3,17.6c0,0-12.7-16.6-45.3-28.7c5.9,19.1,44.3,133.7,111.5,133.8
	c3.3,0,6,2.7,6,6s-2.7,6-6,6h0c-34.4,0-66.8-25.5-93.7-73.5c-19.8-35.4-31.3-75.3-31.7-76.8l-29-6.2c0.7,2.1,74.8,217.6,196.4,237.4
	C530.5,544.5,532.8,547.6,532.2,550.9z"/>
<path d="M568.4,390.1c0,14.1-11.4,25.5-25.5,25.5c-14.1,0-25.5-11.4-25.5-25.5s11.4-25.5,25.5-25.5C557,364.5,568.4,376,568.4,390.1
	z M566.1,421c-8.4,0-15.2,6.8-15.2,15.2c0,8.4,6.8,15.2,15.2,15.2s15.2-6.8,15.2-15.2C581.3,427.8,574.5,421,566.1,421z
	 M532.5,451.9c-4.8,0-8.7,3.9-8.7,8.7c0,4.8,3.9,8.7,8.7,8.7c4.8,0,8.7-3.9,8.7-8.7S537.3,451.9,532.5,451.9z"/>
</svg>
