<?xml version="1.0" encoding="utf-8"?>
<!-- Generator: Adobe Illustrator 18.1.1, SVG Export Plug-In . SVG Version: 6.00 Build 0)  -->
<!DOCTYPE svg PUBLIC "-//W3C//DTD SVG 1.1//EN" "http://www.w3.org/Graphics/SVG/1.1/DTD/svg11.dtd">
<svg version="1.1" id="Layer_1" xmlns="http://www.w3.org/2000/svg" xmlns:xlink="http://www.w3.org/1999/xlink" x="0px" y="0px"
	 viewBox="0 0 612 792" enable-background="new 0 0 612 792" xml:space="preserve">
<path d="M1689.8-1281.9"/>
<path d="M511.8,134.5L469,116c-3.8-27.9-34.1-51.6-81.1-63.4c-6.7-17.2-32.4-29.3-64.9-29.3c-33.2,0-59.2,12.5-65.3,30.2
	c-48.1,13.1-77.9,39-77.9,68.5v142.8c-41.3-12.9-75.3-32.2-98.3-58.4c-2.5-2.8-6.4-3.8-9.9-2.5c-3.5,1.3-5.8,4.7-5.8,8.4v139.4
	c0,66.5,43.1,101.2,104.2,125.8c3.3,1.3,6.5,2.5,9.8,3.7v27.2c0,52,63.6,92.7,144.8,92.7c31,0,60.7-6.3,85.3-17.7
	c0.1,0.4,0.3,0.8,0.4,1.2c6.7,23.5,25.9,25.3,33.6,25.3c8,0,16.4-3.5,25.7-10.6c47.2-36.3,47.7-83.2,47.7-85.2V228.8v-24.1v-62.1
	C517.3,139.1,515.1,135.9,511.8,134.5z M130.1,331.5c0,0-8.9-3.5-13.7-6.1c-4.8-2.5-9.3-4.2-11.9-6c-2.8-1.9-4-5.1-4-9.4l-0.1-34.7
	c0-3.7,2.1-6.3,4.8-4.6c0,0,3.2,2.5,11.5,7.3c8.2,4.8,14.9,7.6,14.9,7.6c1.5,0.7,2.7,3,2.7,5.2l0.1,37
	C134.4,330.8,131.6,332.2,130.1,331.5z M323,170.8c38,0,66.7-16.5,66.7-38.3v-21.9c26.6,9.1,44.5,23.3,47.5,38.3
	c-21.4,19-64.3,32.4-112.6,32.4c-50.1,0-94.5-14.4-114.9-34.6c4.1-14.1,21.2-27.2,46.6-35.9v21.8C256.3,154.4,285,170.8,323,170.8z
	 M323,41.3c29.8,0,48.8,12.1,48.8,20.4s-19,20.4-48.8,20.4c-29.8,0-48.8-12.1-48.8-20.4S293.2,41.3,323,41.3z M256.3,72.6v19.3
	c-27.2,8.3-47.3,21.4-57.7,36.9c-0.6-2.2-0.9-4.4-0.9-6.7C197.7,102.5,220.4,83.6,256.3,72.6z M178.3,343.4l-0.1-35.4
	c0-2.5,2.6-4.6,4.5-4.1c0,0,8.8,2.3,17.1,4.1c8.3,1.8,18.1,3.4,18.1,3.4c1.9,0.5,3.4,2.7,3.4,4.9l0.1,38.5c0,2.2-1.5,3.6-3.4,3.1
	c0,0-12.2-2.5-20.1-4.5c-7.9-2-16.2-4.1-16.2-4.1C179.9,348.8,178.3,346.4,178.3,343.4z M324.6,583.3c-70,0-126.9-33.6-126.9-74.8
	v-21.2c28.1,8.3,54.8,11.8,83.8,14.7c23.2,2.3,45.1,4.5,62.4,8.9c6.4,1.6,12.2,4.1,17.5,7c-11.8,2.1-24.2,3.2-36.8,3.2c-5,0-9,4-9,9
	c0,4.9,4,9,9,9c19.3,0,38.1-2.4,55.5-7c2.9,2.9,5.6,5.9,8,9c-19.1,6.7-40.9,10.3-63.5,10.3c-5,0-9,4-9,9c0,4.9,4,9,9,9
	c26.3,0,51.6-4.5,73.7-12.8c2,3.6,3.8,7.1,5.3,10.4C381.1,577.4,353.6,583.3,324.6,583.3z M270.2,360.4v-37.7c0-3.7,2.9-5.3,5.7-5.3
	c0,0,10.9,0.6,18.3,0.7c7.4,0.1,18.7-0.1,18.7-0.1c3.3,0,5.4,2.9,5.4,5v37.8c0,3.3-2.4,5.8-5.4,5.8c0,0-11.3,0-19.8-0.3
	s-19-1.2-19-1.2C271.9,365.1,270.2,363.4,270.2,360.4z M410.8,351.1c0,2.2-1.6,5.2-3.4,5.5c0,0-8.7,1.9-16.6,3.3s-17.2,2.7-17.2,2.7
	c-1.9,0.3-5.9-1.8-5.9-5.2l0.1-39.7c0-2.2,1.5-4.3,3.4-4.6c0,0,10.1-1.3,18-2.7c8-1.4,17.3-3.7,17.3-3.7c2.9-0.7,4.4,1.6,4.4,4.9
	L410.8,351.1z M451.5,160.7c0,32.1-58.1,59.2-126.9,59.2c-5,0-9,4-9,9s4,9,9,9c55,0,101.9-15.6,126.5-39.1
	c-4.6,30.3-60.5,55.2-126.5,55.2c-5,0-9,4-9,9s4,9,9,9c55.4,0,102.5-15.7,126.9-39.5v17.5c-27.7,18.2-68.7,34.5-126.9,34.5
	c-45.9,0-89-4.7-126.9-14.4V159.8c24.4,23.7,71.6,39.4,126.9,39.4c55.3,0,102.5-15.7,126.9-39.4V160.7z M449.6,131.8
	c-9.6-16.9-30.7-31.1-59.9-40V71.6c37.4,10.8,61.8,30.4,61.8,50.5C451.5,125.4,450.8,128.6,449.6,131.8z M490,526.8
	c0,2.2-1.2,5-2.7,6.1c0,0-5,4.6-10.9,8.8c-5.9,4.2-13.8,9.4-13.8,9.4c-4,2.1-6.5,1.2-6.5-2.9l0.1-36.6c0-3.1,1.4-7.5,3.7-8.8
	c0,0,8.4-4.9,14-9c5.6-4.1,12.2-9.3,12.2-9.3c1.5-1.2,3.9,0.1,3.9,3.4L490,526.8z M490,317c0,2.2-1.2,4.8-2.7,5.8
	c0,0-5,3.9-10.9,7.3c-5.9,3.4-13.8,7.5-13.8,7.5c-4,1.6-6.5,0.3-6.5-3.8l0.1-36.6c0-3.1,1.4-7.3,3.7-8.3c0,0,8.4-3.8,14-7.1
	s12.2-7.7,12.2-7.7c1.5-1,3.9,0.7,3.9,3.9L490,317z M499.3,202.4c-2.9,4.8-12.1,18.9-29.9,34.1V135.7l29.9,12.9V202.4z"/>
</svg>
