<?xml version="1.0" encoding="utf-8"?>
<!-- Generator: Adobe Illustrator 18.1.1, SVG Export Plug-In . SVG Version: 6.00 Build 0)  -->
<!DOCTYPE svg PUBLIC "-//W3C//DTD SVG 1.1//EN" "http://www.w3.org/Graphics/SVG/1.1/DTD/svg11.dtd">
<svg version="1.1" id="Layer_1" xmlns="http://www.w3.org/2000/svg" xmlns:xlink="http://www.w3.org/1999/xlink" x="0px" y="0px"
	 viewBox="239.8 0 796.6 800" enable-background="new 239.8 0 796.6 800" xml:space="preserve">
<path d="M239.8,400c0-220.2,178.7-398.8,398.7-398.5c219.9,0.3,397.9,178.6,397.9,398.4c0,220.2-179,399.1-398.7,398.6
	C417.7,798,239.8,619.8,239.8,400z M595.6,378.7c4.8-2,7.5-3.2,10.1-4.3c13-5.3,22.7-14.2,28.8-26.8c18.5-38.6,0.5-91-37.7-110
	c-16.4-8.2-33.9-10.7-52.1-10.7c-53.7,0.1-107.4,0-161.2,0.1c-2.9,0-5.8,0.3-8.8,0.4c0,110.8,0,220.8,0,331.3
	c2.8,0.2,5.1,0.4,7.4,0.4c55.5,0,111,0.1,166.5-0.1c8,0,16.2-0.8,24-2.4c38.9-8,67.7-28,77-68.9c5.1-22.5,4.5-45.1-2.9-67.1
	C638.9,397.2,623.8,381.9,595.6,378.7z M907.1,478.3c-19.9,0-38.6,0-57.9,0c-2.4,19.1-14.5,29.1-32.1,32.8c-9.2,1.9-19,2.9-28.4,2.3
	c-33-2.3-54.7-27-50.7-57.6c3.3,0,6.8,0,10.3,0c50.7,0,101.5-0.1,152.2,0.2c7,0,9.9-2.1,9.4-9c-1.1-14.8-0.8-30-3.5-44.5
	c-8.3-43.5-31.2-75.5-76.2-86.4c-15.1-3.6-31.4-4.8-47-4.1c-42.3,1.8-77,19-98.1,57.1c-20.6,37.2-25.4,76.7-12.8,117.6
	c10.7,35.1,33.3,59.5,68.3,71.5c25.3,8.7,51.5,9.5,77.9,6.7c18.2-2,35.7-6.9,51.5-16.7C895.6,532.3,906.8,508.7,907.1,478.3z
	 M858.5,247.3c-45.2,0-90.5,0-135.8,0c0,13.4,0,26.4,0,39.5c45.5,0,90.4,0,135.8,0C858.5,273.6,858.5,260.8,858.5,247.3z
	 M450.7,499.3c34.1,0,67.8,0.8,101.3-0.4c14.1-0.5,23.7-10.3,27.7-24.3c3.8-13.3,3.4-26.6-1.2-39.6c-4.7-13-14-22.6-28.1-23
	c-33-0.9-66.1-0.3-99.8-0.3C450.7,441.6,450.7,470.4,450.7,499.3z M548.4,359.4c10.3-0.2,17.5-7.4,19.2-17.3
	c1.9-11,2.9-22.6,1.5-33.6c-1.9-15.4-11.7-22.4-27.2-22.5c-22.7,0-45.3,0-68,0c-7.7,0-15.3,0-23.4,0c0,24.8,0,48.6,0,73.6
	C483.6,359.6,516,360,548.4,359.4z M794,360c-30,0.3-56.1,23.9-56.5,51c35.7,0,71.4,0,107.6,0C843.8,378.6,824.3,359.6,794,360z"/>
</svg>
