<?xml version="1.0" encoding="utf-8"?>
<!-- Generator: Adobe Illustrator 18.1.1, SVG Export Plug-In . SVG Version: 6.00 Build 0)  -->
<!DOCTYPE svg PUBLIC "-//W3C//DTD SVG 1.1//EN" "http://www.w3.org/Graphics/SVG/1.1/DTD/svg11.dtd">
<svg version="1.1" id="Layer_1" xmlns="http://www.w3.org/2000/svg" xmlns:xlink="http://www.w3.org/1999/xlink" x="0px" y="0px"
	 viewBox="481.5 0 798.5 800" enable-background="new 481.5 0 798.5 800" xml:space="preserve">
<path d="M809.3,493.1c-66.8,66.8-133.1,133.1-200.1,200c84.9,76.5,184.6,111.3,299.8,105.7C919.6,681.4,886.6,579.9,809.3,493.1z"/>
<path d="M1173.1,127.2c-67.3,66.9-133.8,133-200.3,199c84.4,81.3,205.4,114.7,306.9,101.1C1285.4,313.1,1250.6,213.4,1173.1,127.2
	L1173.1,127.2z"/>
<path d="M1173.9,671.6c56-61.2,90.1-132.6,102.5-215.2c-124.2,9.4-231.4-26.9-321.7-108.1c-18,17.8-35.4,35.1-52.3,51.8
	C992.4,490.1,1082.8,580.5,1173.9,671.6z"/>
<path d="M824.5,4.6c-83.2,12.7-154.6,46.6-214.9,102.3c91.2,91.2,181.6,181.6,271.6,271.6c17-16.9,34.4-34.2,52.1-51.8
	C851.4,235.8,815.1,128.5,824.5,4.6z"/>
<path d="M937.4,794.7c60.7-1.4,182.7-60.1,214.2-102.1c-90.6-90.6-181.1-181-271.3-271.3c-16.9,16.8-34.3,34.1-51.9,51.6
	C910.5,564.3,946.8,671.5,937.4,794.7L937.4,794.7z"/>
<path d="M485.4,343.9c60.1-5.5,117.6,1,173.7,20c56,19.1,105.6,49.1,148,88.1c18.1-18,35.5-35.2,52.1-51.7
	c-90.1-90.2-180.6-180.6-271.5-271.6C532.1,189.3,498,260.7,485.4,343.9L485.4,343.9z"/>
<path d="M907.4,0.6c14.6,2.1,29.2,3.7,43.8,6.3c76.1,13.6,142.6,46.7,199.6,98.7c0.6,0.5,1,1.2,0.9,1
	c-66.4,66.4-132.8,132.7-199.4,199.3c-21.6-23.2-40.8-49.9-56.3-79.2C859.9,158,845.1,85,852.7,7.7c0.2-2.4,2.1-4.7,3.3-7.1
	C873.1,0.6,890.2,0.6,907.4,0.6z"/>
<path d="M481.5,375c2.4-1.1,4.6-3,7.1-3.3c67.1-6.7,131.5,3.8,193.3,30.7c36.9,16.2,70.3,37.8,100.4,64.7c1.9,1.7,3.7,3.5,5.2,4.9
	C721.1,538.4,654.9,604.5,588,671.4c-5.6-6.5-12-13.5-18-21c-48.2-60.1-77-128.3-85.7-204.9c-0.8-7.4-1.9-14.9-2.8-22.3
	C481.5,407.3,481.5,391.1,481.5,375L481.5,375z"/>
</svg>
