<?xml version="1.0" encoding="utf-8"?>
<!-- Generator: Adobe Illustrator 18.1.1, SVG Export Plug-In . SVG Version: 6.00 Build 0)  -->
<!DOCTYPE svg PUBLIC "-//W3C//DTD SVG 1.1//EN" "http://www.w3.org/Graphics/SVG/1.1/DTD/svg11.dtd">
<svg version="1.1" id="Layer_1" xmlns="http://www.w3.org/2000/svg" xmlns:xlink="http://www.w3.org/1999/xlink" x="0px" y="0px"
	 viewBox="480 0 800 800" enable-background="new 480 0 800 800" xml:space="preserve">
<path d="M881.5,206.6c47.3,0,91,16.4,125.6,43.7h272.1V93.7c0.9-51.8-41.9-93.7-92.8-93.7H732.2v250.3h24.6
	C791.3,223,834,206.6,881.5,206.6z M1061.6,86.5c0-14.6,11.8-27.3,27.3-27.3h81.9c14.6,0,27.3,11.8,27.3,27.3v81.9
	c0,14.6-11.8,27.3-27.3,27.3h-81.9c-14.6,0-27.3-11.8-27.3-27.3V86.5z"/>
<path d="M881.5,538.8c71,0,129.2-58.2,129.2-129.2s-57.3-129.2-129.2-129.2c-71,0-129.2,58.2-129.2,129.2S810.5,538.8,881.5,538.8z"
	/>
<path d="M607.4,0h-33.7c-2.7,0-4.6,0-7.3,0v249.4h41V0z"/>
<path d="M525.5,13.7C498.2,30,480,60.1,480,93.7v156.5h45.5V13.7z"/>
<rect x="649.3" y="0" width="41" height="250.3"/>
<path d="M1061.6,314.9c14.6,28.2,23.7,60.1,23.7,94.7c0,111.9-91,203-203,203s-203-91-203-203c0-33.7,8.2-66.4,23.7-94.7H480v390.4
	c0,51.9,41.9,93.7,93.7,93.7h612.5c51.9,0,93.7-41.9,93.7-93.7V314.9H1061.6z"/>
</svg>
