<?xml version="1.0" encoding="utf-8"?>
<!-- Generator: Adobe Illustrator 18.1.1, SVG Export Plug-In . SVG Version: 6.00 Build 0)  -->
<!DOCTYPE svg PUBLIC "-//W3C//DTD SVG 1.1//EN" "http://www.w3.org/Graphics/SVG/1.1/DTD/svg11.dtd">
<svg version="1.1" id="Layer_1" xmlns="http://www.w3.org/2000/svg" xmlns:xlink="http://www.w3.org/1999/xlink" x="0px" y="0px"
	 viewBox="267.2 0 793.6 800" enable-background="new 267.2 0 793.6 800" xml:space="preserve">
<path stroke="#FFFFFF" stroke-miterlimit="10" d="M663.9,796.5c-219.8,0-396.6-177.1-396.7-397.2C267.1,178,449.7-1.1,671.8,3
	c214,4,392.9,180.9,389,404.2C1057,624.2,878.6,797.6,663.9,796.5z M696.9,344.7c0-11.3,0-22.6,0-33.7c-28.2,0-55.2,0-82,0
	c0,93.8,0,187,0,279.9c27.6,0,54.5,0,82.3,0c0-3.9,0-7.3,0-10.7c0-46.2-0.5-92.4,0.3-138.5c0.2-11.5,2.8-23.7,7.2-34.4
	c8.1-19.7,28-28.9,51.8-26.3c20.6,2.2,33.8,14.2,38.5,35.8c1.9,8.7,2.8,17.8,2.9,26.7c0.3,45.2,0.1,90.4,0.1,135.7
	c0,3.8,0,7.6,0,11.9c29,0,57,0,86,0c0-8.1,0-15.7,0-23.3c-0.1-56.1,1.2-112.3-0.7-168.4c-2.3-68.1-56.9-108.9-123.5-94.8
	C734.1,309.9,714.5,324.4,696.9,344.7z M557.2,590.9c0-94,0-187,0-280.1c-28.8,0-56.9,0-85.4,0c0,93.6,0,186.6,0,280.1
	C500.5,590.9,528.5,590.9,557.2,590.9z M463,221.8c0.2,28.2,23.9,51.9,51.6,51.5c27.8-0.4,51.4-24.4,51.1-52.2
	c-0.3-28.1-23.9-51.6-51.7-51.4C486,170,462.8,193.6,463,221.8z"/>
</svg>
