<?xml version="1.0" encoding="utf-8"?>
<!-- Generator: Adobe Illustrator 18.1.1, SVG Export Plug-In . SVG Version: 6.00 Build 0)  -->
<!DOCTYPE svg PUBLIC "-//W3C//DTD SVG 1.1//EN" "http://www.w3.org/Graphics/SVG/1.1/DTD/svg11.dtd">
<svg version="1.1" id="Layer_1" xmlns="http://www.w3.org/2000/svg" xmlns:xlink="http://www.w3.org/1999/xlink" x="0px" y="0px"
	 viewBox="656 0 624 800" enable-background="new 656 0 624 800" xml:space="preserve">
<path d="M1027.4,578c-49.4,0-96.2-27-112.4-57.5c0,0-27,106.1-32.4,126.7c-19.8,71.9-78.2,144.7-82.7,150.1
	c-3.6,4.5-9.9,2.7-10.8-2.7c-0.9-9-16.2-100.7,1.8-174.4c9-37.8,59.3-250.8,59.3-250.8s-14.4-29.7-14.4-72.8
	c0-68.3,39.6-118.7,89-118.7c41.3,0,62,31.5,62,69.2c0,42.2-27,105.2-40.4,162.7c-11.7,48.5,24.3,89,72.8,89
	c87.2,0,145.6-111.5,145.6-244.5c0-100.7-67.4-176.2-191.5-176.2c-141.1,0-227.4,104.3-227.4,220.2c0,40.4,11.7,68.3,30.6,89.9
	c8.1,9.9,9.9,14.4,6.3,25.2c-1.8,8.1-7.2,28.8-9,36.9c-2.7,11.7-12.6,16.2-23.4,11.7c-64.7-25.2-94.4-96.2-94.4-175.3
	C656.1,156.4,766.7,0,985.1,0c175.3,0,291.2,126.7,291.2,263.4C1275.5,444,1175.7,578,1027.4,578z"/>
</svg>
