<?xml version="1.0" encoding="utf-8"?>
<!-- Generator: Adobe Illustrator 18.1.1, SVG Export Plug-In . SVG Version: 6.00 Build 0)  -->
<!DOCTYPE svg PUBLIC "-//W3C//DTD SVG 1.1//EN" "http://www.w3.org/Graphics/SVG/1.1/DTD/svg11.dtd">
<svg version="1.1" id="Layer_1" xmlns="http://www.w3.org/2000/svg" xmlns:xlink="http://www.w3.org/1999/xlink" x="0px" y="0px"
	 viewBox="169 0 984.4 800" enable-background="new 169 0 984.4 800" xml:space="preserve">
<path d="M1052.3,199.3C1064.7,482.8,852.9,800,478.2,800c-113.4,0-219.7-33.7-309.2-91.3c107.2,12.4,213.5-16.8,298.6-83.3
	c-88.6-1.8-163-60.2-188.7-140c31.9,6.2,62.9,4.4,91.3-3.5c-97.5-19.4-164-107.1-162.2-200.2c27.5,15.1,58.5,23.9,91.3,24.8
	c-89.5-60.2-114.3-179-62-269.3c100.1,122.3,248.9,202,416.4,210.9C624.4,121.4,720.1,0,850.3,0C908.8,0,961,24.8,997.4,63.8
	c46.1-8.9,89.5-25.7,128.5-48.7c-15.1,47-47,86.8-88.6,111.6c40.8-5.3,79.7-15.9,116.1-31.9C1125.8,135.5,1091.3,171,1052.3,199.3z"
	/>
</svg>
