<?xml version="1.0" encoding="utf-8"?>
<!-- Generator: Adobe Illustrator 18.1.1, SVG Export Plug-In . SVG Version: 6.00 Build 0)  -->
<!DOCTYPE svg PUBLIC "-//W3C//DTD SVG 1.1//EN" "http://www.w3.org/Graphics/SVG/1.1/DTD/svg11.dtd">
<svg version="1.1" id="Layer_1" xmlns:ev="http://www.w3.org/2001/xml-events"
	 xmlns="http://www.w3.org/2000/svg" xmlns:xlink="http://www.w3.org/1999/xlink" x="0px" y="0px" viewBox="0 0 612 792"
	 enable-background="new 0 0 612 792" xml:space="preserve">
<path opacity="1.000000e-02" fill="#FFFFFF" enable-background="new    " d="M655.6,81.5h0.6v0.3h-0.3v0.3h0.3v0.3h-0.6V81.5z
	 M655.3,80.8h1.3v0.3h0.3v1.6h-0.3v0.3h-1.3v-0.3H655v-1.6h0.3v1.6h1.3v-1.6h-1.3V80.8z M657.5,81.1h0.3v0.6h0.3v-0.6h0.3v0.6h-0.3
	v0.3h0.3v0.6h-0.3v-0.6h-0.3v0.6h-0.3v-0.6h0.3v-0.3h-0.3V81.1z M658.8,81.1h1.6v1.6h-0.3v-1.3h-0.3v1.3h-0.3v-1.3h-0.3v1.3h-0.3
	V81.1z M660.7,81.1h1l-0.3,0.3H661v1h0.3v-1l0.3-0.3v1.6H661v0.6h-0.3V81.1z M662,80.5h0.3v1.9h0.3v0.3H662V80.5z M662.9,81.1h1
	l-0.3,0.3h-0.3v0.3h0.3v-0.3l0.3-0.3v1h-0.6v0.3h0.6v0.3h-1V81.1z M664.2,82.4h0.3v0.3h-0.3V82.4z M664.8,81.1h1v0.3h-0.6v1h0.6v0.3
	h-1V81.1z M666.1,81.1h1v1.6h-1l0.3-0.3h0.3v-1h-0.3v1l-0.3,0.3V81.1z M667.4,81.1h1.6v1.6h-0.3v-1.3h-0.3v1.3H668v-1.3h-0.3v1.3
	h-0.3V81.1z"/>
<text transform="matrix(1 0 0 1 655.2754 422.2126)" opacity="1.000000e-02" fill="#FFFFFF" enable-background="new    " font-family="'Verdana'" font-size="6.375">© xmple.com</text>
<a xlink:href="https://www.xmple.com" >
	
		<text transform="matrix(1 0 0 1 1227.6099 86.8875)" opacity="1.000000e-02" fill="#FFFFFF" enable-background="new    " font-family="'Verdana'" font-size="6.375">xmple.com</text>
</a>
<g>
	<g>
		<path fill="#1F9DEB" d="M386.5,475.1c0-68.8,0-137.6,0-206.5c38.8,0,77.6,0,116.4,0c0,68.8,0,137.6,0,206.5
			C464.1,475.1,425.3,475.1,386.5,475.1z"/>
		<path fill="#1F9DEB" d="M458.5,413.4c0.1,0.9,0.4,1.7,0.6,2.4c0.3,0.7,0.5,1.4,0.8,2.1c0.3,0.7,0.2,1.6,0.7,2.3
			c0.5-0.3,0.9-0.6,1.1-1.2c0.3-1.6,0.3-3.2-0.1-4.7c-0.1-0.5-0.4-0.9-1-0.9C459.9,413.4,459.3,413.4,458.5,413.4z"/>
		<path fill="#1F9DEB" d="M416.5,411.6c0-1-0.8-1.8-1.8-1.7c-1,0-1.8,0.8-1.8,1.8c0,0.9,0.8,1.6,1.8,1.7
			C415.7,413.4,416.5,412.6,416.5,411.6z"/>
		<path display="none" fill="#010909" d="M452.7,384.9c0.2,0.4,0.9,0.4,1,1.1c0,0.4-0.4,0.7-0.7,1.1c-0.3,0.4-0.7,0.8-0.9,1.3
			c0.4,0.7,1,1.2,1.5,1.8c0.3,0.4,0.7,0.7,1,1.1c1,1.3,0.7,2.9-0.7,3.8c-0.5,0.4-1.1,0.6-1.6,1c-0.2,0.7,0.1,1.3,0.2,1.8
			c0.3,1.5,0.7,3.1,0.8,4.6c0,0.5,0.2,1,0.5,1.5c0.2,0.2,0.3,0.4,0.4,0.6c1.4,2,2.3,4.1,2.8,6.6c0.5,2.4,1.3,4.7,2,7.1
			c0.2,0.8,0.6,1.6,0.4,2.4c-0.5,0.4-1.1,0.5-1.7,0.5c-1.3,0.1-2.6,0.1-3.9,0.2c-1.2,0.1-2.1-0.4-2.5-1.6c-0.9-2.2-1.9-4.4-2.8-6.6
			c-0.4-0.9-0.6-1.8-0.8-2.8c-0.1-0.4-0.2-0.7-0.2-0.9c-0.3-0.3-0.5-0.3-0.7-0.1c0,0.1-0.1,0.2-0.1,0.3c0,1.3,0.4,2.5,0.8,3.6
			c0.7,2,1.6,3.9,2.5,5.8c0.1,0.3,0.2,0.6,0.4,0.9c0.3,0.7,0.2,1.2-0.4,1.7c-0.8,0.8-1.8,1.1-2.9,1.2c-1.5,0.1-2.9,0.1-4.3-0.4
			c-0.5-0.2-0.9-0.4-1.1-0.9c-0.8-2.5-1.9-5-2.4-7.6c-0.2-1.1-0.3-2.1-0.3-3.2c-0.3-0.3-0.6-0.2-0.9-0.1c-0.3,3.9,1.6,7.4,2.6,11
			c-0.6,0.4-1.2,0.4-1.7,0.5c-2.1,0.4-4.2,0.5-6.3-0.1c-2.9-0.8-5-2.5-5.6-5.6c-0.4-1.9,0-3.8,0.7-5.6c0.3-0.9,0.8-1.7,1.3-2.5
			c0.9-1.3,1.8-2.7,2.8-4c1.1-1.6,1.7-3.3,1.7-5.2c0-0.1,0-0.3,0.1-0.4c0,0,0-0.1,0.1-0.1c0.2-0.2,0.4,0,0.6,0
			c2.5,0.7,4.8,0.4,7.1-0.7c0.5-0.3,1.1-0.4,1.6-0.7c2.4-1.3,2.8-4,0.8-6c-0.3-0.3-0.5-0.4-0.9-0.5c-0.3,0.1-0.3,0.3-0.3,0.7
			c1,0.4,1.4,1.3,1.5,2.3c0.1,1.1-0.2,2-1.1,2.5c-1.6,0.8-3.2,1.7-5,1.9c-1.6,0.3-3.2,0-4.7-0.6c-1.3-0.5-2.4-1.5-3.2-2.6
			c-0.7-1-0.6-2,0.1-3c0.7-1.1,1.5-2.1,2.2-3.2c0.7-1,1.4-2.1,1.9-3.2c0.3-0.6,0.7-1.2,1.1-1.8c1.1-1.4,2.4-2.3,4.1-2.7
			c1.5-0.3,3-0.5,4.5-0.8c0.2,0,0.4-0.1,0.6-0.1c2.8-0.7,4.3-2.9,3.7-5.8c-0.2-1.1-0.6-2.1-1.1-3c-1.1-2.3-2.3-4.6-3.3-7
			c-0.3-0.7-0.5-1.4-0.7-2.2c-0.4-2.2,1.1-3.7,3.3-3.4c1,0.2,1.4,0.8,1.1,1.7c-0.4,1.1-0.2,2,0.3,3c1.4,3.3,3.4,6.3,4.9,9.6
			c0.8,1.7,1.5,3.4,1.8,5.2c0.4,2,0.1,3.8-1.3,5.3C453.2,384.1,452.9,384.5,452.7,384.9z M443.4,384.3c0.5,0,0.9-0.4,0.9-0.9
			c0-0.5-0.4-1-1-1c-0.5,0-1,0.5-0.9,1C442.5,383.9,442.9,384.3,443.4,384.3z"/>
		<path fill="#1F9DEB" d="M461.4,411.4c0.4-0.3,0.6-0.2,0.9,0.1c0,0.4-0.2,0.6-0.6,0.6C461.3,412,461.2,411.7,461.4,411.4z"/>
		<path fill="#1F9DEB" d="M451,411.9c-0.2-0.2-0.2-0.4-0.1-0.7c0.3,0.1,0.2,0.4,0.2,0.5C451.1,411.9,451,411.9,451,411.9z"/>
		<g>
			<circle fill="#010909" cx="435.3" cy="315.2" r="8.6"/>
			<circle fill="#010909" cx="447" cy="329" r="16.5"/>
		</g>
		<rect x="386.7" y="320.6" fill="none" width="116.2" height="26.3"/>
		<text transform="matrix(1 0 0 1 413.2516 334.3662)" fill="#FFFFFF" font-family="'Bauhaus93'" font-size="20.5549">inkling</text>
		<path d="M450.6,402.5c-1.6,0-3.1,0-4.7,0c-4.7,0-9.1-3.1-10.9-7.5c-1.8-4.4-0.7-8.7,3.1-12.3c5.2-5,11.3-5.8,18.1-2.2
			c2.4-3.8,6.4-4.4,10.6-4.8c2.2-0.2,4.4-0.8,6.5-1.7c2.4-1,4-2.7,3.3-5.8c-2.3-2.4-5-1.4-7.7-0.8c-0.4,0.1-0.7,0.2-1.1,0.3
			c-3.8,0.8-6.7-3.3-4.7-6.6c0.5-0.9,1.1-1.7,1.6-2.5c4.8,0.1,1.7,3,2.6,5.2c1.6-0.4,3.3-0.6,5-1.1c6.6-1.9,10.9,1.4,10.8,8.3
			c-0.2,6.9-3.3,12.7-7.7,17.8c-1.8,2.1-4,3.9-6,5.8c-8.4,8.2-9.8,19.2-3.5,29.5c-1.1,0.1-2,0.3-3,0.3c-0.9,0-1.7,0-2.6,0
			c-0.6-0.9-1.2-1.8-1.7-2.7c-1.1-1.8-3.2-2.8-5.2-2.5c-1.9,0.2-2.4,1.5-3.1,5h-5.5c-1.8-2.2-2.2-6.1-6.2-5.3
			c-2.5,0.5-3.9,2.2-3.1,5.2h-6.1c-1.8-1.8-2.3-6.7-6.7-5c-1.5,0.6-2.4,2.9-3.9,5h-5.1v-17.3c-1.4,0.2-2.5,0.3-3.6,0.4
			c-1.3,0.2-2.6-0.4-3.4-1.4c-1.2-1.5-0.8-3.3,0.6-5.4v2.7c0,0.7,0.4,1.4,1,1.8c0.1,0.1,0.3,0.2,0.4,0.2c4.1,0.6,5.5-2.1,6.5-5.3
			c2.6-8.1,7.7-13.9,15.8-16.6c1.5-0.5,3.2-0.2,4.8-0.3l0,0c-5,4.7-5.6,10.1-2,15.5C436.7,403.1,445,406.9,450.6,402.5
			c0.1-0.1,0.2-0.1,0.2-0.2C450.7,402.3,450.7,402.4,450.6,402.5z"/>
		<rect x="386.5" y="432.7" fill="none" width="117.9" height="18.1"/>
		<text transform="matrix(1 0 0 1 402.5265 438.203)" fill="#FFFFFF" font-family="'Bauhaus93'" font-size="8.222">so you’ll never forget...</text>
	</g>
</g>
</svg>
