<?xml version="1.0" encoding="utf-8"?>
<!-- Generator: Adobe Illustrator 16.0.4, SVG Export Plug-In . SVG Version: 6.00 Build 0)  -->
<!DOCTYPE svg PUBLIC "-//W3C//DTD SVG 1.1//EN" "http://www.w3.org/Graphics/SVG/1.1/DTD/svg11.dtd">
<svg version="1.1" id="Layer_1" xmlns:ev="http://www.w3.org/2001/xml-events"
	 xmlns="http://www.w3.org/2000/svg" xmlns:xlink="http://www.w3.org/1999/xlink" x="0px" y="0px" width="573.057px"
	 height="1020px" viewBox="590.307 0 573.057 1020" enable-background="new 590.307 0 573.057 1020" xml:space="preserve">
<path opacity="0.01" fill="#FFFFFF" enable-background="new    " d="M1170.242,104.962h0.772v0.387h-0.386v0.386h0.386v0.386h-0.772
	V104.962z M1169.855,104.061h1.675v0.386h0.386v2.061h-0.386v0.386h-1.675v-0.386h-0.386v-2.061h0.386v2.061h1.675v-2.061h-1.675
	V104.061z M1172.689,104.447h0.387v0.773h0.386v-0.773h0.387v0.773h-0.387v0.386h0.387v0.773h-0.387v-0.773h-0.386v0.773h-0.387
	v-0.773h0.387v-0.386h-0.387V104.447z M1174.363,104.447h2.061v2.061h-0.386v-1.674h-0.387v1.674h-0.386v-1.674h-0.387v1.674h-0.387
	v-2.061H1174.363z M1176.811,104.447h1.288l-0.387,0.387h-0.515v1.288h0.386v-1.288l0.387-0.387v2.061h-0.772v0.772h-0.387V104.447z
	 M1178.484,103.674h0.387v2.447h0.387v0.387h-0.773V103.674z M1179.644,104.447h1.288l-0.387,0.387h-0.386v0.386h0.386v-0.386
	l0.387-0.387v1.288h-0.772v0.386h0.772v0.387h-1.288V104.447z M1181.318,106.121h0.386v0.387h-0.386V106.121z M1182.091,104.447
	h1.288v0.387h-0.773v1.288h0.773v0.387h-1.288V104.447z M1183.766,104.447h1.287v2.061h-1.287l0.386-0.387h0.387v-1.288h-0.387
	v1.288l-0.386,0.387V104.447z M1185.439,104.447h2.061v2.061h-0.387v-1.674h-0.386v1.674h-0.516v-1.674h-0.386v1.674h-0.387V104.447
	z"/>
<text transform="matrix(1 0 0 1 1169.8242 543.7588)" opacity="0.01" fill="#FFFFFF" enable-background="new    " font-family="'Verdana'" font-size="8.2102">© xmple.com</text>
<a xlink:href="https://www.xmple.com" >
	
		<text transform="matrix(1 0 0 1 1906.9219 111.9004)" opacity="0.01" fill="#FFFFFF" enable-background="new    " font-family="'Verdana'" font-size="8.2102">xmple.com</text>
</a>
<path fill="#1F9DEB" d="M590.083,1020c0-339.833,0-679.669,0-1020c191.651,0,383.301,0,574.954,0c0,339.837,0,679.673,0,1020
	C973.384,1020,781.733,1020,590.083,1020z"/>
<path fill="#1F9DEB" d="M945.726,715.236c0.494,4.445,1.977,8.396,2.961,11.854c1.484,3.457,2.473,6.914,3.953,10.37
	c1.482,3.462,0.988,7.907,3.457,11.364c2.472-1.483,4.448-2.966,5.435-5.929c1.482-7.903,1.482-15.806-0.494-23.215
	c-0.492-2.472-1.975-4.445-4.94-4.445C952.64,715.236,949.677,715.236,945.726,715.236z"/>
<path fill="#1F9DEB" d="M738.268,706.345c0-4.941-3.951-8.892-8.892-8.397c-4.936,0-8.892,3.951-8.892,8.892
	c0,4.445,3.956,7.902,8.892,8.397C734.316,715.236,738.268,711.284,738.268,706.345z"/>
<path display="none" fill="#010909" d="M917.076,574.459c0.988,1.978,4.444,1.978,4.94,5.435c0,1.979-1.975,3.457-3.457,5.435
	c-1.483,1.975-3.457,3.952-4.446,6.42c1.975,3.457,4.94,5.93,7.407,8.892c1.484,1.975,3.457,3.457,4.941,5.436
	c4.94,6.419,3.456,14.322-3.457,18.769c-2.472,1.978-5.435,2.962-7.902,4.939c-0.989,3.458,0.489,6.42,0.985,8.892
	c1.482,7.409,3.46,15.312,3.951,22.72c0,2.469,0.987,4.94,2.472,7.409c0.984,0.989,1.479,1.978,1.975,2.966
	c6.914,9.877,11.362,20.252,13.831,32.602c2.469,11.854,6.42,23.214,9.876,35.068c0.99,3.951,2.967,7.902,1.979,11.854
	c-2.472,1.978-5.435,2.468-8.397,2.468c-6.42,0.494-12.843,0.494-19.263,0.989c-5.929,0.494-10.376-1.974-12.349-7.903
	c-4.447-10.865-9.386-21.734-13.832-32.601c-1.974-4.445-2.963-8.892-3.951-13.831c-0.494-1.975-0.988-3.458-0.988-4.443
	c-1.48-1.482-2.469-1.482-3.459-0.494c0,0.494-0.494,0.989-0.494,1.479c0,6.424,1.979,12.35,3.953,17.783
	c3.46,9.881,7.901,19.264,12.347,28.649c0.496,1.483,0.99,2.963,1.978,4.445c1.481,3.458,0.99,5.926-1.978,8.397
	c-3.951,3.952-8.887,5.436-14.321,5.926c-7.408,0.494-14.327,0.494-21.24-1.974c-2.469-0.989-4.447-1.978-5.436-4.445
	c-3.951-12.35-9.382-24.698-11.854-37.541c-0.988-5.432-1.479-10.372-1.479-15.807c-1.484-1.483-2.963-0.989-4.447-0.494
	c-1.481,19.263,7.904,36.552,12.843,54.335c-2.964,1.975-5.929,1.975-8.396,2.469c-10.376,1.978-20.746,2.472-31.122-0.494
	c-14.321-3.952-24.697-12.349-27.66-27.66c-1.973-9.387,0-18.769,3.457-27.66c1.484-4.446,3.952-8.397,6.425-12.35
	c4.444-6.423,8.887-13.338,13.827-19.757c5.436-7.903,8.397-16.3,8.397-25.687c0-0.494,0-1.483,0.494-1.974c0,0,0-0.494,0.494-0.494
	c0.99-0.989,1.975,0,2.963,0c12.349,3.457,23.709,1.974,35.073-3.457c2.469-1.483,5.43-1.979,7.901-3.461
	c11.854-6.42,13.829-19.758,3.953-29.634c-1.484-1.483-2.472-1.979-4.446-2.473c-1.482,0.494-1.482,1.483-1.482,3.457
	c4.938,1.979,6.913,6.424,7.407,11.364c0.494,5.431-0.984,9.876-5.432,12.349c-7.901,3.951-15.806,8.397-24.697,9.382
	c-7.901,1.483-15.806,0-23.213-2.963c-6.425-2.468-11.858-7.408-15.811-12.842c-3.457-4.941-2.963-9.878,0.496-14.818
	c3.456-5.435,7.411-10.374,10.868-15.805c3.456-4.941,6.913-10.376,9.382-15.81c1.484-2.963,3.462-5.926,5.435-8.889
	c5.436-6.918,11.855-11.364,20.253-13.338c7.407-1.483,14.815-2.472,22.225-3.951c0.988,0,1.979-0.494,2.967-0.494
	c13.829-3.457,21.24-14.323,18.274-28.649c-0.985-5.434-2.963-10.371-5.432-14.816c-5.436-11.364-11.359-22.725-16.3-34.578
	c-1.484-3.458-2.472-6.915-3.457-10.866c-1.978-10.87,5.432-18.278,16.3-16.794c4.938,0.988,6.915,3.951,5.432,8.397
	c-1.975,5.435-0.988,9.876,1.483,14.817c6.914,16.299,16.794,31.121,24.202,47.42c3.952,8.397,7.409,16.796,8.893,25.684
	c1.974,9.88,0.492,18.771-6.424,26.18C919.548,570.508,918.064,572.485,917.076,574.459z M871.139,571.497
	c2.472,0,4.444-1.974,4.444-4.446c0-2.469-1.973-4.94-4.936-4.94c-2.472,0-4.94,2.472-4.446,4.94
	C866.691,569.523,868.67,571.497,871.139,571.497z"/>
<path fill="#1F9DEB" d="M960.053,705.355c1.973-1.479,2.961-0.984,4.441,0.494c0,1.978-0.985,2.963-2.963,2.963
	C959.557,708.321,959.062,706.839,960.053,705.355z"/>
<path fill="#1F9DEB" d="M908.678,707.827c-0.987-0.988-0.987-1.978-0.494-3.456c1.484,0.49,0.99,1.974,0.99,2.468
	C909.174,707.827,908.678,707.827,908.678,707.827z"/>
<g>
	<path fill="#010909" d="M830.13,166.7c23.461,0,42.48,19.02,42.48,42.481c0,23.462-19.02,42.481-42.48,42.481
		c-23.458,0-42.478-19.02-42.478-42.481C787.652,185.719,806.672,166.7,830.13,166.7z"/>
	<circle fill="#010909" cx="887.922" cy="277.344" r="81.501"/>
</g>
<rect x="591.071" y="256.853" fill="none" width="573.965" height="129.911"/>
<text transform="matrix(1 0 0 1 722.2227 303.8486)" fill="#FFFFFF" font-family="'Bauhaus93'" font-size="101.5301">inkling</text>
<rect x="590.083" y="810.569" fill="none" width="582.367" height="89.404"/>
<text transform="matrix(1 0 0 1 647.749 848.248)" fill="#FFFFFF" font-family="'AvenirNext-Heavy'" font-size="36">so you’ll never forget...</text>
<g>
	<path d="M906.705,661.56c-7.903,0-15.314,0-23.219,0c-23.215,0-44.949-15.312-53.838-37.047
		c-8.892-21.73-3.46-42.971,15.312-60.755c25.688-24.697,55.816-28.648,89.405-10.865c11.854-18.771,31.611-21.734,52.357-23.708
		c10.866-0.989,21.734-3.952,32.106-8.397c11.854-4.94,19.757-13.338,16.3-28.649c-11.36-11.854-24.697-6.918-38.035-3.951
		c-1.974,0.494-3.457,0.985-5.431,1.479c-18.771,3.952-33.095-16.3-23.215-32.6c2.469-4.446,5.432-8.397,7.903-12.349
		c23.709,0.494,8.398,14.821,12.84,25.687c7.902-1.974,16.3-2.963,24.697-5.435c32.601-9.382,53.841,6.918,53.347,40.998
		c-0.984,34.084-16.301,62.733-38.035,87.925c-8.889,10.371-19.753,19.263-29.635,28.648
		c-41.493,40.504-48.406,94.836-17.288,145.714c-5.432,0.494-9.881,1.483-14.817,1.483c-4.446,0-8.397,0-12.845,0
		c-2.961-4.446-5.929-8.892-8.396-13.338c-5.435-8.892-15.806-13.832-25.687-12.349c-9.383,0.988-11.855,7.408-15.312,24.697
		h-27.166c-8.892-10.869-10.87-30.132-30.627-26.181c-12.349,2.472-19.262,10.869-15.312,25.687h-30.132
		c-8.892-8.892-11.36-33.095-33.095-24.698c-7.408,2.963-11.854,14.323-19.263,24.698h-25.192V682.8
		c-6.914,0.989-12.349,1.48-17.779,1.975c-6.424,0.988-12.844-1.975-16.795-6.914c-5.929-7.409-3.951-16.301,2.963-26.672v13.334
		c0,3.461,1.973,6.918,4.941,8.892c0.494,0.494,1.482,0.988,1.973,0.988c20.252,2.963,27.169-10.37,32.109-26.18
		c12.84-40.009,38.031-68.658,78.041-81.992c7.408-2.473,15.806-0.988,23.708-1.483l0,0c-24.697,23.214-27.66,49.89-9.877,76.562
		C838.047,664.522,879.045,683.294,906.705,661.56c0.491-0.494,0.985-0.494,0.985-0.989
		C907.196,660.57,907.196,661.065,906.705,661.56z"/>
	<circle fill="#FFFFFF" stroke="#000000" stroke-width="3.8353" stroke-miterlimit="10" cx="972.95" cy="571.924" r="9.588"/>
</g>
</svg>
