<?xml version="1.0" encoding="utf-8"?>
<!-- Generator: Adobe Illustrator 18.1.1, SVG Export Plug-In . SVG Version: 6.00 Build 0)  -->
<!DOCTYPE svg PUBLIC "-//W3C//DTD SVG 1.1//EN" "http://www.w3.org/Graphics/SVG/1.1/DTD/svg11.dtd">
<svg version="1.1" id="Layer_1" xmlns:ev="http://www.w3.org/2001/xml-events"
	 xmlns="http://www.w3.org/2000/svg" xmlns:xlink="http://www.w3.org/1999/xlink" x="0px" y="0px" viewBox="654 -144 1920 1080"
	 enable-background="new 654 -144 1920 1080" xml:space="preserve">
<pattern  x="654" y="936" width="2.1" height="3.1" patternUnits="userSpaceOnUse" id="New_Pattern_Swatch_8" viewBox="0 -3.1 2.1 3.1" overflow="visible">
	<g>
		<polygon fill="none" points="0,0 2.1,0 2.1,-3.1 0,-3.1 		"/>
		<polygon fill="#1A1A1A" points="1.1,0 0,0 0,-1.1 1.1,-1.1 		"/>
		<polygon fill="#1A1A1A" points="1.1,-2 0,-2 0,-3.1 1.1,-3.1 		"/>
		<polygon fill="#1A1A1A" points="2.1,-1 1,-1 1,-2.1 2.1,-2.1 		"/>
	</g>
</pattern>
<rect x="654" y="-144" fill="#F08080" width="1920" height="1080"/>
<linearGradient id="SVGID_1_" gradientUnits="userSpaceOnUse" x1="1308.6594" y1="791.8715" x2="1307.6594" y2="791.3951" gradientTransform="matrix(1920 0 0 -1080 -2510052 855360)">
	<stop  offset="0" style="stop-color:#F08080"/>
	<stop  offset="1" style="stop-color:#00BFFF"/>
</linearGradient>
<rect x="654" y="-144" fill="url(#SVGID_1_)" width="1920" height="1080"/>
<path opacity="1.000000e-02" fill="#FFFFFF" enable-background="new    " d="M659-139h2v1h-1v1h1v1h-2V-139z M658-141h4v1h1v5h-1v1
	h-4v-1h-1v-5h1v5h4v-5h-4V-141z M665-140h1v2h1v-2h1v2h-1v1h1v2h-1v-2h-1v2h-1v-2h1v-1h-1V-140z M669-140h5v5h-1v-4h-1v4h-1v-4h-1v4
	h-1V-140z M675-140h3l-1,1h-1v3h1v-3l1-1v5h-2v2h-1V-140z M679-142h1v6h1v1h-2V-142z M682-140h3l-1,1h-1v1h1v-1l1-1v3h-2v1h2v1h-3
	V-140z M686-136h1v1h-1V-136z M688-140h3v1h-2v3h2v1h-3V-140z M692-140h3v5h-3l1-1h1v-3h-1v3l-1,1V-140z M696-140h5v5h-1v-4h-1v4h-1
	v-4h-1v4h-1V-140z"/>
<text transform="matrix(1 0 0 1 658 930)" opacity="1.000000e-02" fill="#FFFFFF" enable-background="new    " font-family="'Verdana'" font-size="20">© xmple.com</text>
<a xlink:href="https://www.xmple.com" >
	
		<text transform="matrix(1 0 0 1 2453.5605 -122)" opacity="1.000000e-02" fill="#FFFFFF" enable-background="new    " font-family="'Verdana'" font-size="20">xmple.com</text>
</a>
<g>
	<g>
		
			<image overflow="visible" opacity="0.35" width="486" height="923" xlink:href="8508CF48F618BAEE.png"  transform="matrix(1 0 0 1 887 -56)">
		</image>
		<g>
			<g>
				<g>
					<g>
						<linearGradient id="SVGID_2_" gradientUnits="userSpaceOnUse" x1="915.1734" y1="115" x2="915.1734" y2="79">
							<stop  offset="0" style="stop-color:#626365"/>
							<stop  offset="0.1413" style="stop-color:#D4D6D5"/>
							<stop  offset="0.8545" style="stop-color:#D4D6D5"/>
							<stop  offset="1" style="stop-color:#626365"/>
						</linearGradient>
						<path fill="url(#SVGID_2_)" d="M916,79.7c0,0,0.4-0.7,0.3-0.7h-0.2c-1.3,0-2.1,1.9-2.1,3.6v28.7c0,1.6,0.9,3.8,2.1,3.8h0.2
							c0,0-0.3-0.9-0.3-0.9V79.7z"/>
						<rect x="915" y="79" fill="#FFFFFF" width="1" height="36"/>
					</g>
					<g>
						<linearGradient id="SVGID_3_" gradientUnits="userSpaceOnUse" x1="915.1734" y1="216" x2="915.1734" y2="153.6635">
							<stop  offset="0" style="stop-color:#626365"/>
							<stop  offset="0.1413" style="stop-color:#D4D6D5"/>
							<stop  offset="0.8545" style="stop-color:#D4D6D5"/>
							<stop  offset="1" style="stop-color:#626365"/>
						</linearGradient>
						<path fill="url(#SVGID_3_)" d="M916,153.7c0,0,0.4,0.3,0.3,0.3h-0.2c-1.3,0-2.1,1-2.1,2.6v56.5c0,1.6,0.9,2.9,2.1,2.9h0.2
							c0,0-0.3,0-0.3,0V153.7z"/>
						<rect x="915" y="154" fill="#FFFFFF" width="1" height="62"/>
					</g>
					<g>
						<linearGradient id="SVGID_4_" gradientUnits="userSpaceOnUse" x1="915.1734" y1="295" x2="915.1734" y2="232.684">
							<stop  offset="0" style="stop-color:#626365"/>
							<stop  offset="0.1413" style="stop-color:#D4D6D5"/>
							<stop  offset="0.8545" style="stop-color:#D4D6D5"/>
							<stop  offset="1" style="stop-color:#626365"/>
						</linearGradient>
						<path fill="url(#SVGID_4_)" d="M916,232.7c0,0,0.4,0.3,0.3,0.3h-0.2c-1.3,0-2.1,1-2.1,2.6v56.5c0,1.6,0.9,2.9,2.1,2.9h0.2
							c0,0-0.3,0-0.3,0V232.7z"/>
						<rect x="915" y="233" fill="#FFFFFF" width="1" height="62"/>
					</g>
				</g>
				<g>
					
						<linearGradient id="SVGID_5_" gradientUnits="userSpaceOnUse" x1="2626.5" y1="216" x2="2626.5" y2="153.6635" gradientTransform="matrix(-1 0 0 1 3959 0)">
						<stop  offset="0" style="stop-color:#626365"/>
						<stop  offset="0.1413" style="stop-color:#D4D6D5"/>
						<stop  offset="0.8545" style="stop-color:#D4D6D5"/>
						<stop  offset="1" style="stop-color:#626365"/>
					</linearGradient>
					<path fill="url(#SVGID_5_)" d="M1331,153.7c0,0,0,0.3,0,0.3h0.9c1.3,0,2.1,1,2.1,2.6v56.5c0,1.6-0.8,2.9-2.1,2.9h-0.9
						c0,0,0,0,0,0V153.7z"/>
					<rect x="1331" y="154" fill="#FFFFFF" width="1" height="62"/>
				</g>
				<g>
					<g>
						<path fill="#C9CACD" d="M1331.8,259L1331.8,259l-0.3-210.4c0-21.1-3.8-33.5-3.8-33.5l-0.1,0c-5.4-19.9-22.2-35.3-43.5-40.4
							c-4.5-1.5-15.5-3.8-37.8-3.8h-120.1h-5H1001c-23.6,0-34.5,2.6-38.4,4c-20.8,5.3-37.2,20.6-42.5,40.2l0-0.1
							c0,0-3.8,12.3-3.8,33.5L915.9,259h0l-0.2,140.5L916,540h-0.1l0.3,210.2c0,21.1,3.5,33.5,3.5,33.5l0.3-0.2
							c5.4,19.7,21.7,35,42.5,40.3c3.1,1.1,10.7,3.2,25.6,3.9c2.1-1.3,5.5-2.2,9.3-2.2c4.1,0,7.7,1.4,9.8,2.4h105.5c0.9-1,2-1,3.2-1
							h28.9c1.2,0,2.3,0,3.2,1h98.2c22.3,0,33.3-2.5,37.8-4c21.3-5.1,38-20.6,43.5-40.5l0.3,0.2c0,0,3.5-12.4,3.5-33.5l0.3-210.2h0
							l0.2-140.5L1331.8,259z"/>
					</g>
					<defs>
						<filter id="Adobe_OpacityMaskFilter" filterUnits="userSpaceOnUse" x="915.7" y="-29" width="416.3" height="857">
							
								<feColorMatrix  type="matrix" values="-1 0 0 0 1  0 -1 0 0 1  0 0 -1 0 1  0 0 0 1 0" color-interpolation-filters="sRGB" result="source"/>
						</filter>
					</defs>
					<mask maskUnits="userSpaceOnUse" x="915.7" y="-29" width="416.3" height="857" id="SVGID_6_">
						<g filter="url(#Adobe_OpacityMaskFilter)">
							
								<image overflow="visible" width="421" height="863" xlink:href="8508CF48F618BAF2.jpg"  transform="matrix(1 0 0 1 913 -32)">
							</image>
						</g>
					</mask>
					<g opacity="0.6" mask="url(#SVGID_6_)">
						<path d="M1331.8,259L1331.8,259l-0.3-210.4c0-21.1-3.8-33.5-3.8-33.5l-0.1,0c-5.4-19.9-22.2-35.3-43.5-40.4
							c-4.5-1.5-15.5-3.8-37.8-3.8h-120.1h-5H1001c-23.6,0-34.5,2.6-38.4,4c-20.8,5.3-37.2,20.6-42.5,40.2l0-0.1
							c0,0-3.8,12.3-3.8,33.5L915.9,259h0l-0.2,140.5L916,540h-0.1l0.3,210.2c0,21.1,3.5,33.5,3.5,33.5l0.3-0.2
							c5.4,19.7,21.7,35,42.5,40.3c3.1,1.1,10.7,3.2,25.6,3.9c2.1-1.3,5.5-2.2,9.3-2.2c4.1,0,7.7,1.4,9.8,2.4h105.5c0.9-1,2-1,3.2-1
							h28.9c1.2,0,2.3,0,3.2,1h98.2c22.3,0,33.3-2.5,37.8-4c21.3-5.1,38-20.6,43.5-40.5l0.3,0.2c0,0,3.5-12.4,3.5-33.5l0.3-210.2h0
							l0.2-140.5L1331.8,259z"/>
					</g>
				</g>
				<path fill="#BFC0C2" d="M1149.6,823c-1.4-1-36.8-1-38.2,0h-102.7c-3.1,0-6.9-0.2-11.1-0.2c-3.9,0-6.6-0.1-10.4-0.1
					c-13.9-0.8-20.6-2.7-22.9-3.6l-0.2-0.1l-0.2-0.1c-19.2-4.9-34.1-19-38.9-36.8l-1.5-5.6c-1-5.4-2.1-14.9-2.1-26.9L920.5,534h0
					l0.2-135l0.2-135h0l0.3-215.4c0-11.9,1.2-21.1,2.1-26.5l1.5-5.6c4.9-17.8,19.8-31.9,38.9-36.8l0.2-0.1l0.2,0.1
					c3.3-1.2,13.6-3.7,36.7-3.7h245.4c22.3,0,32.8,2.4,36.2,3.5l0.2,0l0.2,0c19.6,4.7,34.8,18.8,39.8,37l1.5,5.6
					c1,5.4,2.1,14.6,2.1,26.5l0.8,215.4h0l-0.2,135l-0.2,135h0l-0.3,215.7c0,11.9-1.2,21.2-2.1,26.7l-1.5,5.7
					c-4.9,18.1-20.2,32.4-39.8,37.1l-0.2,0.1l-0.2,0c-3.5,1.1-13.9,3.7-36.2,3.7H1149.6z"/>
				<path fill="#FFFFFF" d="M1149.9,822c-1.5-1-37.2-1-38.8,0h-102.2c-3,0-7.1-0.2-11.4-0.2c-3.9,0-7.4-0.2-10.6-0.2
					c-13.6-0.8-20.1-2.7-22.3-3.5l-0.3-0.1l-0.3-0.1c-18.8-4.8-33.4-18.6-38.1-36l-1.5-5.6c-1-5.5-2.1-14.8-2.1-26.6L921.6,533h0
					l0.2-134l0.2-134h0l0.3-216.4c0-11.8,1.1-20.8,2.1-26.2l1.5-5.6c4.7-17.4,19.4-31.2,38.1-36l0.3-0.1l0.3-0.4
					c3.3-1.2,13.4-4.2,36.3-4.2h245.4c22.2,0,32.5,2.9,35.9,4l0.2,0.2l0.2,0.1c19.2,4.6,34.1,18.5,39,36.3l1.5,5.6
					c1,5.5,2.1,14.5,2.1,26.2l0.8,216.5h0l-0.2,134.4l-0.2,134.4l-0.3,216.4c0,11.8-1.1,20.7-2.1,26.2l-1.5,5.6
					c-4.8,17.7-19.8,31.6-39,36.2l-0.2,0.1l-0.2,0.1c-3.4,1.1-13.7,3.7-35.9,3.7H1149.9z"/>
				<path fill="#D9D9D9" d="M1009.6,820c0,0-12-0.7-12-0.7s-11-0.2-11.1-0.4c-12.8-0.8-18.8-2.7-20.9-3.4l-0.4-0.2l-0.4-0.1
					c-17.8-4.5-31.7-17.6-36.1-34.1l-1.5-5.4c-0.9-5.4-2-14.6-2-26.1L924.4,530h0l0.2-131l0.2-131h0l0.3-219.3
					c0-11.5,1.1-20.3,2-25.7l1.5-5.5C933.1,1.1,947-12,964.8-16.5l0.4-0.1l0.4-0.4c3.1-1.1,12.9-4,35.4-4h245.4
					c21.8,0,31.7,2.7,35,3.8l0.3,0.2l0.4,0.1c18.2,4.4,32.4,17.5,36.9,34.3l1.5,5.4c0.9,5.4,2,14.3,2,25.7l0.7,219.3h0l-0.2,131.5
					l-0.2,131.6l-0.3,219.2c0,11.5-1.1,20.2-2,25.6l-1.5,5.4c-4.6,16.8-18.7,29.9-36.9,34.2l-0.4,0.1l-0.3,0.5c-3.3,1.1-13.3,4-35,4
					H1009.6z"/>
				<path fill="#FFFFFF" d="M1009.8,818c-3.9,0-7.9-0.1-12.4-0.1c-4.1,0-8.1-0.3-11.1-0.3c-12.5-0.8-18.4-2.5-20.3-3.2l-0.4-0.2
					l-0.5-0.1c-17.4-4.4-31-17.2-35.3-33.3l-1.5-5.4c-0.9-5.3-2-14-2-25.4l-0.7-219.9l0-0.4l0.2-130.4l0.2-130.4h0l0.3-220.4
					c0-11.4,1.1-20.1,2-25.4l1.5-5.4c4.4-16.1,17.9-28.8,35.3-33.3l0.5-0.1l0.4-1c3.1-1.1,12.7-4.5,35-4.5h245.4
					c21.6,0,31.4,3.2,34.7,4.3l0.4,0.5l0.4,0.3c17.8,4.3,31.7,17.2,36.1,33.6l1.5,5.4c0.9,5.3,2,14.1,2,25.5l0.7,220.4h0l-0.2,130.4
					l-0.2,130.5l-0.3,220.3c0,11.4-1.1,20.1-2,25.4l-1.5,5.4c-4.5,16.4-18.3,29.2-36.1,33.5l-0.4,0.1l-0.4,0.1
					c-3.2,1.1-13.1,3.5-34.7,3.5H1009.8z"/>
				<linearGradient id="SVGID_7_" gradientUnits="userSpaceOnUse" x1="820.8677" y1="655.2439" x2="1426.7465" y2="146.8513">
					<stop  offset="0" style="stop-color:#E9E9EA"/>
					<stop  offset="1" style="stop-color:#F6F6F6"/>
				</linearGradient>
				<path fill="url(#SVGID_7_)" d="M1010,820c-1.8,0-3.7-0.7-5.6-0.7c-2.1,0-4.2-0.4-6.5-0.4c-2.2,0-4.4-0.3-6.5-0.4
					c-1.6-0.1-3.1-0.2-4.5-0.2c-12-0.8-17.6-2.5-19.4-3.1l-0.6-0.2l-0.6-0.2c-8.6-2.2-16.4-6.7-22.4-12.8c-3-4-5.2-8.5-6.5-13.2
					l-1.4-5.2c-0.8-5.1-1.8-13.4-1.8-24.3l-0.6-229.7l-0.1-0.3l0.2-127.4l-0.2-129.4l0.7-228.7c0-11.8,1.1-20.5,1.8-24.7l1.4-5.3
					c1.5-5.5,4.3-10.9,8.2-15.4c5.8-5.3,12.9-9.1,20.7-11.1l0.6-0.1l0.6,0.1c2.9-1.1,12.1-3.2,33.9-3.2h244.4
					c21.1,0,30.6,2.1,33.7,3.1l0.5,0l0.5,0c8.5,2,16.1,6.1,22.2,12c3.6,4.3,6.1,9.2,7.5,14.5l1.4,5.2c0.6,3.5,1.8,12.5,1.8,25
					l0.7,230.1l-0.7,485.5c0,10.9-1,19.2-1.8,24.3l-1.4,5.1c-1.3,4.7-3.4,9.1-6.4,13.1c-6.2,6.4-14.3,10.9-23.3,13.1l-0.5,0.1
					l-0.5,0.8c-3.1,1-12.6,4.1-33.7,4.1H1010z"/>
				<linearGradient id="SVGID_8_" gradientUnits="userSpaceOnUse" x1="1123.8494" y1="820" x2="1123.8494" y2="-16">
					<stop  offset="0" style="stop-color:#000000"/>
					<stop  offset="8.974771e-05" style="stop-color:#090909"/>
					<stop  offset="5.797686e-04" style="stop-color:#373737"/>
					<stop  offset="1.132021e-03" style="stop-color:#626262"/>
					<stop  offset="1.725564e-03" style="stop-color:#888888"/>
					<stop  offset="2.371620e-03" style="stop-color:#A8A8A8"/>
					<stop  offset="3.085603e-03" style="stop-color:#C4C4C4"/>
					<stop  offset="3.891460e-03" style="stop-color:#DADADA"/>
					<stop  offset="4.832866e-03" style="stop-color:#EBEBEB"/>
					<stop  offset="5.996420e-03" style="stop-color:#F6F6F6"/>
					<stop  offset="7.628995e-03" style="stop-color:#FDFDFD"/>
					<stop  offset="1.216053e-02" style="stop-color:#FFFFFF"/>
					<stop  offset="0.137" style="stop-color:#FFFFFF"/>
					<stop  offset="0.8712" style="stop-color:#FFFFFF"/>
					<stop  offset="0.9725" style="stop-color:#FFFFFF"/>
					<stop  offset="0.9892" style="stop-color:#FFFFFF"/>
					<stop  offset="0.9932" style="stop-color:#FDFDFD"/>
					<stop  offset="0.9947" style="stop-color:#F6F6F6"/>
					<stop  offset="0.9957" style="stop-color:#EBEBEB"/>
					<stop  offset="0.9965" style="stop-color:#DADADA"/>
					<stop  offset="0.9972" style="stop-color:#C4C4C4"/>
					<stop  offset="0.9979" style="stop-color:#A8A8A8"/>
					<stop  offset="0.9985" style="stop-color:#888888"/>
					<stop  offset="0.999" style="stop-color:#626262"/>
					<stop  offset="0.9995" style="stop-color:#373737"/>
					<stop  offset="0.9999" style="stop-color:#090909"/>
					<stop  offset="1" style="stop-color:#000000"/>
				</linearGradient>
				<path opacity="0.1" fill="url(#SVGID_8_)" d="M1010,820c-1.8,0-3.7-0.5-5.6-0.5c-2.1,0-4.2-0.3-6.5-0.3c-2.2,0-4.4-0.2-6.5-0.3
					c-1.6-0.1-3.1-0.2-4.5-0.2c-12-0.8-17.6-2.4-19.4-3.1l-0.6-0.2l-0.6-0.2c-8.6-2.2-16.4-6.7-22.4-12.8c-3-4-5.2-8.5-6.5-13.2
					l-1.4-5.2c-0.8-5.1-1.8-13.4-1.8-24.3l-0.6-229.8l-0.1-0.3l0.2-127.5l-0.2-129.4l0.7-228.8c0-11.8,1.1-20.5,1.8-24.7l1.4-5.3
					c1.5-5.5,4.3-10.9,8.2-15.4c5.8-5.3,12.9-9.1,20.7-11.2l0.6-0.1l0.6,0.1c2.9-1.1,12.1-3.2,33.9-3.2h244.4
					c21.1,0,30.6,2.1,33.7,3.1l0.5,0l0.5,0c8.5,2,16.1,6.1,22.2,12c3.6,4.4,6.1,9.2,7.5,14.5l1.4,5.2c0.6,3.5,1.8,12.5,1.8,25
					l0.7,230.3l-0.7,485.8c0,10.9-1,19.2-1.8,24.3l-1.4,5.1c-1.3,4.7-3.4,9.1-6.4,13.1c-6.2,6.4-14.3,10.9-23.3,13.1l-0.5,0.1
					l-0.5,0.6c-3.1,1-12.6,3.8-33.7,3.8H1010z"/>
				<g>
					<g>
						<g>
							<linearGradient id="SVGID_9_" gradientUnits="userSpaceOnUse" x1="1095.365" y1="755.5029" x2="1152.3368" y2="788.3956">
								<stop  offset="0" style="stop-color:#202324"/>
								<stop  offset="9.964059e-02" style="stop-color:#292B2C"/>
								<stop  offset="0.2591" style="stop-color:#404244"/>
								<stop  offset="0.4573" style="stop-color:#666769"/>
								<stop  offset="0.5943" style="stop-color:#848587"/>
								<stop  offset="0.9405" style="stop-color:#FFFFFF"/>
								<stop  offset="0.9728" style="stop-color:#FDFDFD"/>
								<stop  offset="0.9845" style="stop-color:#F6F6F6"/>
								<stop  offset="0.9927" style="stop-color:#EBEBEB"/>
								<stop  offset="0.9994" style="stop-color:#DADADA"/>
								<stop  offset="1" style="stop-color:#D8D8D8"/>
							</linearGradient>
							<path fill="url(#SVGID_9_)" d="M1123.9,739.1c-18.2,0-32.9,14.7-32.9,32.9s14.7,32.9,32.9,32.9s32.9-14.7,32.9-32.9
								S1142,739.1,1123.9,739.1z M1123.9,800.1c-16,0-28.9-12.9-28.9-28.9s12.9-28.9,28.9-28.9s28.9,12.9,28.9,28.9
								C1152.7,787.2,1139.8,800.1,1123.9,800.1z"/>
						</g>
						<defs>
							<filter id="Adobe_OpacityMaskFilter_1_" filterUnits="userSpaceOnUse" x="1091" y="739.1" width="65.8" height="65.8">
								
									<feColorMatrix  type="matrix" values="-1 0 0 0 1  0 -1 0 0 1  0 0 -1 0 1  0 0 0 1 0" color-interpolation-filters="sRGB" result="source"/>
							</filter>
						</defs>
						<mask maskUnits="userSpaceOnUse" x="1091" y="739.1" width="65.8" height="65.8" id="SVGID_10_">
							<g filter="url(#Adobe_OpacityMaskFilter_1_)">
								
									<image overflow="visible" width="71" height="70" xlink:href="8508CF48F618BAF5.jpg"  transform="matrix(1 0 0 1 1088 737)">
								</image>
							</g>
						</mask>
						<g opacity="0.2" mask="url(#SVGID_10_)">
							<path d="M1123.9,739.1c-18.2,0-32.9,14.7-32.9,32.9s14.7,32.9,32.9,32.9s32.9-14.7,32.9-32.9S1142,739.1,1123.9,739.1z
								 M1123.9,800.1c-16,0-28.9-12.9-28.9-28.9s12.9-28.9,28.9-28.9s28.9,12.9,28.9,28.9C1152.7,787.2,1139.8,800.1,1123.9,800.1z
								"/>
						</g>
					</g>
					<circle fill="#FFFFFF" cx="1123.9" cy="771.2" r="28.9"/>
					<circle fill="#FFFFFF" cx="1123.9" cy="771.8" r="28.9"/>
					<linearGradient id="SVGID_11_" gradientUnits="userSpaceOnUse" x1="1123.8507" y1="800.1273" x2="1123.8507" y2="743.4703">
						<stop  offset="0" style="stop-color:#B7B7B7"/>
						<stop  offset="0.212" style="stop-color:#CFCFCF"/>
						<stop  offset="0.4104" style="stop-color:#DEDEDE"/>
						<stop  offset="0.5735" style="stop-color:#E3E3E3"/>
						<stop  offset="1" style="stop-color:#FFFFFF"/>
					</linearGradient>
					<path opacity="0.48" fill="url(#SVGID_11_)" d="M1123.9,800.1c-15.6,0-28.3-12.7-28.3-28.3c0-15.6,12.7-28.3,28.3-28.3
						s28.3,12.7,28.3,28.3C1152.2,787.4,1139.5,800.1,1123.9,800.1z"/>
				</g>
				<rect x="942" y="75" fill="#FFFFFF" width="364" height="649"/>
				<path fill="#070707" d="M1309,74.7c0-0.9-0.7-1.7-1.7-1.7H940.7c-0.9,0-1.7,0.7-1.7,1.7v649.7c0,0.9,0.7,1.7,1.7,1.7h366.7
					c0.9,0,1.7-0.7,1.7-1.7V74.7z M1306,724H942V75h364V724z"/>
				<g>
					<g>
						<g>
							<g>
								<linearGradient id="SVGID_12_" gradientUnits="userSpaceOnUse" x1="1052.3584" y1="24.5222" x2="1064.548" y2="31.5599">
									<stop  offset="0" style="stop-color:#191B20"/>
									<stop  offset="0.2027" style="stop-color:#191B20"/>
									<stop  offset="0.8111" style="stop-color:#575757"/>
									<stop  offset="1" style="stop-color:#575757"/>
								</linearGradient>
								<circle fill="url(#SVGID_12_)" cx="1058.5" cy="28" r="7"/>
							</g>
							<defs>
								<filter id="Adobe_OpacityMaskFilter_2_" filterUnits="userSpaceOnUse" x="1051.4" y="21" width="14.1" height="14.1">
									
										<feColorMatrix  type="matrix" values="-1 0 0 0 1  0 -1 0 0 1  0 0 -1 0 1  0 0 0 1 0" color-interpolation-filters="sRGB" result="source"/>
								</filter>
							</defs>
							<mask maskUnits="userSpaceOnUse" x="1051.4" y="21" width="14.1" height="14.1" id="SVGID_13_">
								<g filter="url(#Adobe_OpacityMaskFilter_2_)">
									
										<image overflow="visible" width="19" height="19" xlink:href="8508CF48F618BAF6.jpg"  transform="matrix(1 0 0 1 1049 19)">
									</image>
								</g>
							</mask>
							<g opacity="0.7" mask="url(#SVGID_13_)">
								<circle cx="1058.5" cy="28" r="7"/>
							</g>
						</g>
						<g>
							<g>
								<linearGradient id="SVGID_14_" gradientUnits="userSpaceOnUse" x1="1053.9877" y1="28.041" x2="1062.9187" y2="28.041">
									<stop  offset="0" style="stop-color:#0D1839"/>
									<stop  offset="1" style="stop-color:#1F2A47"/>
								</linearGradient>
								<circle fill="url(#SVGID_14_)" cx="1058.5" cy="28" r="4.5"/>
							</g>
							<defs>
								<filter id="Adobe_OpacityMaskFilter_3_" filterUnits="userSpaceOnUse" x="1054" y="23.6" width="8.9" height="8.9">
									
										<feColorMatrix  type="matrix" values="-1 0 0 0 1  0 -1 0 0 1  0 0 -1 0 1  0 0 0 1 0" color-interpolation-filters="sRGB" result="source"/>
								</filter>
							</defs>
							<mask maskUnits="userSpaceOnUse" x="1054" y="23.6" width="8.9" height="8.9" id="SVGID_15_">
								<g filter="url(#Adobe_OpacityMaskFilter_3_)">
									
										<image overflow="visible" width="14" height="14" xlink:href="8508CF48F618BAF4.jpg"  transform="matrix(1 0 0 1 1051 21)">
									</image>
								</g>
							</mask>
							<g opacity="0.7" mask="url(#SVGID_15_)">
								<circle cx="1058.5" cy="28" r="4.5"/>
							</g>
						</g>
						<g opacity="0.6">
							<image overflow="visible" width="77" height="78" xlink:href="8508CF48F618BAF2.png"  transform="matrix(1 0 0 1 1019 -11)">
							</image>
						</g>
						<g>
							<image overflow="visible" width="76" height="76" xlink:href="8508CF48F618BAFD.png"  transform="matrix(1 0 0 1 1022 -9)">
							</image>
						</g>
					</g>
					<g>
						<g>
							<circle fill="#211E1D" cx="1124.4" cy="-0.2" r="5"/>
						</g>
						<defs>
							<filter id="Adobe_OpacityMaskFilter_4_" filterUnits="userSpaceOnUse" x="1119.4" y="-5.2" width="10" height="10">
								
									<feColorMatrix  type="matrix" values="-1 0 0 0 1  0 -1 0 0 1  0 0 -1 0 1  0 0 0 1 0" color-interpolation-filters="sRGB" result="source"/>
							</filter>
						</defs>
						<mask maskUnits="userSpaceOnUse" x="1119.4" y="-5.2" width="10" height="10" id="SVGID_16_">
							<g filter="url(#Adobe_OpacityMaskFilter_4_)">
								<image overflow="visible" width="15" height="15" xlink:href="8508CF48F618BAFE.jpg"  transform="matrix(1 0 0 1 1117 -8)">
								</image>
							</g>
						</mask>
						<g opacity="0.9" mask="url(#SVGID_16_)">
							<circle cx="1124.4" cy="-0.2" r="5"/>
						</g>
					</g>
					<g>
						<path fill="#535353" d="M1157,28.1c0,1.6-1.3,2.9-2.9,2.9h-59.2c-1.6,0-2.9-1.3-2.9-2.9v-0.2c0-1.6,1.3-2.9,2.9-2.9h59.2
							c1.6,0,2.9,1.3,2.9,2.9V28.1z"/>
						<g>
							<g>
								<path fill="#403939" d="M1158,28c0,1.7-1.3,3-3,3h-60c-1.7,0-3-1.3-3-3l0,0c0-1.7,1.3-3,3-3h60C1156.7,25,1158,26.3,1158,28
									L1158,28z"/>
							</g>
							<defs>
								<filter id="Adobe_OpacityMaskFilter_5_" filterUnits="userSpaceOnUse" x="1092" y="25" width="66" height="6">
									
										<feColorMatrix  type="matrix" values="-1 0 0 0 1  0 -1 0 0 1  0 0 -1 0 1  0 0 0 1 0" color-interpolation-filters="sRGB" result="source"/>
								</filter>
							</defs>
							<mask maskUnits="userSpaceOnUse" x="1092" y="25" width="66" height="6" id="SVGID_17_">
								<g filter="url(#Adobe_OpacityMaskFilter_5_)">
									
										<image overflow="visible" width="71" height="11" xlink:href="8508CF48F618BAFD.jpg"  transform="matrix(1 0 0 1 1089 23)">
									</image>
								</g>
							</mask>
							<g opacity="0.9" mask="url(#SVGID_17_)">
								<path d="M1158,28c0,1.7-1.3,3-3,3h-60c-1.7,0-3-1.3-3-3l0,0c0-1.7,1.3-3,3-3h60C1156.7,25,1158,26.3,1158,28L1158,28z"/>
							</g>
						</g>
						<path opacity="0.5" fill="url(#New_Pattern_Swatch_8)" d="M1157,28.1c0,1.6-1.3,2.9-2.9,2.9h-59.2c-1.6,0-2.9-1.3-2.9-2.9
							v-0.2c0-1.6,1.3-2.9,2.9-2.9h59.2c1.6,0,2.9,1.3,2.9,2.9V28.1z"/>
					</g>
				</g>
				<polygon opacity="0.3" fill="#949494" points="1325.3,750.7 1331.3,748.5 1331.1,761.3 1325.2,763.1 				"/>
				<polygon opacity="0.3" fill="#949494" points="916.3,760.8 922.4,763.1 922.2,750.2 916.3,748.5 				"/>
			</g>
		</g>
	</g>
	<g>
		<path fill="#1F9DEB" d="M941,723c0-215.9,0-431.8,0-647.7c121.7,0,243.4,0,365.1,0c0,215.9,0,431.8,0,647.7
			C1184.4,723,1062.7,723,941,723z"/>
		<path fill="#1F9DEB" d="M1166.9,529.4c0.2,2.9,1.2,5.2,2,7.5c0.8,2.2,1.6,4.5,2.6,6.7c1,2.2,0.5,4.9,2.1,7.1c1.5-1,2.9-2,3.3-3.7
			c1-5,0.9-9.9-0.2-14.9c-0.4-1.7-1.4-2.7-3.2-2.8C1171.4,529.4,1169.4,529.4,1166.9,529.4z"/>
		<path fill="#1F9DEB" d="M1035.2,523.9c-0.1-3.1-2.6-5.5-5.7-5.3c-3.2,0.1-5.6,2.6-5.5,5.6c0.1,2.9,2.6,5.1,5.6,5.2
			C1032.7,529.4,1035.2,527,1035.2,523.9z"/>
		<path display="none" fill="#010909" d="M1148.7,440c0.7,1.4,2.8,1.2,3.1,3.6c0,1.1-1.4,2.2-2.2,3.5c-0.8,1.4-2.1,2.5-2.8,4.1
			c1.2,2.3,3.2,3.9,4.8,5.8c1,1.2,2.1,2.2,3,3.5c3,4.2,2.2,9.1-2.1,12c-1.6,1.1-3.4,2-5.1,3c-0.5,2.1,0.4,4,0.7,5.8
			c0.9,4.8,2.1,9.6,2.4,14.5c0.1,1.7,0.6,3.2,1.6,4.6c0.5,0.6,0.8,1.3,1.2,1.9c4.4,6.2,7.3,13,8.8,20.6c1.5,7.6,4.2,14.9,6.4,22.3
			c0.7,2.5,1.8,4.9,1.4,7.6c-1.6,1.4-3.4,1.5-5.2,1.6c-4,0.3-8.1,0.4-12.1,0.6c-3.8,0.2-6.5-1.4-8-5c-2.9-6.9-5.9-13.8-8.8-20.8
			c-1.2-2.8-1.8-5.8-2.4-8.8c-0.2-1.1-0.5-2.1-0.7-2.9c-0.8-0.8-1.5-0.9-2.3-0.4c-0.1,0.2-0.3,0.5-0.3,0.8c-0.1,4,1.1,7.7,2.5,11.4
			c2.3,6.2,5,12.3,7.8,18.3c0.4,0.9,0.7,1.8,1.2,2.7c1,2.1,0.5,3.7-1.1,5.3c-2.6,2.4-5.8,3.4-9.2,3.8c-4.6,0.4-9.2,0.4-13.6-1.1
			c-1.5-0.5-2.8-1.2-3.3-2.9c-2.4-8-6-15.7-7.5-24c-0.6-3.3-0.8-6.7-0.8-9.9c-1-0.8-1.8-0.7-2.7-0.3c-1,12.3,5,23.1,8,34.4
			c-1.9,1.4-3.7,1.4-5.4,1.7c-6.6,1.2-13.3,1.6-19.8-0.3c-9-2.6-15.6-7.9-17.5-17.6c-1.2-6,0.1-11.9,2.2-17.6c1-2.8,2.5-5.3,4.2-7.7
			c2.9-4.2,5.8-8.4,8.7-12.7c3.3-4.9,5.3-10.2,5.3-16.2c0-0.4,0.1-0.9,0.2-1.3c0-0.1,0.1-0.2,0.2-0.3c0.6-0.7,1.2-0.1,1.8,0.1
			c7.7,2.1,15.1,1.4,22.2-2.1c1.7-0.8,3.4-1.4,5-2.3c7.5-4.1,8.7-12.7,2.6-18.9c-0.8-0.8-1.7-1.4-2.9-1.5c-0.8,0.4-1,1-1,2.1
			c3.1,1.3,4.3,4,4.7,7.1c0.4,3.3-0.6,6.3-3.6,7.8c-5,2.6-10,5.3-15.7,6.1c-5.1,0.8-10.1-0.1-14.8-1.8c-4.1-1.5-7.4-4.6-10-8.1
			c-2.3-3.1-1.8-6.4,0.3-9.5c2.3-3.3,4.6-6.6,7-9.9c2.3-3.2,4.4-6.5,6.1-10c0.9-1.9,2.1-3.8,3.4-5.6c3.3-4.3,7.4-7.3,12.8-8.4
			c4.7-1,9.4-1.6,14.2-2.5c0.6-0.1,1.3-0.2,1.9-0.4c8.9-2.2,13.4-9.2,11.7-18.2c-0.6-3.3-1.9-6.5-3.4-9.5
			c-3.6-7.2-7.1-14.5-10.3-21.9c-1-2.2-1.7-4.5-2.2-6.8c-1.2-7,3.5-11.7,10.5-10.6c3,0.5,4.5,2.5,3.4,5.3c-1.4,3.4-0.5,6.2,0.9,9.3
			c4.4,10.5,10.7,19.9,15.4,30.2c2.4,5.3,4.6,10.6,5.8,16.3c1.4,6.3,0.3,11.9-4.1,16.7C1150.3,437.7,1149.3,438.7,1148.7,440z
			 M1119.7,438.3c1.6,0,2.9-1.3,2.9-2.8c0-1.7-1.4-3.1-3-3.1c-1.6,0-3,1.6-2.9,3.2C1116.8,437.1,1118.1,438.3,1119.7,438.3z"/>
		<path fill="#1F9DEB" d="M1176,523.1c1.1-0.8,2-0.5,2.7,0.4c0,1.3-0.7,2-1.8,1.8C1175.7,525.1,1175.5,524.2,1176,523.1z"/>
		<path fill="#1F9DEB" d="M1143.4,524.9c-0.6-0.6-0.5-1.3-0.2-2.1c0.8,0.4,0.5,1.1,0.6,1.7C1143.6,524.7,1143.5,524.8,1143.4,524.9z
			"/>
		<g>
			<circle fill="#010909" cx="1094.1" cy="221.5" r="27.1"/>
			<circle fill="#010909" cx="1131" cy="264.7" r="51.7"/>
		</g>
		<rect x="941.6" y="238.5" fill="none" width="364.5" height="82.5"/>
		<text transform="matrix(1 0 0 1 1024.9863 281.5549)" fill="#FFFFFF" font-family="'Bauhaus93'" font-size="64.486">inkling</text>
		<path d="M1142.1,495.2c-4.9,0-9.8,0-14.7-0.1c-14.8-0.1-28.6-9.6-34.2-23.5c-5.5-13.7-2.2-27.2,9.6-38.5
			c16.2-15.6,35.5-18.3,56.8-6.9c7.5-11.8,20-13.9,33.3-15.1c6.9-0.6,13.9-2.6,20.4-5.2c7.6-3,12.7-8.5,10.2-18.2
			c-7.3-7.4-15.7-4.3-24.2-2.4c-1.1,0.2-2.3,0.5-3.5,0.8c-11.9,2.6-21.1-10.4-14.6-20.8c1.7-2.7,3.4-5.4,5-8
			c15,0.4,5.4,9.3,8.1,16.3c5.1-1.1,10.5-2,15.7-3.5c20.7-5.9,34.3,4.4,33.8,26.1c-0.5,21.8-10.4,39.8-24.2,55.8
			c-5.7,6.6-12.5,12.1-18.8,18.2c-26.5,25.6-30.9,60.1-11.1,92.7c-3.4,0.3-6.4,0.8-9.4,0.9c-2.7,0.1-5.4,0-8.3,0
			c-1.9-2.9-3.7-5.8-5.4-8.4c-3.5-5.5-9.9-8.7-16.4-7.9c-6.1,0.7-7.4,4.7-9.7,15.7h-17.4c-5.5-7-6.9-19-19.5-16.5
			c-8,1.6-12.2,6.8-9.8,16.4h-19.1c-5.6-5.8-7.2-20.9-21.1-15.6c-4.7,1.8-7.4,9.2-12.3,15.8h-16v-54.3c-4.4,0.5-7.9,0.9-11.2,1.3
			c-4.1,0.5-8.2-1.1-10.8-4.3c-3.7-4.6-2.6-10.3,1.8-16.8v8.4c0,2.3,1.1,4.5,3,5.7c0.4,0.3,0.8,0.5,1.3,0.5
			c12.8,2,17.2-6.7,20.4-16.5c8.2-25.4,24.1-43.6,49.7-52.2c4.6-1.6,10.1-0.7,15.2-1l0.1-0.1c-15.8,14.9-17.6,31.8-6.2,48.6
			c10,14.7,36.1,26.5,53.6,12.4c0.2-0.1,0.4-0.2,0.6-0.3C1142.6,494.8,1142.4,495,1142.1,495.2z"/>
		<rect x="941" y="590.1" fill="none" width="370" height="56.8"/>
		<text transform="matrix(1 0 0 1 991.3369 607.316)" fill="#FFFFFF" font-family="'Bauhaus93'" font-size="25.7944">so you’ll never forget...</text>
	</g>
	<circle fill="#1F9DEB" cx="1182.3" cy="438.7" r="5.8"/>
	<g>
		<g>
			<g>
				<g>
					<circle cx="950.7" cy="86" r="3.3"/>
					<circle cx="959.1" cy="86" r="3.3"/>
					<circle cx="967.4" cy="86" r="3.3"/>
					<circle cx="975.8" cy="86" r="3.3"/>
					<circle cx="984.1" cy="86" r="3.3"/>
				</g>
				<path d="M990.6,82.6c1-0.9,2.2-1.6,3.5-2.1c1.3-0.5,2.6-0.7,3.9-0.7c1.3,0,2.6,0.2,3.9,0.7c1.3,0.5,2.4,1.2,3.5,2.1
					c0.1,0.1,0.2,0.2,0.2,0.4c0,0.2,0,0.3-0.1,0.4l-0.8,0.8c-0.1,0.1-0.2,0.2-0.4,0.2c-0.1,0-0.3,0-0.4-0.1
					c-0.8-0.7-1.8-1.3-2.8-1.7c-1-0.4-2-0.6-3.1-0.6c-1,0-2.1,0.2-3.1,0.6c-1,0.4-1.9,0.9-2.8,1.7c-0.1,0.1-0.2,0.1-0.4,0.1
					c-0.1,0-0.3-0.1-0.4-0.2l-0.8-0.8c-0.1-0.1-0.2-0.2-0.1-0.4C990.5,82.9,990.5,82.8,990.6,82.6L990.6,82.6L990.6,82.6z
					 M993.2,85.2c0.7-0.6,1.4-1,2.3-1.3c0.8-0.3,1.7-0.4,2.5-0.4c0.9,0,1.7,0.1,2.5,0.4c0.8,0.3,1.6,0.7,2.3,1.3
					c0.1,0.1,0.2,0.2,0.2,0.4c0,0.2,0,0.3-0.2,0.4l-0.8,0.8c-0.1,0.1-0.2,0.1-0.4,0.2c-0.1,0-0.3,0-0.4-0.1c-0.5-0.4-1-0.7-1.6-0.9
					c-0.6-0.2-1.2-0.3-1.7-0.3c-0.6,0-1.2,0.1-1.7,0.3c-0.6,0.2-1.1,0.5-1.6,0.9c-0.1,0.1-0.2,0.1-0.4,0.1c-0.1,0-0.3-0.1-0.4-0.2
					l-0.8-0.8c-0.1-0.1-0.2-0.3-0.2-0.4C993,85.4,993.1,85.3,993.2,85.2C993.2,85.2,993.2,85.2,993.2,85.2
					C993.2,85.2,993.2,85.2,993.2,85.2z M996.8,87.3c0.2-0.2,0.3-0.3,0.5-0.4c0.2-0.1,0.4-0.1,0.6-0.1c0.2,0,0.4,0,0.6,0.1
					c0.2,0.1,0.4,0.2,0.5,0.4c0.2,0.2,0.3,0.3,0.4,0.6c0.1,0.2,0.1,0.4,0.1,0.6c0,0.2,0,0.4-0.1,0.6c-0.1,0.2-0.2,0.4-0.4,0.5
					c-0.2,0.2-0.3,0.3-0.5,0.4c-0.2,0.1-0.4,0.1-0.6,0.1c-0.2,0-0.4,0-0.6-0.1c-0.2-0.1-0.4-0.2-0.6-0.4c-0.2-0.2-0.3-0.3-0.4-0.5
					c-0.1-0.2-0.1-0.4-0.1-0.6c0-0.2,0-0.4,0.1-0.6C996.6,87.6,996.7,87.5,996.8,87.3z"/>
			</g>
			<g>
				<g>
					<path d="M1236.3,90.2v-6.5h-2.4v-0.9c0.3,0,0.6,0,0.9-0.1c0.3,0,0.6-0.1,0.8-0.3c0.2-0.1,0.4-0.3,0.6-0.5
						c0.2-0.2,0.3-0.5,0.3-0.8h0.8v9.1H1236.3z"/>
					<path d="M1240.5,84.7c0-0.4,0.1-0.7,0.1-1c0.1-0.3,0.2-0.7,0.3-1c0.1-0.3,0.3-0.6,0.5-0.8c0.2-0.2,0.5-0.4,0.8-0.6
						c0.3-0.1,0.7-0.2,1.2-0.2c0.5,0,0.9,0.1,1.2,0.2c0.3,0.1,0.6,0.3,0.8,0.6c0.2,0.2,0.4,0.5,0.5,0.8c0.1,0.3,0.2,0.6,0.3,1
						c0.1,0.3,0.1,0.7,0.1,1c0,0.4,0,0.7,0,1c0,0.3,0,0.7,0,1c0,0.4-0.1,0.7-0.1,1s-0.2,0.7-0.3,1c-0.1,0.3-0.3,0.6-0.5,0.8
						c-0.2,0.2-0.5,0.4-0.8,0.5c-0.3,0.1-0.7,0.2-1.2,0.2c-0.5,0-0.9-0.1-1.2-0.2c-0.3-0.1-0.6-0.3-0.8-0.5
						c-0.2-0.2-0.4-0.5-0.5-0.8c-0.1-0.3-0.2-0.6-0.3-1c-0.1-0.3-0.1-0.7-0.1-1c0-0.4,0-0.7,0-1
						C1240.5,85.4,1240.5,85.1,1240.5,84.7z M1241.7,86.9c0,0.4,0.1,0.8,0.2,1.2s0.3,0.7,0.6,0.9s0.6,0.4,1.1,0.4
						c0.5,0,0.8-0.1,1.1-0.4s0.4-0.6,0.6-0.9c0.1-0.4,0.2-0.8,0.2-1.2c0-0.4,0-0.8,0-1.1c0-0.2,0-0.5,0-0.7c0-0.3,0-0.5-0.1-0.8
						c0-0.3-0.1-0.5-0.2-0.8c-0.1-0.3-0.2-0.5-0.3-0.7c-0.1-0.2-0.3-0.3-0.5-0.5c-0.2-0.1-0.5-0.2-0.8-0.2c-0.3,0-0.6,0.1-0.8,0.2
						c-0.2,0.1-0.4,0.3-0.5,0.5c-0.1,0.2-0.2,0.4-0.3,0.7c-0.1,0.3-0.1,0.5-0.2,0.8c0,0.3-0.1,0.5-0.1,0.8c0,0.3,0,0.5,0,0.7
						C1241.6,86.1,1241.6,86.5,1241.7,86.9z"/>
					<path d="M1247.6,84.7c0-0.4,0.1-0.7,0.1-1c0.1-0.3,0.2-0.7,0.3-1c0.1-0.3,0.3-0.6,0.5-0.8c0.2-0.2,0.5-0.4,0.8-0.6
						c0.3-0.1,0.7-0.2,1.2-0.2c0.5,0,0.9,0.1,1.2,0.2c0.3,0.1,0.6,0.3,0.8,0.6c0.2,0.2,0.4,0.5,0.5,0.8c0.1,0.3,0.2,0.6,0.3,1
						c0.1,0.3,0.1,0.7,0.1,1c0,0.4,0,0.7,0,1c0,0.3,0,0.7,0,1c0,0.4-0.1,0.7-0.1,1s-0.2,0.7-0.3,1c-0.1,0.3-0.3,0.6-0.5,0.8
						c-0.2,0.2-0.5,0.4-0.8,0.5c-0.3,0.1-0.7,0.2-1.2,0.2c-0.5,0-0.9-0.1-1.2-0.2c-0.3-0.1-0.6-0.3-0.8-0.5
						c-0.2-0.2-0.4-0.5-0.5-0.8c-0.1-0.3-0.2-0.6-0.3-1c-0.1-0.3-0.1-0.7-0.1-1c0-0.4,0-0.7,0-1
						C1247.6,85.4,1247.6,85.1,1247.6,84.7z M1248.8,86.9c0,0.4,0.1,0.8,0.2,1.2s0.3,0.7,0.6,0.9s0.6,0.4,1.1,0.4
						c0.5,0,0.8-0.1,1.1-0.4s0.4-0.6,0.6-0.9c0.1-0.4,0.2-0.8,0.2-1.2c0-0.4,0-0.8,0-1.1c0-0.2,0-0.5,0-0.7c0-0.3,0-0.5-0.1-0.8
						c0-0.3-0.1-0.5-0.2-0.8c-0.1-0.3-0.2-0.5-0.3-0.7c-0.1-0.2-0.3-0.3-0.5-0.5c-0.2-0.1-0.5-0.2-0.8-0.2c-0.3,0-0.6,0.1-0.8,0.2
						c-0.2,0.1-0.4,0.3-0.5,0.5c-0.1,0.2-0.2,0.4-0.3,0.7c-0.1,0.3-0.1,0.5-0.2,0.8c0,0.3-0.1,0.5-0.1,0.8c0,0.3,0,0.5,0,0.7
						C1248.8,86.1,1248.8,86.5,1248.8,86.9z"/>
					<path d="M1255.5,82.7c0.1-0.3,0.2-0.6,0.3-0.8c0.2-0.2,0.4-0.4,0.6-0.6c0.3-0.1,0.6-0.2,1-0.2c0.4,0,0.7,0.1,1,0.2
						c0.3,0.1,0.5,0.3,0.6,0.6c0.2,0.2,0.3,0.5,0.3,0.8c0.1,0.3,0.1,0.6,0.1,1c0,0.3,0,0.7-0.1,1c-0.1,0.3-0.2,0.6-0.4,0.8
						c-0.2,0.2-0.4,0.4-0.6,0.6c-0.3,0.1-0.6,0.2-0.9,0.2c-0.4,0-0.7-0.1-1-0.2c-0.3-0.1-0.5-0.3-0.6-0.5c-0.2-0.2-0.3-0.5-0.4-0.8
						c-0.1-0.3-0.1-0.6-0.1-1C1255.4,83.4,1255.4,83.1,1255.5,82.7z M1256.3,84.3c0,0.2,0.1,0.4,0.1,0.6c0.1,0.2,0.2,0.3,0.3,0.5
						c0.1,0.1,0.3,0.2,0.6,0.2c0.2,0,0.4-0.1,0.6-0.2c0.1-0.1,0.3-0.3,0.3-0.5c0.1-0.2,0.1-0.4,0.2-0.6c0-0.2,0-0.4,0-0.6
						c0-0.2,0-0.4,0-0.6c0-0.2-0.1-0.4-0.1-0.6c-0.1-0.2-0.2-0.3-0.3-0.5c-0.1-0.1-0.3-0.2-0.6-0.2c-0.2,0-0.4,0.1-0.6,0.2
						c-0.1,0.1-0.3,0.3-0.3,0.5c-0.1,0.2-0.1,0.4-0.2,0.6c0,0.2,0,0.4,0,0.6C1256.3,83.9,1256.3,84.1,1256.3,84.3z M1264.6,81
						l-6.9,9.5h-1.1l6.9-9.5H1264.6z M1261.8,86.8c0.1-0.3,0.2-0.6,0.3-0.8c0.2-0.2,0.4-0.4,0.6-0.6c0.3-0.1,0.6-0.2,1-0.2
						c0.4,0,0.7,0.1,1,0.2c0.3,0.1,0.5,0.3,0.6,0.6c0.2,0.2,0.3,0.5,0.3,0.8c0.1,0.3,0.1,0.6,0.1,1c0,0.3,0,0.7-0.1,1
						c-0.1,0.3-0.2,0.6-0.4,0.8c-0.2,0.2-0.4,0.4-0.6,0.6c-0.3,0.1-0.6,0.2-0.9,0.2c-0.4,0-0.7-0.1-1-0.2c-0.3-0.1-0.5-0.3-0.6-0.5
						c-0.2-0.2-0.3-0.5-0.4-0.8c-0.1-0.3-0.1-0.6-0.1-1S1261.7,87.1,1261.8,86.8z M1262.7,88.4c0,0.2,0.1,0.4,0.1,0.6
						c0.1,0.2,0.2,0.3,0.3,0.5s0.3,0.2,0.6,0.2c0.2,0,0.4-0.1,0.6-0.2c0.1-0.1,0.3-0.3,0.3-0.5c0.1-0.2,0.1-0.4,0.2-0.6
						c0-0.2,0-0.4,0-0.6c0-0.2,0-0.4,0-0.6c0-0.2-0.1-0.4-0.1-0.6c-0.1-0.2-0.2-0.3-0.3-0.5c-0.1-0.1-0.3-0.2-0.6-0.2
						c-0.2,0-0.4,0.1-0.6,0.2c-0.1,0.1-0.3,0.3-0.3,0.5c-0.1,0.2-0.1,0.4-0.2,0.6c0,0.2,0,0.4,0,0.6
						C1262.6,88,1262.6,88.2,1262.7,88.4z"/>
				</g>
				<rect x="1273" y="82" width="24" height="9"/>
				<rect x="1299" y="85" width="1" height="4"/>
			</g>
		</g>
	</g>
</g>
</svg>
