<?xml version="1.0" encoding="utf-8"?>
<!-- Generator: Adobe Illustrator 21.0.0, SVG Export Plug-In . SVG Version: 6.00 Build 0)  -->
<svg version="1.1" id="Layer_1" xmlns="http://www.w3.org/2000/svg" xmlns:xlink="http://www.w3.org/1999/xlink" x="0px" y="0px"
	 viewBox="0 0 510.1 314" style="enable-background:new 0 0 510.1 314;" xml:space="preserve">
<style type="text/css">
	.st0{fill:#FF9D33;}
</style>
<path class="st0" d="M360.5,129.7c-2-16.8-10.9-32.5-24.4-43C323,76.4,306.4,72,289.5,74.2c-12.2,1.8-22.6,6.3-30.9,13.4
	c-3.1-2.4-8.5-6.2-11.5-7.9c-27.3-15-60.9-8.8-79.9,14.9c-12.8,15.9-16.4,35.3-10.7,57.6c3.4,13.4,11.4,26.7,22,36.7
	c-0.1,5.9,2.3,11.6,6.8,15.8c3.5,3.2,7.8,5.1,12.1,5.4c0.5,4.7,2.6,9.4,5.9,12.4c3.3,3.2,7.7,5.1,12.3,5.3c0.5,4.8,2.9,9.8,6.3,13
	c3.3,3,8.8,6,14.2,6.6c1.5,5.6,4.4,11.6,11.9,14.1c1.1,0.4,3.4,1,6.4,1c3.6,0,8.1-1,12.2-4.7c0.4-0.4,1.1-1,1.9-1.9
	c8.1-7.6,14.2-14,16.9-19.1c5.1,1.8,11.7,1.6,15.9-1.6c5.2-3.8,7-9.4,6.7-14.6c5,0.3,10.5-1.8,13.7-4.9c3.3-3.3,5.4-8.8,4.7-13.9
	c4.5,0,10.3-1.1,14.8-5.9c4.5-4.8,4.4-11.2,3.4-15C357,166.2,362.7,147.7,360.5,129.7z M190,199.8c-3.1-2.9-4.7-6.7-4.7-10.7
	l21.7-21.1c2.2-1.6,8.8-4.4,13.9,1.6c4.6,5.5,2.2,10.3,1.5,11.5l-22.9,22.3C196.2,203.6,192.7,202.3,190,199.8z M204.2,208.1
	l22.8-22.2c1.4-0.8,8.1-4.1,12.3,0c4.3,4.2,3.4,9.9,2.9,11.9L217.8,221c-3.6,0.3-7.2-0.9-9.7-3.4
	C205.7,215.4,204.1,211.6,204.2,208.1z M222.4,225.9l24.4-23.2c2.2-0.4,8.7-1.3,12.3,3c2.5,2.9,2.3,8,1.9,10.5l-23.4,24.6
	c-3.5-0.2-8-2.2-11-4.9C224.2,233.6,222.4,229.2,222.4,225.9z M264,251c-1,0.9-1.7,1.6-2,1.9c-4.6,4.1-10.2,2.7-11.8,2.2
	c-3.4-1.1-6-3.3-7.6-9.9l23.5-24.7c3.6-2.2,8.8,0.7,10.7,2.9c2.5,3,3.2,7.5,3.4,8.7C279.8,234.2,276.5,239.2,264,251z M336.4,191.2
	c-4.1,4.4-10.2,4.1-13.2,3.5l-40.5-40.6c-1.3-1.3-3.5-1.3-4.8,0c-1.3,1.3-1.3,3.5,0,4.8l41,41c1.9,2.8,1,8.2-1.8,11
	c-2.6,2.5-8.7,4-11.6,2.1c0,0-0.1,0-0.1,0l-41.5-42.2c-1.3-1.3-3.4-1.3-4.8,0c-1.3,1.3-1.3,3.4,0,4.8l41.7,42.4
	c1.3,3.9,0.8,8.8-3.4,11.8c-2.3,1.8-7.3,1.8-10.6,0.3c-0.4-2.6-1.6-7.3-4.7-11c-2.9-3.5-8.6-6.6-14.1-6.1c0-3.5-0.7-8.1-3.7-11.6
	c-4.4-5.1-10.6-5.9-14.9-5.7c0.3-4.1-0.5-9.8-5.3-14.5c-4.4-4.3-9.7-4.4-13.8-3.5c0.3-3.7-0.7-8.1-4.2-12.3
	c-7.6-9.1-18.4-6.4-23.3-2.5c-0.1,0.1-0.2,0.2-0.3,0.2L182,182.9c-9.1-9-16-20.6-19-32.3c-5.2-20.4-2.2-37.3,9.4-51.7
	c16.9-21.1,46.9-26.7,71.4-13.2c2.5,1.4,6.9,4.5,9.8,6.7L219,126.4c-1,0.8-5.7,5.3-5.7,11.5c0,3.9,1.8,7.4,5.4,10.5
	c10.9,9.3,27.2,8.1,38.9-2.9c5-4.7,17.2-16.8,22.4-21.9l58,58.5C338.5,183.5,339.4,188,336.4,191.2z M340.6,175.1l-58.2-58.7
	c-0.6-0.6-1.5-1-2.4-1l0,0c-0.9,0-1.7,0.4-2.4,1c-0.2,0.2-18.4,18.2-24.7,24.1c-9.1,8.6-21.7,9.7-29.9,2.7c-2.1-1.8-3-3.5-3.1-5.3
	c0-2.9,2.5-5.6,3.4-6.5c0.1-0.1,0.1-0.1,0.2-0.2l37.4-36.9c7.7-7.2,17.6-11.8,29.4-13.5c15.1-1.9,29.8,2,41.5,11.2
	c12.1,9.4,20,23.4,21.8,38.5C355.7,146.1,351,162.2,340.6,175.1z"/>
</svg>
