<?xml version="1.0" encoding="utf-8"?>
<!-- Generator: Adobe Illustrator 18.1.1, SVG Export Plug-In . SVG Version: 6.00 Build 0)  -->
<!DOCTYPE svg PUBLIC "-//W3C//DTD SVG 1.1//EN" "http://www.w3.org/Graphics/SVG/1.1/DTD/svg11.dtd">
<svg version="1.1" id="Layer_1" xmlns:ev="http://www.w3.org/2001/xml-events"
	 xmlns="http://www.w3.org/2000/svg" xmlns:xlink="http://www.w3.org/1999/xlink" x="0px" y="0px"
	 viewBox="213.7 206.1 257.9 220.1" enable-background="new 213.7 206.1 257.9 220.1" xml:space="preserve">
<path display="none" fill="#010909" d="M452.7,384.9c0.2,0.4,0.9,0.4,1,1.1c0,0.4-0.4,0.7-0.7,1.1c-0.3,0.4-0.7,0.8-0.9,1.3
	c0.4,0.7,1,1.2,1.5,1.8c0.3,0.4,0.7,0.7,1,1.1c1,1.3,0.7,2.9-0.7,3.8c-0.5,0.4-1.1,0.6-1.6,1c-0.2,0.7,0.1,1.3,0.2,1.8
	c0.3,1.5,0.7,3.1,0.8,4.6c0,0.5,0.2,1,0.5,1.5c0.2,0.2,0.3,0.4,0.4,0.6c1.4,2,2.3,4.1,2.8,6.6c0.5,2.4,1.3,4.7,2,7.1
	c0.2,0.8,0.6,1.6,0.4,2.4c-0.5,0.4-1.1,0.5-1.7,0.5c-1.3,0.1-2.6,0.1-3.9,0.2c-1.2,0.1-2.1-0.4-2.5-1.6c-0.9-2.2-1.9-4.4-2.8-6.6
	c-0.4-0.9-0.6-1.8-0.8-2.8c-0.1-0.4-0.2-0.7-0.2-0.9c-0.3-0.3-0.5-0.3-0.7-0.1c0,0.1-0.1,0.2-0.1,0.3c0,1.3,0.4,2.5,0.8,3.6
	c0.7,2,1.6,3.9,2.5,5.8c0.1,0.3,0.2,0.6,0.4,0.9c0.3,0.7,0.2,1.2-0.4,1.7c-0.8,0.8-1.8,1.1-2.9,1.2c-1.5,0.1-2.9,0.1-4.3-0.4
	c-0.5-0.2-0.9-0.4-1.1-0.9c-0.8-2.5-1.9-5-2.4-7.6c-0.2-1.1-0.3-2.1-0.3-3.2c-0.3-0.3-0.6-0.2-0.9-0.1c-0.3,3.9,1.6,7.4,2.6,11
	c-0.6,0.4-1.2,0.4-1.7,0.5c-2.1,0.4-4.2,0.5-6.3-0.1c-2.9-0.8-5-2.5-5.6-5.6c-0.4-1.9,0-3.8,0.7-5.6c0.3-0.9,0.8-1.7,1.3-2.5
	c0.9-1.3,1.8-2.7,2.8-4c1.1-1.6,1.7-3.3,1.7-5.2c0-0.1,0-0.3,0.1-0.4c0,0,0-0.1,0.1-0.1c0.2-0.2,0.4,0,0.6,0
	c2.5,0.7,4.8,0.4,7.1-0.7c0.5-0.3,1.1-0.4,1.6-0.7c2.4-1.3,2.8-4,0.8-6c-0.3-0.3-0.5-0.4-0.9-0.5c-0.3,0.1-0.3,0.3-0.3,0.7
	c1,0.4,1.4,1.3,1.5,2.3c0.1,1.1-0.2,2-1.1,2.5c-1.6,0.8-3.2,1.7-5,1.9c-1.6,0.3-3.2,0-4.7-0.6c-1.3-0.5-2.4-1.5-3.2-2.6
	c-0.7-1-0.6-2,0.1-3c0.7-1.1,1.5-2.1,2.2-3.2c0.7-1,1.4-2.1,1.9-3.2c0.3-0.6,0.7-1.2,1.1-1.8c1.1-1.4,2.4-2.3,4.1-2.7
	c1.5-0.3,3-0.5,4.5-0.8c0.2,0,0.4-0.1,0.6-0.1c2.8-0.7,4.3-2.9,3.7-5.8c-0.2-1.1-0.6-2.1-1.1-3c-1.1-2.3-2.3-4.6-3.3-7
	c-0.3-0.7-0.5-1.4-0.7-2.2c-0.4-2.2,1.1-3.7,3.3-3.4c1,0.2,1.4,0.8,1.1,1.7c-0.4,1.1-0.2,2,0.3,3c1.4,3.3,3.4,6.3,4.9,9.6
	c0.8,1.7,1.5,3.4,1.8,5.2c0.4,2,0.1,3.8-1.3,5.3C453.2,384.1,452.9,384.5,452.7,384.9z M443.4,384.3c0.5,0,0.9-0.4,0.9-0.9
	s-0.4-1-1-1c-0.5,0-1,0.5-0.9,1S442.9,384.3,443.4,384.3z"/>
<path d="M362.9,352.9c-5.4,0-10.4,0-15.7,0c-15.7,0-30.4-10.4-36.5-25.1s-2.3-29.1,10.4-41.1c17.4-16.7,37.8-19.4,60.5-7.4
	c8-12.7,21.4-14.7,35.5-16.1c7.4-0.7,14.7-2.7,21.7-5.7c8-3.3,13.4-9,11-19.4c-7.7-8-16.7-4.7-25.8-2.7c-1.3,0.3-2.3,0.7-3.7,1
	c-12.7,2.7-22.4-11-15.7-22.1c1.7-3,3.7-5.7,5.4-8.4c16.1,0.3,5.7,10,8.7,17.4c5.4-1.3,11-2,16.7-3.7c22.1-6.4,36.5,4.7,36.1,27.8
	c-0.7,23.1-11,42.5-25.8,59.5c-6,7-13.4,13-20.1,19.4c-28.1,27.4-32.8,64.2-11.7,98.7c-3.7,0.3-6.7,1-10,1c-3,0-5.7,0-8.7,0
	c-2-3-4-6-5.7-9c-3.7-6-10.7-9.4-17.4-8.4c-6.4,0.7-8,5-10.4,16.7h-18.4c-6-7.4-7.4-20.4-20.7-17.7c-8.4,1.7-13,7.4-10.4,17.4H292
	c-6-6-7.7-22.4-22.4-16.7c-5,2-8,9.7-13,16.7h-17.1v-57.9c-4.7,0.7-8.4,1-12,1.3c-4.3,0.7-8.7-1.3-11.4-4.7c-4-5-2.7-11,2-18.1v9
	c0,2.3,1.3,4.7,3.3,6c0.3,0.3,1,0.7,1.3,0.7c13.7,2,18.4-7,21.7-17.7c8.7-27.1,25.8-46.5,52.9-55.5c5-1.7,10.7-0.7,16.1-1l0,0
	c-16.7,15.7-18.7,33.8-6.7,51.8C316.4,354.9,344.2,367.6,362.9,352.9c0.3-0.3,0.7-0.3,0.7-0.7C363.2,352.2,363.2,352.6,362.9,352.9z
	"/>
<circle fill="#FFFFFF" cx="405.5" cy="294" r="7.7"/>
</svg>
