<?xml version="1.0" encoding="utf-8"?>
<!-- Generator: Adobe Illustrator 18.1.1, SVG Export Plug-In . SVG Version: 6.00 Build 0)  -->
<!DOCTYPE svg PUBLIC "-//W3C//DTD SVG 1.1//EN" "http://www.w3.org/Graphics/SVG/1.1/DTD/svg11.dtd">
<svg version="1.1" id="Layer_1" xmlns="http://www.w3.org/2000/svg" xmlns:xlink="http://www.w3.org/1999/xlink" x="0px" y="0px"
	 viewBox="464.7 0 796.6 800" enable-background="new 464.7 0 796.6 800" xml:space="preserve">
<path fill="none" d="M820.5,380.3c28.2,3.2,43.4,18.6,51.2,41.9c7.4,22,8,44.7,2.9,67.1c-9.4,40.9-38.1,60.8-77,68.9
	c-7.8,1.6-16,2.3-24,2.4c-55.5,0.2-111,0.1-166.5,0.1c-2.3,0-4.6-0.2-7.4-0.4c0-110.5,0-220.5,0-331.3c3-0.2,5.9-0.4,8.8-0.4
	c53.7,0,107.4,0.1,161.2-0.1c18.1,0,35.6,2.5,52.1,10.7c38.2,19,56.2,71.5,37.7,110c-6.1,12.7-15.8,21.5-28.8,26.8
	C827.9,377.1,825.3,378.3,820.5,380.3z"/>
<path fill="#FFFFFF" d="M675.6,413.3c0,29.9,0,58.7,0,87.6c34.1,0,67.8,0.8,101.3-0.4c14.1-0.5,23.7-10.3,27.7-24.3
	c3.8-13.3,3.4-26.6-1.2-39.6c-4.7-13-14-22.6-28.1-23C742.3,412.6,709.3,413.3,675.6,413.3z"/>
<path fill="#FFFFFF" d="M675.5,361.2c33,0,65.4,0.4,97.8-0.2c10.3-0.2,17.5-7.4,19.2-17.3c1.9-11,2.9-22.6,1.5-33.6
	c-1.9-15.4-11.7-22.4-27.2-22.5c-22.7,0-45.3,0-68,0c-7.7,0-15.3,0-23.4,0C675.5,312.4,675.5,336.2,675.5,361.2z"/>
<path fill="none" d="M1132,479.9c-0.2,30.5-11.5,54-37.1,69.9c-15.8,9.8-33.2,14.7-51.5,16.7c-26.3,2.8-52.5,2-77.9-6.7
	c-35-12-57.5-36.4-68.3-71.5c-12.5-40.9-7.8-80.5,12.8-117.6c21.2-38.2,55.8-55.3,98.1-57.1c15.6-0.7,31.8,0.5,47,4.1
	c45,10.8,67.9,42.8,76.2,86.4c2.8,14.5,2.4,29.6,3.5,44.5c0.5,6.9-2.4,9-9.4,9c-50.7-0.3-101.5-0.2-152.2-0.2c-3.5,0-7,0-10.3,0
	c-4,30.6,17.7,55.2,50.7,57.6c9.4,0.7,19.2-0.3,28.4-2.3c17.5-3.6,29.6-13.7,32.1-32.8C1093.3,479.9,1112,479.9,1132,479.9z"/>
<path fill="#FFFFFF" d="M1069.9,412.6c-1.3-32.3-20.7-51.4-51.1-51c-30,0.3-56.1,23.9-56.5,51
	C998.1,412.6,1033.8,412.6,1069.9,412.6z"/>
<path fill="none" d="M1083.4,248.9c0,13.5,0,26.3,0,39.5c-45.4,0-90.2,0-135.8,0c0-13.2,0-26.1,0-39.5
	C992.9,248.9,1038.2,248.9,1083.4,248.9z"/>
<path d="M464.7,401.6c0-220.2,178.7-398.8,398.7-398.5c219.9,0.3,397.9,178.6,397.9,398.4c0,220.2-179,399.1-398.7,398.6
	C642.6,799.6,464.7,621.4,464.7,401.6z M820.5,380.3c4.8-2,7.5-3.2,10.1-4.3c13-5.3,22.7-14.2,28.8-26.8c18.5-38.6,0.5-91-37.7-110
	c-16.4-8.2-33.9-10.7-52.1-10.7c-53.7,0.1-107.4,0-161.2,0.1c-2.9,0-5.8,0.3-8.8,0.4c0,110.8,0,220.8,0,331.3
	c2.8,0.2,5.1,0.4,7.4,0.4c55.5,0,111,0.1,166.5-0.1c8,0,16.2-0.8,24-2.4c38.9-8,67.7-28,77-68.9c5.1-22.5,4.5-45.1-2.9-67.1
	C863.8,398.8,848.7,383.5,820.5,380.3z M1132,479.9c-19.9,0-38.6,0-57.9,0c-2.4,19.1-14.5,29.1-32.1,32.8c-9.2,1.9-19,2.9-28.4,2.3
	c-33-2.3-54.7-27-50.7-57.6c3.3,0,6.8,0,10.3,0c50.7,0,101.5-0.1,152.2,0.2c7,0,9.9-2.1,9.4-9c-1.1-14.8-0.8-30-3.5-44.5
	c-8.3-43.5-31.2-75.5-76.2-86.4c-15.1-3.6-31.4-4.8-47-4.1c-42.3,1.8-77,19-98.1,57.1c-20.6,37.2-25.4,76.7-12.8,117.6
	c10.7,35.1,33.3,59.5,68.3,71.5c25.3,8.7,51.5,9.5,77.9,6.7c18.2-2,35.7-6.9,51.5-16.7C1120.5,533.9,1131.7,510.3,1132,479.9z
	 M1083.4,248.9c-45.2,0-90.5,0-135.8,0c0,13.4,0,26.4,0,39.5c45.5,0,90.4,0,135.8,0C1083.4,275.2,1083.4,262.4,1083.4,248.9z
	 M675.6,500.9c34.1,0,67.8,0.8,101.3-0.4c14.1-0.5,23.7-10.3,27.7-24.3c3.8-13.3,3.4-26.6-1.2-39.6c-4.7-13-14-22.6-28.1-23
	c-33-0.9-66.1-0.3-99.8-0.3C675.6,443.2,675.6,472,675.6,500.9z M773.3,361c10.3-0.2,17.5-7.4,19.2-17.3c1.9-11,2.9-22.6,1.5-33.6
	c-1.9-15.4-11.7-22.4-27.2-22.5c-22.7,0-45.3,0-68,0c-7.7,0-15.3,0-23.4,0c0,24.8,0,48.6,0,73.6C708.5,361.2,740.9,361.6,773.3,361z
	 M1018.9,361.6c-30,0.3-56.1,23.9-56.5,51c35.7,0,71.4,0,107.6,0C1068.7,380.2,1049.2,361.2,1018.9,361.6z"/>
</svg>
