<?xml version="1.0" encoding="utf-8"?>
<!-- Generator: Adobe Illustrator 18.1.1, SVG Export Plug-In . SVG Version: 6.00 Build 0)  -->
<!DOCTYPE svg PUBLIC "-//W3C//DTD SVG 1.1//EN" "http://www.w3.org/Graphics/SVG/1.1/DTD/svg11.dtd">
<svg version="1.1" id="Layer_1" xmlns="http://www.w3.org/2000/svg" xmlns:xlink="http://www.w3.org/1999/xlink" x="0px" y="0px"
	 viewBox="240.6 0 798.2 800" enable-background="new 240.6 0 798.2 800" xml:space="preserve">
<path d="M568.4,493.1c-66.8,66.8-133.1,133.1-200.1,200c84.9,76.5,184.6,111.3,299.8,105.7C678.7,681.4,645.7,579.9,568.4,493.1z"/>
<path d="M932.2,127.2c-67.3,66.9-133.8,133-200.3,199c84.4,81.3,205.4,114.7,306.9,101.1C1044.5,313.1,1009.7,213.4,932.2,127.2
	L932.2,127.2z"/>
<path d="M933,671.6c56-61.2,90.1-132.6,102.5-215.2c-124.2,9.4-231.4-26.9-321.7-108.1c-18,17.8-35.4,35.1-52.3,51.8
	C751.5,490.1,841.9,580.5,933,671.6z"/>
<path d="M583.6,4.6C500.4,17.3,429,51.2,368.7,106.9c91.2,91.2,181.6,181.6,271.6,271.6c17-16.9,34.4-34.2,52.1-51.8
	C610.5,235.8,574.2,128.5,583.6,4.6z"/>
<path d="M696.5,794.7c60.7-1.4,182.7-60.1,214.2-102.1c-90.6-90.6-181.1-181-271.3-271.3c-16.9,16.8-34.3,34.1-51.9,51.6
	C669.6,564.3,705.9,671.5,696.5,794.7L696.5,794.7z"/>
<path d="M244.5,343.9c60.1-5.5,117.6,1,173.7,20c56,19.1,105.6,49.1,148,88.1c18.1-18,35.5-35.2,52.1-51.7
	c-90.1-90.2-180.6-180.6-271.5-271.6C291.2,189.3,257.1,260.7,244.5,343.9L244.5,343.9z"/>
<path d="M666.5,0.6c14.6,2.1,29.2,3.7,43.8,6.3c76.1,13.6,142.6,46.7,199.6,98.7c0.6,0.5,1,1.2,0.9,1
	C844.4,173,778,239.3,711.4,305.9c-21.6-23.2-40.8-49.9-56.3-79.2C619,158,604.2,85,611.8,7.7c0.2-2.4,2.1-4.7,3.3-7.1
	C632.2,0.6,649.3,0.6,666.5,0.6z M568.4,493.1c77.3,86.8,110.4,188.4,99.7,305.7c-115.2,5.6-214.9-29.2-299.8-105.7
	C435.3,626.1,501.6,559.9,568.4,493.1z M240.6,375c2.4-1.1,4.6-3,7.1-3.3c67.1-6.7,131.5,3.8,193.3,30.7
	c36.9,16.2,70.3,37.8,100.4,64.7c1.9,1.7,3.7,3.5,5.2,4.9C480.2,538.4,414,604.5,347.1,671.4c-5.6-6.5-12-13.5-18-21
	c-48.2-60.1-77-128.3-85.7-204.9c-0.8-7.4-1.9-14.9-2.8-22.3C240.6,407.3,240.6,391.1,240.6,375L240.6,375z M932.2,127.2
	c77.5,86.2,112.3,185.8,106.6,300c-101.5,13.6-222.5-19.8-306.9-101.1C798.5,260.1,864.9,194.1,932.2,127.2L932.2,127.2z M933,671.6
	c-91.1-91.1-181.4-181.5-271.4-271.5c16.9-16.8,34.3-34,52.3-51.8c90.3,81.2,197.5,117.5,321.6,108.2
	C1023.1,539,989,610.4,933,671.6z M583.6,4.6c-9.4,123.9,26.9,231.2,108.8,322.3c-17.7,17.6-35.1,34.9-52.1,51.8
	c-90-90-180.4-180.4-271.6-271.6C429,51.2,500.4,17.3,583.6,4.6z M696.5,794.7c9.4-123.2-26.9-230.4-109-321.8
	c17.6-17.5,35-34.8,51.9-51.6c90.2,90.2,180.7,180.7,271.3,271.3C879.2,734.7,757.1,793.4,696.5,794.7L696.5,794.7z M244.5,343.9
	c12.4-83.2,46.6-154.6,102.3-215.1c90.9,90.9,181.3,181.4,271.5,271.6c-16.6,16.5-34,33.7-52.1,51.7c-42.4-39-91.9-69.1-148-88.1
	C362.2,344.8,304.6,338.4,244.5,343.9L244.5,343.9z"/>
</svg>
