<?xml version="1.0" encoding="utf-8"?>
<!-- Generator: Adobe Illustrator 18.1.1, SVG Export Plug-In . SVG Version: 6.00 Build 0)  -->
<!DOCTYPE svg PUBLIC "-//W3C//DTD SVG 1.1//EN" "http://www.w3.org/Graphics/SVG/1.1/DTD/svg11.dtd">
<svg version="1.1" id="Layer_1" xmlns="http://www.w3.org/2000/svg" xmlns:xlink="http://www.w3.org/1999/xlink" x="0px" y="0px"
	 viewBox="239.9 0 819.6 800" enable-background="new 239.9 0 819.6 800" xml:space="preserve">
<path d="M1059.4,446c-3,15.6-5.3,31.2-9,46.6c-34.6,147.1-122.6,247.6-263.8,301.5c-23.3,8.9-34.7,0.6-34.8-24.3
	c-0.2-28.8-0.1-57.6,0-86.4c0-33.2-0.6-66.2-26.8-93.8c16.8-3.3,31.4-5.8,45.7-9c83.8-18.5,134.1-79.2,138.6-164.8
	c2-37.3,0.6-73.2-17.7-107.1c-17.1-31.6-15.3-31.9-15.4-67.7c0-20.4-5.4-40.8-7.9-61.3c-1.7-13.6-11.4-15.6-20.8-12.3
	c-25.5,9-51.4,17.8-75,30.5c-15.2,8.2-27.9,10.4-44.6,6.6c-56-12.7-112.1-10.7-168.1,1.7c-7.2,1.6-16.3-0.7-23.5-3.7
	c-26.5-10.9-52.1-24-78.9-33.9c-18.5-6.8-22.9-3-28.5,15.7c-8,27.1-9.8,54.2-2,81.9c1.7,5.9-0.4,15.3-4.5,19.8
	c-56.1,62.7-37.2,202.1,18.6,251c33.8,29.6,73.8,43.6,117.4,49.7c4.1,0.6,8.2,1.2,10.9,1.6c-6.6,17.3-13,34.3-19.8,51.1
	c-1,2.5-4,5-6.6,6c-39.7,14.7-78,13.4-106.9-25.9c-12.3-16.8-28.2-31.6-44.8-44.2c-11.6-8.8-27.2-12-44.8-1.5
	c6.4,6.8,12.1,12.5,17.4,18.6c13.6,16,32,30.1,39.7,48.6c23.9,57.8,59.7,62.2,109.6,63.5c10.6,0.3,21.2-1.7,33.9-2.8
	c0,27.5,1.1,54.5-0.5,81.3c-0.8,12.7-14.9,17.6-30.9,12.1c-51.1-17.4-97.3-43.4-137.2-79.8c-77.3-70.7-124.9-156.9-135.8-262.1
	c-0.3-2.5-1.8-4.8-2.7-7.2c0-24.5,0-49.1,0-73.6c2.7-15.6,4.8-31.4,8.2-46.9c45-208,229.5-343.7,441.5-324.9
	C852,15,993.6,129.4,1040.5,285.5c8.5,28.3,12.7,57.9,19,86.9C1059.4,396.9,1059.4,421.5,1059.4,446z"/>
</svg>
