<?xml version="1.0" encoding="utf-8"?>
<!-- Generator: Adobe Illustrator 21.0.0, SVG Export Plug-In . SVG Version: 6.00 Build 0)  -->
<svg version="1.1" id="Layer_1" xmlns="http://www.w3.org/2000/svg" xmlns:xlink="http://www.w3.org/1999/xlink" x="0px" y="0px"
	 viewBox="0 0 73.6 73.6" style="enable-background:new 0 0 73.6 73.6;" xml:space="preserve">
<style type="text/css">
	.st0{fill:#105AFF;}
</style>
<g>
	<path class="st0" d="M22.7,38.4C22.7,38.5,22.7,38.5,22.7,38.4c0.3,0.6,0.6,1.1,1.1,1.6c4.8,4.8,9.7,9.7,14.5,14.5
		c4.1,4.1,10.4-2.2,6.3-6.3c-3.8-3.8-7.7-7.7-11.5-11.5c3.8-3.8,7.5-7.5,11.3-11.3c4.1-4.1-2.2-10.4-6.3-6.3
		c-4.8,4.8-9.7,9.7-14.5,14.5C22,35.1,22,36.9,22.7,38.4L22.7,38.4z"/>
	<path class="st0" d="M36.8,73.6c20.3,0,36.8-16.5,36.8-36.8S57.1,0,36.8,0S0,16.5,0,36.8S16.5,73.6,36.8,73.6z M36.8,7
		c16.5,0,29.8,13.4,29.8,29.8c0,16.5-13.4,29.8-29.8,29.8S7,53.2,7,36.8S20.3,7,36.8,7z"/>
</g>
</svg>
