<?xml version="1.0" encoding="utf-8"?>
<!-- Generator: Adobe Illustrator 18.1.1, SVG Export Plug-In . SVG Version: 6.00 Build 0)  -->
<!DOCTYPE svg PUBLIC "-//W3C//DTD SVG 1.1//EN" "http://www.w3.org/Graphics/SVG/1.1/DTD/svg11.dtd">
<svg version="1.1" id="Layer_1" xmlns="http://www.w3.org/2000/svg" xmlns:xlink="http://www.w3.org/1999/xlink" x="0px" y="0px"
	 viewBox="470 0 793.7 800" enable-background="new 470 0 793.7 800" xml:space="preserve">
<path fill="#FFFFFF" d="M866.7,796.5c-219.8,0-396.6-177.1-396.7-397.2C469.9,178,652.5-1.1,874.6,3c214,4,392.9,180.9,389,404.2
	C1259.8,624.2,1081.4,797.6,866.7,796.5z M899.7,344.7c0-11.3,0-22.6,0-33.7c-28.2,0-55.2,0-82,0c0,93.8,0,187,0,279.9
	c27.6,0,54.5,0,82.3,0c0-3.9,0-7.3,0-10.7c0-46.2-0.5-92.4,0.3-138.5c0.2-11.5,2.8-23.7,7.2-34.4c8.1-19.7,28-28.9,51.8-26.3
	c20.6,2.2,33.8,14.2,38.5,35.8c1.9,8.7,2.8,17.8,2.9,26.7c0.3,45.2,0.1,90.4,0.1,135.7c0,3.8,0,7.6,0,11.9c29,0,57,0,86,0
	c0-8.1,0-15.7,0-23.3c-0.1-56.1,1.2-112.3-0.7-168.4c-2.3-68.1-56.9-108.9-123.5-94.8C936.9,309.9,917.3,324.4,899.7,344.7z
	 M760,590.9c0-94,0-187,0-280.1c-28.8,0-56.9,0-85.4,0c0,93.6,0,186.6,0,280.1C703.3,590.9,731.3,590.9,760,590.9z M665.8,221.8
	c0.2,28.2,23.9,51.9,51.6,51.5c27.8-0.4,51.4-24.4,51.1-52.2c-0.3-28.1-23.9-51.6-51.7-51.4C688.8,170,665.6,193.6,665.8,221.8z"/>
<path fill="none" d="M899.7,344.7c17.6-20.3,37.2-34.9,62.9-40.3c66.7-14.2,121.2,26.7,123.5,94.8c1.9,56.1,0.6,112.2,0.7,168.4
	c0,7.6,0,15.2,0,23.3c-28.9,0-57,0-86,0c0-4.3,0-8.1,0-11.9c0-45.2,0.2-90.4-0.1-135.7c-0.1-8.9-1-18-2.9-26.7
	c-4.6-21.6-17.9-33.5-38.5-35.8c-23.7-2.6-43.6,6.6-51.8,26.3c-4.4,10.7-7,22.8-7.2,34.4c-0.8,46.2-0.3,92.4-0.3,138.5
	c0,3.4,0,6.9,0,10.7c-27.9,0-54.7,0-82.3,0c0-93,0-186.1,0-279.9c26.8,0,53.8,0,82,0C899.7,322.1,899.7,333.4,899.7,344.7z"/>
<path fill="none" d="M760,590.9c-28.7,0-56.8,0-85.4,0c0-93.5,0-186.6,0-280.1c28.5,0,56.6,0,85.4,0C760,403.9,760,497,760,590.9z"
	/>
<path fill="none" d="M665.8,221.8c-0.2-28.2,22.9-51.9,50.9-52.1c27.8-0.2,51.4,23.3,51.7,51.4c0.3,27.8-23.2,51.8-51.1,52.2
	C689.8,273.8,666.1,250.1,665.8,221.8z"/>
</svg>
