<?xml version="1.0" encoding="utf-8"?>
<!-- Generator: Adobe Illustrator 21.0.0, SVG Export Plug-In . SVG Version: 6.00 Build 0)  -->
<svg version="1.1" id="Layer_1" xmlns="http://www.w3.org/2000/svg" xmlns:xlink="http://www.w3.org/1999/xlink" x="0px" y="0px"
	 viewBox="0 0 73.6 73.6" style="enable-background:new 0 0 73.6 73.6;" xml:space="preserve">
<style type="text/css">
	.st0{fill:#105AFF;}
</style>
<g>
	<path class="st0" d="M50.9,35.2C50.9,35.1,50.9,35.1,50.9,35.2c-0.3-0.6-0.6-1.1-1.1-1.6c-4.8-4.8-9.7-9.7-14.5-14.5
		c-4.1-4.1-10.4,2.2-6.3,6.3c3.8,3.8,7.7,7.7,11.5,11.5c-3.8,3.8-7.5,7.5-11.3,11.3c-4.1,4.1,2.2,10.4,6.3,6.3
		c4.8-4.8,9.7-9.7,14.5-14.5C51.6,38.5,51.6,36.7,50.9,35.2L50.9,35.2z"/>
	<path class="st0" d="M36.8,0C16.5,0,0,16.5,0,36.8s16.5,36.8,36.8,36.8s36.8-16.5,36.8-36.8S57.1,0,36.8,0z M36.8,66.6
		C20.3,66.6,7,53.2,7,36.8C7,20.3,20.4,7,36.8,7s29.8,13.4,29.8,29.8S53.3,66.6,36.8,66.6z"/>
</g>
</svg>
