<?xml version="1.0" encoding="UTF-8" standalone="no"?>
<!DOCTYPE svg  PUBLIC '-//W3C//DTD SVG 1.1//EN'  'http://www.w3.org/Graphics/SVG/1.1/DTD/svg11.dtd'>
<svg xmlns="http://www.w3.org/2000/svg">
<defs>
<font id="HalisGR-Bold" horiz-adv-x="724">
<font-face underline-position="-80" font-weight="700" descent="-200" panose-1="2 0 5 5 3 0 0 2 0 4" units-per-em="1000" unicode-range="U+0020-25CA" bbox="-190 -337 1213 990" x-height="500" underline-thickness="50" font-family="HalisGR" ascent="800" cap-height="700"/>
<missing-glyph horiz-adv-x="1000"/>
<glyph glyph-name=".notdef" horiz-adv-x="1000"/>
<glyph glyph-name=".null" horiz-adv-x="0"/>
<glyph glyph-name="nonmarkingreturn" horiz-adv-x="333"/>
<glyph glyph-name="space" horiz-adv-x="300" unicode=" "/>
<glyph glyph-name="exclam" horiz-adv-x="352" unicode="!" d="M100 69q0 33 21.5 55t54.5 22q32 0 54 -22t22 -55q0 -32 -22 -54.5t-54 -22.5q-33 0 -54.5 22.5t-21.5 54.5zM245 701v-281l-19 -212h-98l-19 212v281h136z"/>
<glyph glyph-name="quotedbl" horiz-adv-x="430" unicode='&quot;' d="M180 702l-24 -255h-92l-24 255h140zM390 702l-24 -255h-92l-24 255h140z"/>
<glyph glyph-name="numbersign" horiz-adv-x="575" unicode="#" d="M251 287v-74h73v74h-73zM60 397h80v103h111v-103h73v103h111v-103h80v-110h-80v-74h80v-109h-80v-104h-111v104h-73v-104h-111v104h-80v109h80v74h-80v110z"/>
<glyph glyph-name="dollar" horiz-adv-x="642" unicode="$" d="M214 512q1 -18 10.5 -31t32 -23.5t39 -16.5t52.5 -16q42 -12 66 -20.5t60.5 -28t56.5 -41.5t35.5 -59t15.5 -83q0 -76 -58.5 -131t-151.5 -67v-92h-102v92q-108 10 -214 68l59 117q119 -57 205 -57q48 0 82 19.5t34 51.5q0 18 -8.5 33t-19 24.5t-34 19.5t-37 14.5 t-45.5 14.5q-9 3 -13 4q-38 11 -60.5 19.5t-54 25.5t-49 36.5t-30.5 51t-13 70.5q0 87 54.5 140.5t143.5 61.5v90h102v-95q93 -15 182 -57l-54 -121q-44 18 -98.5 34t-80.5 16q-49 0 -77 -13.5t-30 -50.5z"/>
<glyph glyph-name="percent" horiz-adv-x="854" unicode="%" d="M667 103q25 0 34.5 18.5t9.5 36.5q0 11 -2.5 22t-13.5 22.5t-28 11.5q-18 0 -29 -11.5t-13.5 -22.5t-2.5 -22q0 -10 2.5 -21t13.5 -22.5t29 -11.5zM667 323q43 0 75 -16t49 -42t25 -53t8 -54t-8 -54t-25 -52.5t-49 -41t-75 -15.5t-75.5 15.5t-49.5 41t-25 52.5t-8 54 q0 28 8 54.5t25 52.5t49.5 42t75.5 16zM604 700l-232 -700h-119l233 700h118zM189 486q25 0 34 18t9 37q0 11 -2.5 22t-13 22.5t-27.5 11.5q-18 0 -29 -11.5t-13.5 -22.5t-2.5 -22t2.5 -21.5t13.5 -22t29 -11.5zM189 706q43 0 75 -16t49 -42t25 -53t8 -54t-8 -54t-25 -52.5 t-49 -41t-75 -15.5q-83 0 -121 50.5t-38 112.5q0 28 8 54.5t25 52.5t49.5 42t76.5 16z"/>
<glyph glyph-name="ampersand" horiz-adv-x="719" unicode="&amp;" d="M481 541q0 -99 -101 -179l101 -108q25 58 34 114l114 -22q-9 -102 -57 -191l87 -92l-88 -82l-76 78q-75 -66 -192 -66q-96 2 -159.5 64t-63.5 144q0 63 28.5 105.5t80.5 76.5q-2 2 -5 5.5t-4 4.5q-56 63 -56 145q0 69 47 121t136 52q84 0 129 -50.5t45 -119.5zM211 207 q0 -41 29.5 -66t69.5 -25q60 0 99 33l-131 141q-66 -46 -67 -83zM298 450q57 42 57 90q0 23 -13.5 39.5t-38.5 16.5q-29 0 -41.5 -18.5t-12.5 -38.5q0 -40 49 -89z"/>
<glyph glyph-name="quotesingle" horiz-adv-x="220" unicode="&apos;" d="M180 702l-24 -255h-92l-24 255h140z"/>
<glyph glyph-name="parenleft" horiz-adv-x="320" unicode="(" d="M30 294q0 256 168 497l92 -56q-125 -230 -125 -440q0 -217 125 -447l-92 -55q-168 238 -168 501z"/>
<glyph glyph-name="parenright" horiz-adv-x="320" unicode=")" d="M290 294q0 -263 -168 -501l-92 55q125 230 125 447q0 210 -125 440l92 56q168 -241 168 -497z"/>
<glyph glyph-name="asterisk" horiz-adv-x="480" unicode="*" d="M197 333l-5 100l-89 -45l-43 74l83 55l-83 54l43 74l89 -45l5 100h86l5 -100l89 45l43 -74l-84 -54l84 -55l-43 -74l-89 45l-5 -100h-86z"/>
<glyph glyph-name="plus" horiz-adv-x="558" unicode="+" d="M222 140v142h-142v113h142v142h114v-142h142v-113h-142v-142h-114z"/>
<glyph glyph-name="comma" horiz-adv-x="332" unicode="," d="M150 -168l-70 34q37 63 56 128q-54 17 -54 78q0 35 23 58.5t58 23.5q46 0 67.5 -26t21.5 -64q0 -45 -34 -117.5t-68 -114.5z"/>
<glyph glyph-name="hyphen" horiz-adv-x="446" unicode="-" d="M80 353h286v-115h-286v115z"/>
<glyph glyph-name="period" horiz-adv-x="327" unicode="." d="M80 77q0 35 25 59.5t59 24.5q35 0 59 -24.5t24 -59.5t-24.5 -59t-58.5 -24t-59 24.5t-25 58.5z"/>
<glyph glyph-name="slash" horiz-adv-x="411" unicode="/" d="M381 700l-232 -700h-119l233 700h118z"/>
<glyph glyph-name="zero" horiz-adv-x="646" unicode="0" d="M322 115q39 0 66.5 26.5t39.5 66.5t16.5 72t4.5 59t-4.5 58.5t-16.5 71.5t-39.5 66t-66.5 26q-38 0 -65.5 -26t-39.5 -66t-17 -71.5t-5 -58.5t5 -59t17 -72t39.5 -66.5t65.5 -26.5zM322 683q72 0 126 -33.5t82.5 -87.5t42 -110t13.5 -113q0 -46 -8 -91t-27 -92t-48.5 -82 t-76 -57.5t-104.5 -22.5t-104.5 22.5t-75 57.5t-48 82t-27 92t-7.5 91q0 57 13.5 113t41.5 110t82 87.5t125 33.5z"/>
<glyph glyph-name="one" horiz-adv-x="417" unicode="1" d="M327 678v-678h-136v473l-93 -52l-58 92l238 165h49z"/>
<glyph glyph-name="two" horiz-adv-x="538" unicode="2" d="M121 480l-81 86q108 118 227 118q94 0 152.5 -50.5t58.5 -145.5q0 -73 -83 -187l-128 -174h193v-127h-427l-3 7l265 374q51 72 51 111q0 30 -18.5 50.5t-59.5 20.5q-61 0 -147 -83z"/>
<glyph glyph-name="three" horiz-adv-x="536" unicode="3" d="M476 487q0 -43 -19 -84t-52 -64q36 -21 53.5 -61.5t17.5 -83.5q0 -31 -10 -62t-32.5 -63.5t-69 -53t-110.5 -20.5q-112 0 -214 95l77 91q28 -27 67.5 -47.5t69.5 -20.5q38 0 64.5 21t26.5 60q0 40 -27 63.5t-64 23.5h-99v118h99q37 0 64 24t27 64q0 39 -26.5 60t-64.5 21 q-29 0 -68.5 -20.5t-68.5 -47.5l-77 91q102 95 214 95q64 0 110.5 -20.5t69 -53t32.5 -63.5t10 -62z"/>
<glyph glyph-name="four" horiz-adv-x="555" unicode="4" d="M298 404l-92 -147h92v147zM437 133v-133h-139v133h-268v78l299 464h108v-418h88v-124h-88z"/>
<glyph glyph-name="five" horiz-adv-x="567" unicode="5" d="M60 108l91 81q58 -73 119 -73q48 0 76 31t28 73q0 41 -28 70.5t-77 29.5h-171v359h366v-123h-224v-119h29q68 0 117.5 -21.5t74 -56.5t35.5 -70.5t11 -73.5q0 -24 -6 -51t-23 -58t-42.5 -55t-69 -40.5t-97.5 -16.5q-120 0 -209 114z"/>
<glyph glyph-name="six" horiz-adv-x="586" unicode="6" d="M294 118q46 0 73 30.5t27 72.5t-26.5 72t-73.5 30t-73 -29.5t-28 -72.5q0 -42 26.5 -72.5t74.5 -30.5zM356 688l65 -99q-105 -56 -177 -157q26 12 69 12q62 -3 106 -26t66 -58.5t31.5 -70.5t9.5 -73q0 -23 -5.5 -49.5t-22 -58t-41 -56.5t-67 -41.5t-96.5 -16.5t-97 17.5 t-68 43.5t-41 59t-21.5 60.5t-5.5 52.5q0 87 26 163t71 132t93.5 96t104.5 70z"/>
<glyph glyph-name="seven" horiz-adv-x="493" unicode="7" d="M30 555v123h430l3 -7l-269 -671h-141l220 555h-243z"/>
<glyph glyph-name="eight" horiz-adv-x="566" unicode="8" d="M283 400q38 0 64.5 22.5t26.5 62.5q0 39 -26 60t-65 21t-65.5 -21t-26.5 -60q0 -40 27 -62.5t65 -22.5zM283 112q38 0 64.5 22.5t26.5 60.5q0 40 -26.5 62.5t-64.5 22.5t-65 -22.5t-27 -62.5q0 -39 27 -61t65 -22zM506 485q0 -35 -18 -76.5t-58 -69.5q76 -45 76 -143 q0 -31 -10 -62.5t-32.5 -64.5t-69.5 -54t-111 -21q-52 0 -93 14t-64.5 35.5t-39 50t-21 53t-5.5 48.5q0 43 19 84t53 61q-72 52 -72 145q0 31 10 62t32.5 63.5t69.5 53t111 20.5t111 -20.5t69.5 -53t32.5 -63.5t10 -62z"/>
<glyph glyph-name="nine" horiz-adv-x="586" unicode="9" d="M292 561q-46 0 -73 -30.5t-27 -72.5t26.5 -72t73.5 -30t73 29.5t28 72.5q0 42 -26.5 72.5t-74.5 30.5zM230 -9l-65 99q105 56 177 157q-26 -12 -69 -12q-62 3 -106 26t-66 58.5t-31.5 70.5t-9.5 73q0 23 5.5 49.5t22 58t41 56.5t67 41.5t96.5 16.5t97 -17.5t68 -43.5 t41 -59t21.5 -60.5t5.5 -52.5q0 -87 -26 -163t-71 -132t-93.5 -96t-104.5 -70z"/>
<glyph glyph-name="colon" horiz-adv-x="327" unicode=":" d="M80 419q0 35 25 59.5t59 24.5q35 0 59 -24.5t24 -59.5t-24.5 -59t-58.5 -24t-59 24.5t-25 58.5zM80 77q0 35 25 59.5t59 24.5q35 0 59 -24.5t24 -59.5t-24.5 -59t-58.5 -24t-59 24.5t-25 58.5z"/>
<glyph glyph-name="semicolon" horiz-adv-x="332" unicode=";" d="M150 -168l-70 34q37 63 56 128q-54 17 -54 78q0 35 23 58.5t58 23.5q46 0 67.5 -26t21.5 -64q0 -45 -34 -117.5t-68 -114.5zM80 419q0 35 25 59.5t59 24.5q35 0 59 -24.5t24 -59.5t-24.5 -59t-58.5 -24t-59 24.5t-25 58.5z"/>
<glyph glyph-name="less" horiz-adv-x="441" unicode="&lt;" d="M222 294l189 -120l-57 -100l-324 196v48l324 195l57 -99z"/>
<glyph glyph-name="equal" horiz-adv-x="510" unicode="=" d="M430 176h-350v112h350v-112zM430 389h-350v114h350v-114z"/>
<glyph glyph-name="greater" horiz-adv-x="441" unicode="&gt;" d="M30 174l189 120l-189 120l57 99l324 -195v-48l-324 -196z"/>
<glyph glyph-name="question" horiz-adv-x="571" unicode="?" d="M213 61q0 33 22.5 55t55.5 22t55.5 -22t22.5 -55t-23 -55.5t-55 -22.5q-34 0 -56 21.5t-22 56.5zM355 281v-71h-127v74q0 28 10.5 54t22 40.5t33.5 40.5q20 22 29.5 35t20 35.5t10.5 43.5q0 20 -12.5 37t-46.5 17h-6q-28 -1 -55.5 -19.5t-68.5 -59.5l-85 81 q59 64 110 92.5t116 28.5q82 0 133.5 -46.5t51.5 -129.5q0 -35 -16 -72t-32 -58.5t-43 -52.5q-45 -53 -45 -70z"/>
<glyph glyph-name="at" horiz-adv-x="1146" unicode="@" d="M672 95v198q-41 53 -102 53q-39 0 -66.5 -17.5t-39.5 -45t-17 -49.5t-5 -41t5 -41t17.5 -48.5t40 -44t65.5 -17.5q67 0 102 53zM580 730q229 0 367.5 -136t138.5 -345q0 -61 -14 -119t-42.5 -110t-80.5 -84t-120 -32q-84 0 -123 68q-60 -47 -141 -47q-70 0 -122 26 t-80 67.5t-41 86t-13 89.5q0 46 13 90t41 86t80 67.5t122 25.5q81 0 137 -43l12 35h92v-385q2 -46 39 -46q47 0 77.5 63t30.5 157q0 158 -100.5 259t-275.5 101q-179 0 -282 -111.5t-103 -301.5v-8q2 -124 87.5 -236.5t257.5 -170.5l-55 -113q-208 70 -314.5 208.5 t-106.5 316.5q0 237 142.5 389.5t376.5 152.5z"/>
<glyph glyph-name="A" d="M362 419l-57 -137h114zM30 0l327 709h10l327 -709h-157l-69 165h-212l-68 -165h-158z" unicode="A"/>
<glyph glyph-name="B" horiz-adv-x="675" unicode="B" d="M375 130q38 0 61.5 16.5t29 32t5.5 29.5q0 17 -5.5 31.5t-28 28.5t-59.5 15h-138v-153h135zM378 409q37 1 59.5 17.5t28 32.5t5.5 32q0 14 -5.5 30t-29 33t-61.5 17h-135v-162h138zM615 491q0 -40 -24.5 -81t-61.5 -59q37 -19 61.5 -57.5t24.5 -85.5q0 -38 -12.5 -72.5 t-40 -66t-78 -50.5t-119.5 -19h-265v700h265q69 0 119.5 -19t78 -51t40 -66.5t12.5 -72.5z"/>
<glyph glyph-name="C" horiz-adv-x="741" unicode="C" d="M681 579l-93 -90q-29 36 -81 62.5t-99 26.5q-51 0 -90 -18.5t-59.5 -44.5t-34 -60t-17 -58.5t-3.5 -45.5t4 -45.5t17 -58t34 -59.5t60 -44.5t90 -18.5q48 0 99 23.5t89 57.5l80 -97q-118 -118 -269 -118q-77 0 -138.5 23.5t-99.5 60t-64 85t-36 96t-10 95.5q0 47 10 93.5 t36 95.5t64 86t99.5 60.5t138.5 23.5q157 0 273 -131z"/>
<glyph glyph-name="D" horiz-adv-x="755" unicode="D" d="M240 130h109q62 0 105.5 25.5t63 65t27 71t7.5 59.5t-7.5 59.5t-27 70.5t-63 64.5t-105.5 25.5h-109v-441zM349 0h-249v700h249q76 0 137.5 -22.5t99.5 -58t63.5 -83t35.5 -93t10 -92.5q0 -48 -10 -94.5t-35.5 -93.5t-63.5 -82.5t-99 -58t-138 -22.5z"/>
<glyph glyph-name="E" horiz-adv-x="636" unicode="E" d="M503 280h-262v-150h335v-130h-476v700h476v-130h-335v-160h262v-130z"/>
<glyph glyph-name="F" horiz-adv-x="636" unicode="F" d="M503 280h-262v-280h-141v700h476v-130h-335v-160h262v-130z"/>
<glyph glyph-name="G" horiz-adv-x="727" unicode="G" d="M523 245h-138v128h280v-279q-103 -103 -257 -103q-77 0 -138.5 23.5t-99.5 60t-64 85t-36 96t-10 95.5q0 47 10 93.5t36 95.5t64 86t99.5 60.5t138.5 23.5q153 0 259 -114l-87 -94q-30 32 -79 54t-93 22q-51 0 -90 -18.5t-59.5 -44t-34 -59t-17 -58t-3.5 -45.5t3.5 -46.5 t17 -60t34 -61.5t59.5 -46t90 -19q30 0 63.5 10t51.5 26v89z"/>
<glyph glyph-name="H" horiz-adv-x="775" unicode="H" d="M242 280v-280h-142v700h142v-290h292v290h141v-700h-141v280h-292z"/>
<glyph glyph-name="I" horiz-adv-x="342" unicode="I" d="M242 700v-700h-142v700h142z"/>
<glyph glyph-name="J" horiz-adv-x="631" unicode="J" d="M20 206l126 46q40 -124 125 -124h4q113 3 113 145v427h143v-427q0 -38 -6.5 -73.5t-24 -74t-45 -66.5t-74 -46.5t-106.5 -18.5q-109 0 -167.5 56.5t-87.5 155.5z"/>
<glyph glyph-name="K" horiz-adv-x="710" unicode="K" d="M242 0h-142v700h142v-280l247 280h155l3 -8l-293 -331l316 -354l-2 -7h-160l-266 295v-295z"/>
<glyph glyph-name="L" horiz-adv-x="564" unicode="L" d="M242 700v-570h262v-130h-404v700h142z"/>
<glyph glyph-name="M" horiz-adv-x="1012" unicode="M" d="M511 -6h-10l-194 383l-126 -377h-151l257 704h11l208 -430l208 430h11l257 -704h-151l-126 377z"/>
<glyph glyph-name="N" horiz-adv-x="776" unicode="N" d="M100 702l9 4l425 -403v397h142v-701l-10 -4l-424 406v-401h-142v702z"/>
<glyph glyph-name="O" horiz-adv-x="814" unicode="O" d="M408 120q50 0 88.5 19t59 45.5t33.5 61t17 59.5t4 46t-4 46t-17 59t-33.5 60.5t-59 45t-88.5 18.5q-51 0 -90 -18.5t-59.5 -45t-34 -60.5t-17 -59t-3.5 -46t3.5 -46t17 -59.5t34 -61t59.5 -45.5t90 -19zM408 712q76 0 137.5 -24t99.5 -61t63.5 -86t35.5 -96t10 -94 q0 -48 -10 -95.5t-35.5 -96.5t-63.5 -86t-99.5 -60.5t-137.5 -23.5q-77 0 -138.5 23.5t-99.5 60.5t-64 86t-36 96.5t-10 95.5q0 47 10 94t36 96t64 86t99.5 61t138.5 24z"/>
<glyph glyph-name="P" horiz-adv-x="677" unicode="P" d="M376 374q53 1 76 33.5t23 65.5q0 35 -23.5 66.5t-79.5 31.5h-130v-197h134zM242 243v-243h-142v700h267q68 0 119.5 -22t78.5 -57.5t39.5 -72.5t12.5 -75q0 -99 -72.5 -164.5t-164.5 -65.5h-138z"/>
<glyph glyph-name="Q" horiz-adv-x="824" unicode="Q" d="M408 122q50 0 88.5 18.5t59 45t33.5 60.5t17 59t4 46t-4 46t-17 58.5t-33.5 59.5t-59 44.5t-88.5 18.5q-51 0 -90 -18.5t-59.5 -44.5t-34 -60t-17 -58.5t-3.5 -45.5t3.5 -46t17 -59t34 -60.5t59.5 -45t90 -18.5zM408 710q76 0 137.5 -23.5t99.5 -60.5t63.5 -85.5 t35.5 -95.5t10 -94q0 -83 -33.5 -163.5t-102.5 -132.5l158 -186v-13h-162l-115 145q-50 -10 -91 -10q-77 0 -138.5 23.5t-99.5 60t-64 85t-36 96t-10 95.5q0 47 10 93.5t36 95.5t64 86t99.5 60.5t138.5 23.5z"/>
<glyph glyph-name="R" horiz-adv-x="675" unicode="R" d="M374 374q53 1 76 33.5t23 65.5q0 35 -23.5 66.5t-79.5 31.5h-130v-197h134zM240 243v-243h-140v700h265q68 0 119.5 -22t78.5 -57.5t39.5 -72.5t12.5 -75q0 -73 -38 -127t-100 -81l125 -265h-154l-114 243h-94z"/>
<glyph glyph-name="S" horiz-adv-x="642" unicode="S" d="M214 514q1 -17 10 -30t31 -24.5t37 -17.5t51 -18q34 -12 47.5 -16.5t45.5 -17.5t46.5 -23t37.5 -27.5t34 -35.5t19.5 -43t8.5 -54v-14q-5 -87 -76 -144t-179 -57q-138 0 -271 71l62 117q119 -57 202 -57q46 0 76.5 18t35.5 49q1 3 1 10q0 30 -29.5 50.5t-83.5 37.5 q-108 33 -144 53q-104 56 -104 166q0 94 63 149t164 55q118 0 255 -64l-51 -119q-124 51 -194 51q-92 0 -95 -65z"/>
<glyph glyph-name="T" horiz-adv-x="613" unicode="T" d="M234 0v570h-189v130h523v-130h-191v-570h-143z"/>
<glyph glyph-name="U" horiz-adv-x="736" unicode="U" d="M368 122q38 0 66.5 17t42 43t20 49t6.5 41v428h143v-428q0 -47 -15 -93.5t-46 -89.5t-87.5 -69.5t-129.5 -26.5t-129.5 26.5t-87.5 69.5t-46 89.5t-15 93.5v428h142v-428q0 -18 6.5 -41t20.5 -49t42.5 -43t66.5 -17z"/>
<glyph glyph-name="V" d="M358 -9l-328 709h158l174 -419l175 419h157l-328 -709h-8z" unicode="V"/>
<glyph glyph-name="W" horiz-adv-x="1091" unicode="W" d="M1061 700l-327 -704h-6l-183 379l-182 -379h-7l-326 704h158l174 -411l179 416l8 -1l180 -415l174 411h158z"/>
<glyph glyph-name="X" horiz-adv-x="659" unicode="X" d="M464 701h165l-222 -350l222 -351h-163l-137 226l-136 -226h-163l221 351l-221 350h165l134 -224z"/>
<glyph glyph-name="Y" horiz-adv-x="677" unicode="Y" d="M409 313v-313h-141v311l-238 389h156l152 -254l152 254h157z"/>
<glyph glyph-name="Z" horiz-adv-x="661" unicode="Z" d="M282 130h313v-130h-531l-4 8l316 563h-286v129h507l4 -8z"/>
<glyph glyph-name="bracketleft" horiz-adv-x="270" unicode="[" d="M30 -205v985h210v-107h-80v-771h80v-107h-210z"/>
<glyph glyph-name="backslash" horiz-adv-x="411" unicode="\" d="M262 0l-232 700h118l233 -700h-119z"/>
<glyph glyph-name="bracketright" horiz-adv-x="270" unicode="]" d="M240 780v-985h-210v107h80v771h-80v107h210z"/>
<glyph glyph-name="asciicircum" horiz-adv-x="609" unicode="^" d="M157 389l-77 68l215 260h21l213 -260l-77 -69l-147 167z"/>
<glyph glyph-name="underscore" horiz-adv-x="421" unicode="_" d="M5 -87v84h411v-84h-411z"/>
<glyph glyph-name="grave" horiz-adv-x="510" unicode="`" d="M165 786l161 -125l-52 -74l-174 108z"/>
<glyph glyph-name="a" horiz-adv-x="548" unicode="a" d="M332 147v54q-41 11 -62 11q-81 0 -81 -58q0 -22 17 -34t42 -12q26 0 50 12t34 27zM87 456q103 53 196 53q49 0 84.5 -13t54.5 -32t30 -49.5t13.5 -56.5t2.5 -62v-296h-94l-10 32q-46 -39 -119 -42h-15q-50 0 -86 16t-53 42t-24 50t-7 49q0 166 214 166q26 0 58 -7 q0 49 -15.5 65.5t-51.5 16.5q-53 0 -134 -35z"/>
<glyph glyph-name="b" horiz-adv-x="614" unicode="b" d="M305 113q36 0 61 15t35.5 39t14.5 43.5t4 39.5q0 23 -4.5 43t-16 43.5t-38 37.5t-64.5 14q-45 0 -82 -24v-212q11 -15 36 -27t54 -12zM305 509q58 0 103 -16.5t72 -42.5t44 -61.5t23.5 -69t6.5 -69.5q0 -44 -12 -86.5t-37.5 -82.5t-74.5 -65t-115 -25q-32 0 -71 12.5 t-60 31.5l-11 -35h-93v701h135v-209q37 17 90 17z"/>
<glyph glyph-name="c" horiz-adv-x="554" unicode="c" d="M421 173l79 -95q-83 -85 -188 -85q-68 0 -119.5 24.5t-79 64t-40.5 81.5t-13 85q0 46 11.5 88t38 82.5t78 65t122.5 24.5q109 0 199 -99l-78 -87q-24 26 -57.5 43t-63.5 17q-54 0 -84.5 -39t-30.5 -92q0 -59 34 -93.5t82 -34.5q59 0 110 50z"/>
<glyph glyph-name="d" horiz-adv-x="614" unicode="d" d="M309 113q29 0 54 12t36 27v212q-37 24 -82 24q-38 0 -64.5 -14t-38 -37.5t-16 -43.5t-4.5 -43q0 -20 4 -39.5t14.5 -43.5t35.5 -39t61 -15zM309 509q53 0 90 -17v209h135v-701h-93l-11 35q-21 -19 -60 -31.5t-71 -12.5q-66 0 -115 25t-74.5 65t-37.5 82.5t-12 86.5 q0 36 6.5 69.5t23.5 69t44 61.5t72 42.5t103 16.5z"/>
<glyph glyph-name="e" horiz-adv-x="547" unicode="e" d="M295 386q-80 0 -106 -79h179q-2 78 -73 79zM498 227h-313q6 -47 35 -78.5t75 -31.5q66 0 125 45l66 -91q-92 -77 -191 -77q-68 0 -119 24.5t-78 64t-40 82t-13 86.5q0 43 13 85t40 82t78 64.5t119 24.5q98 0 152.5 -58t54.5 -157q0 -21 -4 -65z"/>
<glyph glyph-name="f" horiz-adv-x="376" unicode="f" d="M386 671l-40 -107q-54 22 -96 22q-22 0 -37 -12.5t-15 -40.5v-33h93v-117h-93v-383h-136v383h-52v117h52v37q0 83 50.5 126.5t129.5 43.5q71 0 144 -36z"/>
<glyph glyph-name="g" horiz-adv-x="585" unicode="g" d="M290 -109q27 0 47 4t29.5 9.5t15.5 12t7 9.5t1 5q0 37 -100 37q-102 0 -102 -35q0 -7 6.5 -15t31.5 -17t64 -10zM290 242q25 0 40 16t18.5 30.5t3.5 27.5q0 14 -3.5 28.5t-18.5 30.5t-40 16q-35 0 -49 -24.5t-14 -50.5q0 -14 3 -28t18.5 -30t41.5 -16zM60 -66 q1 26 14.5 54.5t38.5 45.5q-41 32 -41 93q0 25 14.5 49t37.5 35q-35 38 -35 105q0 34 10.5 66.5t32.5 62.5t62.5 48.5t95.5 18.5q59 0 95 -20l71 67l79 -79l-70 -75q28 -41 28 -91q0 -33 -11 -65.5t-33 -62t-63.5 -48t-95.5 -18.5q-45 0 -76 12q-9 -1 -16 -6t-7 -12 q0 -18 10 -26.5t36 -8.5h8q15 1 42 1q130 0 180.5 -39t50.5 -108q0 -12 -3 -27.5t-16.5 -39.5t-35.5 -42.5t-65.5 -32.5t-101.5 -14q-125 0 -180.5 48t-55.5 109z"/>
<glyph glyph-name="h" horiz-adv-x="584" unicode="h" d="M215 0h-135v700h135v-218q43 26 96 26q55 0 95.5 -15t62.5 -38t35 -58.5t16.5 -66.5t3.5 -72v-258h-135v258q0 27 -3 46.5t-11.5 40t-27.5 31t-49 10.5h-4q-53 -2 -79 -38v-348z"/>
<glyph glyph-name="i" horiz-adv-x="313" unicode="i" d="M80 663q0 32 22 54.5t55 22.5q32 0 54 -22.5t22 -54.5q0 -33 -22 -54.5t-54 -21.5q-33 0 -55 21.5t-22 54.5zM224 500v-500h-136v500h136z"/>
<glyph glyph-name="j" horiz-adv-x="293" unicode="j" d="M60 664q0 33 21.5 55t54.5 22q32 0 54.5 -22.5t22.5 -54.5q0 -33 -22 -54.5t-55 -21.5t-54.5 21t-21.5 55zM-73 -57q49 -28 84 -28q56 0 56 75v510h138v-502v-11q0 -18 -2 -36.5t-12.5 -48t-28 -51t-52.5 -38t-83 -16.5q-46 0 -91 19t-66 40z"/>
<glyph glyph-name="k" horiz-adv-x="601" unicode="k" d="M420 0l-205 224v-224h-135v700h135v-415l191 215h144l4 -9l-207 -231l224 -251l-4 -9h-147z"/>
<glyph glyph-name="l" horiz-adv-x="297" unicode="l" d="M217 701v-701h-137v701h137z"/>
<glyph glyph-name="m" horiz-adv-x="855" unicode="m" d="M215 344v-344h-135v500h92l12 -38q54 46 126 46q100 0 147 -50q64 50 140 50q40 0 71 -8t51.5 -20.5t35.5 -33.5t22.5 -40t11.5 -47.5t5 -49t1 -51.5v-258h-138v271v17q0 29 -3.5 48t-18.5 35.5t-43 16.5q-51 0 -85 -43v-345h-137v271v17q0 29 -3.5 48t-18.5 35.5 t-43 16.5q-58 0 -90 -44z"/>
<glyph glyph-name="n" horiz-adv-x="585" unicode="n" d="M215 344v-344h-135v500h92l12 -36q54 44 126 44q55 0 95 -15.5t63 -38.5t36 -58t17 -66.5t4 -71.5v-258h-138v258q0 129 -82 129q-59 0 -90 -43z"/>
<glyph glyph-name="o" horiz-adv-x="618" unicode="o" d="M309 112q35 0 59.5 16t35.5 41t15 44.5t4 36.5t-4 37t-15 45t-35.5 41t-59.5 16t-60 -16.5t-35.5 -41t-15 -44.5t-4.5 -37t4.5 -36.5t15 -44.5t35.5 -41t60 -16zM309 510q68 0 119 -25t78 -66t39.5 -83.5t12.5 -85.5q0 -44 -12.5 -86.5t-39.5 -83t-78 -65t-119 -24.5 t-119 24.5t-78 65t-39.5 83t-12.5 86.5q0 43 12.5 85.5t39.5 83.5t78 66t119 25z"/>
<glyph glyph-name="p" horiz-adv-x="614" unicode="p" d="M305 388q-29 0 -54 -12t-36 -27v-212q37 -24 82 -24q38 0 64.5 14t38 37.5t16 43.5t4.5 43q0 20 -4 39.5t-14.5 43.5t-35.5 39t-61 15zM305 -8q-53 0 -90 17v-209h-135v701h93l11 -35q21 19 60 31.5t71 12.5q66 0 115 -25t74.5 -65t37.5 -82.5t12 -86.5q0 -36 -6.5 -69.5 t-23.5 -69t-44 -61.5t-72 -42.5t-103 -16.5z"/>
<glyph glyph-name="q" horiz-adv-x="614" unicode="q" d="M309 388q-36 0 -61 -15t-35.5 -39t-14.5 -43.5t-4 -39.5q0 -23 4.5 -43t16 -43.5t38 -37.5t64.5 -14q45 0 82 24v212q-11 15 -36 27t-54 12zM309 -8q-58 0 -103 16.5t-72 42.5t-44 61.5t-23.5 69t-6.5 69.5q0 44 12 86.5t37.5 82.5t74.5 65t115 25q32 0 71 -12.5 t60 -31.5l11 35h93v-701h-135v209q-37 -17 -90 -17z"/>
<glyph glyph-name="r" horiz-adv-x="415" unicode="r" d="M395 498l-39 -124q-33 7 -59 7q-58 0 -82 -41v-340h-135v500h92l12 -31q57 37 128 37q46 0 83 -8z"/>
<glyph glyph-name="s" horiz-adv-x="512" unicode="s" d="M207 357q0 -19 74 -42q31 -10 47.5 -16t44 -21t42 -31t26 -42.5t11.5 -59.5q0 -68 -53 -110.5t-135 -42.5q-100 0 -204 61l54 106q90 -46 145 -46q23 0 39 8.5t16 22.5q0 20 -20.5 31t-62.5 23q-35 11 -55.5 19.5t-47 26t-39.5 45t-13 64.5q0 72 46.5 113.5t123.5 41.5 q89 0 194 -52l-51 -111q-80 39 -127 39q-55 0 -55 -27z"/>
<glyph glyph-name="t" horiz-adv-x="330" unicode="t" d="M62 380h-52v120h52l10 98h126v-98h94v-120h-94v-235q0 -32 28 -32q11 0 71 15l23 -110q-83 -24 -139 -24q-38 0 -64 15.5t-37 40t-14.5 43t-3.5 37.5v250z"/>
<glyph glyph-name="u" horiz-adv-x="585" unicode="u" d="M370 156v344h135v-500h-92l-12 36q-54 -44 -126 -44q-55 0 -95 15.5t-63 38.5t-36 58t-17 66.5t-4 71.5v258h138v-258q0 -129 82 -129q59 0 90 43z"/>
<glyph glyph-name="v" horiz-adv-x="564" unicode="v" d="M282 257l106 243h149l-252 -502h-7l-251 502h149z"/>
<glyph glyph-name="w" horiz-adv-x="764" unicode="w" d="M272 267l107 238h8l105 -238l101 233h143l-237 -503h-7l-110 222l-111 -222h-7l-236 503h143z"/>
<glyph glyph-name="x" horiz-adv-x="504" unicode="x" d="M474 500l-149 -250l149 -250h-155l-67 123l-67 -123h-155l148 250l-148 250h155l67 -123l67 123h155z"/>
<glyph glyph-name="y" horiz-adv-x="609" unicode="y" d="M235 40q-30 73 -104.5 237t-100.5 223h155l123 -301q31 81 119 301h152l-297 -699h-141v11z"/>
<glyph glyph-name="z" horiz-adv-x="509" unicode="z" d="M67 371v129h394l3 -8l-197 -363h187v-129h-406l-3 7l199 364h-177z"/>
<glyph glyph-name="braceleft" horiz-adv-x="322" unicode="{" d="M251 777h41v-106h-20h-3q-50 0 -50 -80v-215q0 -26 -15.5 -51t-34.5 -35q19 -13 34.5 -37.5t15.5 -50.5v-215q0 -21 5 -37t12 -24t15.5 -12.5t13.5 -5.5t8 -1h19v-106h-41q-7 0 -19.5 1.5t-39 11.5t-47.5 27.5t-38 53.5t-17 85v216q0 20 -10 32.5t-23 15.5h-27v92h27 q13 2 23 14t10 33v216q0 48 17 84.5t38 53.5t47.5 27t39 11.5t19.5 1.5z"/>
<glyph glyph-name="bar" horiz-adv-x="222" unicode="|" d="M162 -201h-102v972h102v-972z"/>
<glyph glyph-name="braceright" horiz-adv-x="322" unicode="}" d="M30 777h41q7 0 19.5 -1.5t39 -11.5t47.5 -27t38 -53.5t17 -84.5v-216q0 -21 10 -33t23 -14h27v-92h-27q-13 -3 -23 -15.5t-10 -32.5v-216q0 -49 -17 -85t-38 -53.5t-47.5 -27.5t-39 -11.5t-19.5 -1.5h-41v106h19q3 0 8 1t13.5 5.5t15.5 12.5t12 24t5 37v215 q0 26 15.5 50.5t34.5 37.5q-19 10 -34.5 35t-15.5 51v215q0 80 -50 80h-3h-20v106z"/>
<glyph glyph-name="asciitilde" horiz-adv-x="630" unicode="~" d="M146 206l-86 60q72 128 178 128q34 0 92 -32q42 -24 66 -24q37 0 87 66l87 -63q-71 -131 -175 -131q-46 0 -104 36q-42 22 -57 22q-41 0 -88 -62z"/>
<glyph glyph-name="exclamdown" horiz-adv-x="352" unicode="¡" d="M100 433q0 32 21.5 54.5t54.5 22.5q32 0 54 -22.5t22 -54.5q0 -33 -22 -55t-54 -22q-33 0 -54.5 22t-21.5 55zM245 82v-281h-136v281l19 212h98z"/>
<glyph glyph-name="cent" horiz-adv-x="554" unicode="¢" d="M421 173l79 -95q-65 -66 -140 -80v-85h-102v85q-54 9 -94 36t-61.5 63.5t-32 74.5t-10.5 76q0 41 9.5 79.5t30.5 76.5t61.5 64.5t96.5 35.5v78h102v-79q79 -17 149 -94l-78 -87q-24 26 -57.5 43t-63.5 17q-54 0 -84.5 -39t-30.5 -92q0 -59 34 -93.5t82 -34.5q59 0 110 50 z"/>
<glyph glyph-name="sterling" horiz-adv-x="646" unicode="£" d="M469 671l-40 -107q-54 22 -96 22q-22 0 -37 -12.5t-15 -40.5v-33h93v-117h-93v-217q15 -3 55.5 -23.5t66.5 -20.5q19 0 46.5 17t49.5 51l87 -63q-35 -64 -84.5 -96.5t-99.5 -32.5q-36 0 -96 28.5t-87 28.5q-41 0 -88 -62l-88 58q44 78 102 110v222h-52v117h52v37 q0 83 50.5 126.5t129.5 43.5q71 0 144 -36z"/>
<glyph glyph-name="currency" horiz-adv-x="664" unicode="¤" d="M332 206q25 0 41 16.5t20 32.5t4 30q0 10 -2.5 21.5t-8.5 25.5t-20 23.5t-34 9.5q-37 0 -51 -27t-14 -53q0 -15 3.5 -30.5t19.5 -32t42 -16.5zM332 495q60 0 105 -26l92 96l75 -76l-95 -95q26 -48 26 -109q0 -57 -20 -101l89 -89l-75 -74l-84 84q-51 -30 -113 -30 q-65 0 -113 29l-84 -83l-75 75l91 88q-22 44 -22 101q0 61 25 110l-93 94l75 76l93 -94q46 24 103 24z"/>
<glyph glyph-name="yen" horiz-adv-x="676" unicode="¥" d="M512 57h-104v-57h-141v57h-105v101h105v62h-105v103h97l-229 377h155l152 -254l153 254h156l-232 -377h98v-103h-104v-62h104v-101z"/>
<glyph glyph-name="brokenbar" horiz-adv-x="222" unicode="¦" d="M162 774v-386h-102v386h102zM162 188v-387h-102v387h102z"/>
<glyph glyph-name="section" horiz-adv-x="603" unicode="§" d="M231 285q0 -20 14.5 -38.5t29.5 -28t43 -24t36 -19.5q27 30 29 55q0 20 -21 37t-61.5 37t-46.5 24q-23 -21 -23 -43zM80 -109l74 94q90 -66 146 -66q28 0 49.5 15t21.5 41q0 47 -111 102h1q-71 31 -116 82t-45 118q0 72 58 125q-51 63 -51 125q0 68 53 124t151 56 q97 0 203 -77l-70 -102q-82 49 -128 52q-35 0 -53.5 -14.5t-20.5 -34.5q1 -22 25.5 -45t62.5 -41q193 -93 193 -209q0 -71 -64 -130q55 -64 55 -134q0 -80 -58.5 -130.5t-142.5 -50.5q-123 0 -233 100z"/>
<glyph glyph-name="dieresis" horiz-adv-x="582" unicode="¨" d="M328 667q0 32 22 54.5t55 22.5q32 0 54 -22.5t22 -54.5q0 -33 -22 -54.5t-54 -21.5q-33 0 -55 21.5t-22 54.5zM99 667q0 32 22 54.5t55 22.5q32 0 54 -22.5t22 -54.5q0 -33 -22 -54.5t-54 -21.5q-33 0 -55 21.5t-22 54.5z"/>
<glyph glyph-name="copyright" horiz-adv-x="586" unicode="©" d="M293 272q76 0 128 52t52 128t-52 128.5t-128 52.5t-128.5 -52.5t-52.5 -128.5t52.5 -128t128.5 -52zM293 705q105 0 179 -74t74 -179t-74 -179t-179 -74q-100 0 -176.5 74t-76.5 181q0 99 74 175t179 76zM235 450q0 -32 18 -51t44 -19q37 0 67 31l45 -46 q-51 -59 -112 -59q-73 0 -108.5 45t-35.5 99q0 23 8 46.5t23.5 46t45 36.5t67.5 14q63 0 112 -59l-46 -48q-30 34 -66 34q-26 0 -44 -19.5t-18 -50.5z"/>
<glyph glyph-name="ordfeminine" horiz-adv-x="402" unicode="ª" d="M241 441v40q-29 8 -46 8q-60 0 -60 -43q0 -16 13 -25t31 -9q43 0 62 29zM187 708q3 0 9 0.5t9 0.5q37 0 63 -9.5t40 -24t22 -37t10 -41.5t2 -46v-219h-70l-7 24q-34 -29 -88 -31h-12q-37 0 -63.5 12t-39 31t-17.5 37t-5 36q0 123 158 123q17 0 43 -6q0 37 -11.5 49 t-37.5 12q-39 0 -99 -26l-33 76q68 36 127 39z"/>
<glyph glyph-name="guillemotleft" horiz-adv-x="553" unicode="«" d="M409 256l114 -143l-73 -64l-187 200v13l187 199l73 -64zM176 256l114 -143l-73 -64l-187 200v13l187 199l73 -64z"/>
<glyph glyph-name="logicalnot" horiz-adv-x="627" unicode="¬" d="M547 420v-334h-221v127h-246v207h467z"/>
<glyph glyph-name="uni00AD" horiz-adv-x="400" unicode="­" d="M61 266h282v-116h-282v116z"/>
<glyph glyph-name="registered" horiz-adv-x="586" unicode="®" d="M293 272q76 0 128 52t52 128t-52 128.5t-128 52.5t-128.5 -52.5t-52.5 -128.5t52.5 -128t128.5 -52zM293 705q105 0 179 -74t74 -179t-74 -179t-179 -74q-100 0 -176.5 74t-76.5 181q0 99 74 175t179 76zM268 471h35q22 1 22 22q0 8 -5.5 15.5t-18.5 7.5h-33v-45z M268 404v-73h-68v250h100q49 0 71.5 -27.5t22.5 -60.5q0 -20 -12 -40.5t-29 -32.5l50 -89h-80l-39 73h-16z"/>
<glyph glyph-name="macron" horiz-adv-x="516" unicode="¯" d="M113 694h301v-97h-301v97z"/>
<glyph glyph-name="degree" horiz-adv-x="330" unicode="°" d="M165 522q21 0 36 15t15 38q0 22 -15 36.5t-36 14.5q-22 0 -38 -15.5t-16 -35.5q0 -23 16 -38t38 -15zM165 440q-56 0 -95.5 39.5t-39.5 95.5t39.5 95.5t95.5 39.5t95.5 -38.5t39.5 -96.5q0 -56 -39.5 -95.5t-95.5 -39.5z"/>
<glyph glyph-name="plusminus" horiz-adv-x="553" unicode="±" d="M222 182v100h-142v113h142v142h114v-142h142v-113h-142v-100h-114zM80 115h393v-104h-393v104z"/>
<glyph glyph-name="twosuperior" horiz-adv-x="305" unicode="²" d="M84 685l-54 52q56 68 126 68q51 0 80 -28.5t29 -75.5q0 -39 -40 -94l-41 -57h76v-78h-222l-3 8l123 177q18 26 18 43q0 8 -6.5 15.5t-17.5 7.5q-26 0 -68 -38z"/>
<glyph glyph-name="threesuperior" horiz-adv-x="282" unicode="³" d="M252 700q0 -40 -31 -66q31 -24 31 -64q0 -37 -27 -70.5t-89 -33.5q-63 0 -116 49l49 54q27 -26 67 -26q14 0 24.5 7.5t10.5 19.5q0 15 -10 23t-25 8h-55v67h55q14 0 24.5 8.5t10.5 23.5q0 12 -10.5 19.5t-24.5 7.5q-34 0 -67 -28l-47 54q51 51 114 51q62 0 89 -33t27 -71 z"/>
<glyph glyph-name="acute" horiz-adv-x="510" unicode="´" d="M141 661l161 125l65 -91l-174 -108z"/>
<glyph glyph-name="mu" horiz-adv-x="605" unicode="µ" d="M80 -198v698h138v-258q0 -129 82 -129q59 0 90 43v344h135v-500h-92l-12 36q-54 -44 -122 -44h-4q-51 1 -77 27v-217h-138z"/>
<glyph glyph-name="mu" horiz-adv-x="605" unicode="μ" d="M80 -198v698h138v-258q0 -129 82 -129q59 0 90 43v344h135v-500h-92l-12 36q-54 -44 -122 -44h-4q-51 1 -77 27v-217h-138z"/>
<glyph glyph-name="paragraph" horiz-adv-x="734" unicode="¶" d="M40 491q0 28 6 55t20.5 55.5t37 50.5t59 35.5t81.5 13.5h410v-108h-67v-792h-130v792h-88v-792h-130v480q-54 1 -95 21.5t-62.5 53t-31.5 66.5t-10 69z"/>
<glyph glyph-name="periodcentered" horiz-adv-x="284" unicode="·" d="M60 299q0 35 23 58t58 23t59 -23t24 -58t-24 -59t-59 -24t-58 24t-23 59z"/>
<glyph glyph-name="cedilla" horiz-adv-x="554" unicode="¸" d="M326 -86h-26l-12 13v96h82v-51q49 -1 72.5 -30.5t23.5 -60.5q0 -53 -34 -81t-83 -28q-60 0 -106 27l30 66q34 -17 66 -17q14 0 25.5 11t11.5 24q0 31 -50 31z"/>
<glyph glyph-name="onesuperior" horiz-adv-x="228" unicode="¹" d="M183 799v-327h-88v208l-41 -22l-34 56l119 85h44z"/>
<glyph glyph-name="ordmasculine" horiz-adv-x="378" unicode="º" d="M59 322h259v-105h-259v105zM189 501q25 0 34 16.5t9 33.5q0 9 -2.5 18.5t-13 20t-27.5 10.5q-25 0 -34 -16.5t-9 -32.5q0 -9 2.5 -19t13 -20.5t27.5 -10.5zM189 706q54 0 89 -26.5t47.5 -59.5t12.5 -69q0 -27 -7.5 -52t-23.5 -49.5t-46.5 -39t-71.5 -14.5t-71.5 14.5 t-46.5 39t-23.5 49.5t-7.5 52q0 36 12.5 69t47.5 59.5t89 26.5z"/>
<glyph glyph-name="guillemotright" horiz-adv-x="553" unicode="»" d="M30 113l114 143l-114 141l73 64l187 -199v-13l-187 -200zM263 113l114 143l-114 141l73 64l187 -199v-13l-187 -200z"/>
<glyph glyph-name="onequarter" horiz-adv-x="592" unicode="¼" d="M427 183l-42 -61h42v61zM510 48v-47h-83v47h-132v66l147 215h68v-207h46v-74h-46zM183 703v-327h-88v208l-41 -22l-34 56l119 85h44zM512 700l-349 -700h-102l350 700h101z"/>
<glyph glyph-name="onehalf" horiz-adv-x="639" unicode="½" d="M416 213l-54 52q56 68 126 68q50 0 79.5 -30.5t29.5 -73.5q0 -40 -40 -94l-43 -57h78v-78h-225v20l123 165q18 24 18 43q0 8 -6.5 15.5t-17.5 7.5q-26 0 -68 -38zM183 703v-327h-88v208l-41 -22l-34 56l119 85h44zM512 700l-349 -700h-102l350 700h101z"/>
<glyph glyph-name="threequarters" horiz-adv-x="633" unicode="¾" d="M252 603q0 -40 -31 -66q31 -24 31 -64q0 -37 -27 -70.5t-89 -33.5q-63 0 -116 49l49 54q27 -26 67 -26q14 0 24.5 7.5t10.5 19.5q0 15 -10 23t-25 8h-55v67h55q14 0 24.5 8.5t10.5 23.5q0 12 -10.5 19.5t-24.5 7.5q-34 0 -67 -28l-47 54q51 51 114 51q62 0 89 -33t27 -71 zM464 183l-42 -61h42v61zM547 48v-47h-83v47h-132v66l147 215h68v-207h46v-74h-46zM549 700l-349 -700h-102l350 700h101z"/>
<glyph glyph-name="questiondown" horiz-adv-x="571" unicode="¿" d="M358 429q0 -33 -22.5 -55t-55.5 -22t-55.5 22t-22.5 55t23 55.5t55 22.5q34 0 56 -21.5t22 -56.5zM216 209v71h127v-74q0 -28 -10.5 -54t-22 -40.5t-33.5 -40.5q-20 -22 -29.5 -35t-20 -35.5t-10.5 -43.5q0 -20 12.5 -37t46.5 -17h6q28 1 55.5 19.5t68.5 59.5l85 -81 q-59 -64 -110 -92.5t-116 -28.5q-82 0 -133.5 46.5t-51.5 129.5q0 35 16 72t32 58.5t43 52.5q45 53 45 70z"/>
<glyph glyph-name="Agrave" d="M314 986l161 -125l-52 -74l-174 108zM362 418l-57 -137h114zM30 -1l323 709h18l323 -709h-157l-69 165h-212l-68 -165h-158z" unicode="À"/>
<glyph glyph-name="Aacute" d="M249 861l161 125l65 -91l-174 -108zM362 418l-57 -137h114zM30 -1l323 709h18l323 -709h-157l-69 165h-212l-68 -165h-158z" unicode="Á"/>
<glyph glyph-name="Acircumflex" d="M201 860l161 125l161 -125l-52 -74l-109 67l-109 -67zM362 418l-57 -137h114zM30 -1l323 709h18l323 -709h-157l-69 165h-212l-68 -165h-158z" unicode="Â"/>
<glyph glyph-name="Atilde" d="M457 948l82 -43q-46 -102 -133 -102q-23 0 -50.5 17t-43.5 17q-32 0 -50 -39l-78 36q18 59 53.5 83t75.5 24q27 0 55.5 -16t39.5 -16h2q25 0 47 39zM362 418l-57 -137h114zM30 -1l323 709h18l323 -709h-157l-69 165h-212l-68 -165h-158z" unicode="Ã"/>
<glyph glyph-name="Adieresis" d="M400 867q0 32 22 54.5t55 22.5q32 0 54 -22.5t22 -54.5q0 -33 -22 -54.5t-54 -21.5q-33 0 -55 21.5t-22 54.5zM171 867q0 32 22 54.5t55 22.5q32 0 54 -22.5t22 -54.5q0 -33 -22 -54.5t-54 -21.5q-33 0 -55 21.5t-22 54.5zM362 419l-57 -137h114zM30 0l327 709h10 l327 -709h-157l-69 165h-212l-68 -165h-158z" unicode="Ä"/>
<glyph glyph-name="Aring" d="M332 888q0 -11 9 -20t21 -9q11 0 20 9t9 20q0 12 -9 21t-20 9q-12 0 -21 -9t-9 -21zM260 888q0 42 30 72t72 30t71.5 -30t29.5 -72t-29.5 -71.5t-71.5 -29.5t-72 29.5t-30 71.5zM362 418l-57 -137h114zM30 -1l323 709h18l323 -709h-157l-69 165h-212l-68 -165h-158z" unicode="Å"/>
<glyph glyph-name="AE" horiz-adv-x="898" unicode="Æ" d="M362 418l-57 -137h57v137zM765 280h-262v-150h335v-130h-476v164h-106l-68 -165h-158l319 701h489v-130h-335v-160h262v-130z"/>
<glyph glyph-name="Ccedilla" horiz-adv-x="741" unicode="Ç" d="M394 -86h-26l-12 13v67q-81 9 -141 46t-92.5 90.5t-47.5 108.5t-15 112q0 47 10 93.5t36 95.5t64 86t99.5 60.5t138.5 23.5q157 0 273 -131l-93 -90q-29 36 -81 62.5t-99 26.5q-51 0 -90 -18.5t-59.5 -44.5t-34 -60t-17 -58.5t-3.5 -45.5t4 -45.5t17 -58t34 -59.5 t60 -44.5t90 -18.5q48 0 99 23.5t89 57.5l80 -97q-106 -106 -239 -116v-21q49 -1 72.5 -30.5t23.5 -60.5q0 -53 -34 -81t-83 -28q-60 0 -106 27l30 66q34 -17 66 -17q14 0 25.5 11t11.5 24q0 31 -50 31z"/>
<glyph glyph-name="Egrave" horiz-adv-x="636" unicode="È" d="M270 986l161 -125l-52 -74l-174 108zM503 280h-262v-150h335v-130h-476v700h476v-130h-335v-160h262v-130z"/>
<glyph glyph-name="Eacute" horiz-adv-x="636" unicode="É" d="M205 861l161 125l65 -91l-174 -108zM503 280h-262v-150h335v-130h-476v700h476v-130h-335v-160h262v-130z"/>
<glyph glyph-name="Ecircumflex" horiz-adv-x="636" unicode="Ê" d="M157 860l161 125l161 -125l-52 -74l-109 67l-109 -67zM503 280h-262v-150h335v-130h-476v700h476v-130h-335v-160h262v-130z"/>
<glyph glyph-name="Edieresis" horiz-adv-x="636" unicode="Ë" d="M356 867q0 32 22 54.5t55 22.5q32 0 54 -22.5t22 -54.5q0 -33 -22 -54.5t-54 -21.5q-33 0 -55 21.5t-22 54.5zM127 867q0 32 22 54.5t55 22.5q32 0 54 -22.5t22 -54.5q0 -33 -22 -54.5t-54 -21.5q-33 0 -55 21.5t-22 54.5zM503 280h-262v-150h335v-130h-476v700h476v-130 h-335v-160h262v-130z"/>
<glyph glyph-name="Igrave" horiz-adv-x="266" unicode="Ì" d="M85 986l161 -125l-52 -74l-174 108zM204 700v-700h-142v700h142z"/>
<glyph glyph-name="Iacute" horiz-adv-x="266" unicode="Í" d="M20 861l161 125l65 -91l-174 -108zM204 700v-700h-142v700h142z"/>
<glyph glyph-name="Icircumflex" horiz-adv-x="322" unicode="Î" d="M0 860l161 125l161 -125l-52 -74l-109 67l-109 -67zM232 700v-700h-142v700h142z"/>
<glyph glyph-name="Idieresis" horiz-adv-x="398" unicode="Ï" d="M245 862q0 32 22 54.5t55 22.5q32 0 54 -22.5t22 -54.5q0 -33 -22 -54.5t-54 -21.5q-33 0 -55 21.5t-22 54.5zM0 862q0 32 22 54.5t55 22.5q32 0 54 -22.5t22 -54.5q0 -33 -22 -54.5t-54 -21.5q-33 0 -55 21.5t-22 54.5zM270 700v-700h-142v700h142z"/>
<glyph glyph-name="Eth" horiz-adv-x="755" unicode="Ð" d="M240 130h109q62 0 105.5 25.5t63 65t27 71t7.5 59.5t-7.5 59.5t-27 70.5t-63 64.5t-105.5 25.5h-109v-161h136v-115h-136v-165zM29 410h71v290h249q76 0 137.5 -22.5t99.5 -58t63.5 -83t35.5 -93t10 -92.5q0 -48 -10 -94.5t-35.5 -93.5t-63.5 -82.5t-99 -58t-138 -22.5 h-249v295h-71v115z"/>
<glyph glyph-name="Ntilde" horiz-adv-x="776" unicode="Ñ" d="M483 935l82 -43q-46 -102 -133 -102q-23 0 -50.5 17t-43.5 17q-32 0 -50 -39l-78 36q18 59 53.5 83t75.5 24q27 0 55.5 -16t39.5 -16h2q25 0 47 39zM100 702l9 4l425 -403v397h142v-701l-9 -5l-425 407v-401h-142v702z"/>
<glyph glyph-name="Ograve" horiz-adv-x="814" unicode="Ò" d="M359 986l161 -125l-52 -74l-174 108zM408 120q50 0 88.5 19t59 45.5t33.5 61t17 59.5t4 46t-4 46t-17 59t-33.5 60.5t-59 45t-88.5 18.5q-51 0 -90 -18.5t-59.5 -45t-34 -60.5t-17 -59t-3.5 -46t3.5 -46t17 -59.5t34 -61t59.5 -45.5t90 -19zM408 712q76 0 137.5 -24 t99.5 -61t63.5 -86t35.5 -96t10 -94q0 -48 -10 -95.5t-35.5 -96.5t-63.5 -86t-99.5 -60.5t-137.5 -23.5q-77 0 -138.5 23.5t-99.5 60.5t-64 86t-36 96.5t-10 95.5q0 47 10 94t36 96t64 86t99.5 61t138.5 24z"/>
<glyph glyph-name="Oacute" horiz-adv-x="814" unicode="Ó" d="M294 861l161 125l65 -91l-174 -108zM408 120q50 0 88.5 19t59 45.5t33.5 61t17 59.5t4 46t-4 46t-17 59t-33.5 60.5t-59 45t-88.5 18.5q-51 0 -90 -18.5t-59.5 -45t-34 -60.5t-17 -59t-3.5 -46t3.5 -46t17 -59.5t34 -61t59.5 -45.5t90 -19zM408 712q76 0 137.5 -24 t99.5 -61t63.5 -86t35.5 -96t10 -94q0 -48 -10 -95.5t-35.5 -96.5t-63.5 -86t-99.5 -60.5t-137.5 -23.5q-77 0 -138.5 23.5t-99.5 60.5t-64 86t-36 96.5t-10 95.5q0 47 10 94t36 96t64 86t99.5 61t138.5 24z"/>
<glyph glyph-name="Ocircumflex" horiz-adv-x="814" unicode="Ô" d="M246 863l161 125l161 -125l-52 -74l-109 67l-109 -67zM408 120q50 0 88.5 19t59 45.5t33.5 61t17 59.5t4 46t-4 46t-17 59t-33.5 60.5t-59 45t-88.5 18.5q-51 0 -90 -18.5t-59.5 -45t-34 -60.5t-17 -59t-3.5 -46t3.5 -46t17 -59.5t34 -61t59.5 -45.5t90 -19zM408 712 q76 0 137.5 -24t99.5 -61t63.5 -86t35.5 -96t10 -94q0 -48 -10 -95.5t-35.5 -96.5t-63.5 -86t-99.5 -60.5t-137.5 -23.5q-77 0 -138.5 23.5t-99.5 60.5t-64 86t-36 96.5t-10 95.5q0 47 10 94t36 96t64 86t99.5 61t138.5 24z"/>
<glyph glyph-name="Otilde" horiz-adv-x="814" unicode="Õ" d="M502 935l82 -43q-46 -102 -133 -102q-23 0 -50.5 17t-43.5 17q-32 0 -50 -39l-78 36q18 59 53.5 83t75.5 24q27 0 55.5 -16t39.5 -16h2q25 0 47 39zM408 120q50 0 88.5 19t59 45.5t33.5 61t17 59.5t4 46t-4 46t-17 59t-33.5 60.5t-59 45t-88.5 18.5q-51 0 -90 -18.5 t-59.5 -45t-34 -60.5t-17 -59t-3.5 -46t3.5 -46t17 -59.5t34 -61t59.5 -45.5t90 -19zM408 712q76 0 137.5 -24t99.5 -61t63.5 -86t35.5 -96t10 -94q0 -48 -10 -95.5t-35.5 -96.5t-63.5 -86t-99.5 -60.5t-137.5 -23.5q-77 0 -138.5 23.5t-99.5 60.5t-64 86t-36 96.5t-10 95.5 q0 47 10 94t36 96t64 86t99.5 61t138.5 24z"/>
<glyph glyph-name="Odieresis" horiz-adv-x="814" unicode="Ö" d="M445 867q0 32 22 54.5t55 22.5q32 0 54 -22.5t22 -54.5q0 -33 -22 -54.5t-54 -21.5q-33 0 -55 21.5t-22 54.5zM216 867q0 32 22 54.5t55 22.5q32 0 54 -22.5t22 -54.5q0 -33 -22 -54.5t-54 -21.5q-33 0 -55 21.5t-22 54.5zM408 120q50 0 88.5 19t59 45.5t33.5 61t17 59.5 t4 46t-4 46t-17 59t-33.5 60.5t-59 45t-88.5 18.5q-51 0 -90 -18.5t-59.5 -45t-34 -60.5t-17 -59t-3.5 -46t3.5 -46t17 -59.5t34 -61t59.5 -45.5t90 -19zM408 712q76 0 137.5 -24t99.5 -61t63.5 -86t35.5 -96t10 -94q0 -48 -10 -95.5t-35.5 -96.5t-63.5 -86t-99.5 -60.5 t-137.5 -23.5q-77 0 -138.5 23.5t-99.5 60.5t-64 86t-36 96.5t-10 95.5q0 47 10 94t36 96t64 86t99.5 61t138.5 24z"/>
<glyph glyph-name="multiply" horiz-adv-x="562" unicode="×" d="M381 21l-100 100l-101 -100l-80 80l101 100l-101 101l81 80l100 -100l101 100l80 -80l-101 -100l101 -101z"/>
<glyph glyph-name="Oslash" horiz-adv-x="814" unicode="Ø" d="M204 351q0 -67 28 -125l276 329q-43 25 -100 25q-51 0 -90 -18.5t-59.5 -45t-34 -60.5t-17 -59t-3.5 -46zM408 120q50 0 88.5 19t59 45.5t33.5 61t17 59.5t4 46q0 70 -32 129l-278 -332q44 -28 108 -28zM408 712q108 0 190 -50l51 60l78 -65l-53 -63q80 -101 80 -243 q0 -48 -10 -95.5t-35.5 -96.5t-63.5 -86t-99.5 -60.5t-137.5 -23.5q-118 0 -198 53l-57 -68l-78 65l61 72q-76 99 -76 240q0 47 10 94t36 96t64 86t99.5 61t138.5 24z"/>
<glyph glyph-name="Ugrave" horiz-adv-x="736" unicode="Ù" d="M320 986l161 -125l-52 -74l-174 108zM368 122q38 0 66.5 17t42 43t20 49t6.5 41v428h143v-428q0 -47 -15 -93.5t-46 -89.5t-87.5 -69.5t-129.5 -26.5t-129.5 26.5t-87.5 69.5t-46 89.5t-15 93.5v428h142v-428q0 -18 6.5 -41t20.5 -49t42.5 -43t66.5 -17z"/>
<glyph glyph-name="Uacute" horiz-adv-x="736" unicode="Ú" d="M255 861l161 125l65 -91l-174 -108zM368 122q38 0 66.5 17t42 43t20 49t6.5 41v428h143v-428q0 -47 -15 -93.5t-46 -89.5t-87.5 -69.5t-129.5 -26.5t-129.5 26.5t-87.5 69.5t-46 89.5t-15 93.5v428h142v-428q0 -18 6.5 -41t20.5 -49t42.5 -43t66.5 -17z"/>
<glyph glyph-name="Ucircumflex" horiz-adv-x="736" unicode="Û" d="M207 863l161 125l161 -125l-52 -74l-109 67l-109 -67zM368 122q38 0 66.5 17t42 43t20 49t6.5 41v428h143v-428q0 -47 -15 -93.5t-46 -89.5t-87.5 -69.5t-129.5 -26.5t-129.5 26.5t-87.5 69.5t-46 89.5t-15 93.5v428h142v-428q0 -18 6.5 -41t20.5 -49t42.5 -43t66.5 -17z "/>
<glyph glyph-name="Udieresis" horiz-adv-x="736" unicode="Ü" d="M406 867q0 32 22 54.5t55 22.5q32 0 54 -22.5t22 -54.5q0 -33 -22 -54.5t-54 -21.5q-33 0 -55 21.5t-22 54.5zM177 867q0 32 22 54.5t55 22.5q32 0 54 -22.5t22 -54.5q0 -33 -22 -54.5t-54 -21.5q-33 0 -55 21.5t-22 54.5zM368 122q38 0 66.5 17t42 43t20 49t6.5 41v428 h143v-428q0 -47 -15 -93.5t-46 -89.5t-87.5 -69.5t-129.5 -26.5t-129.5 26.5t-87.5 69.5t-46 89.5t-15 93.5v428h142v-428q0 -18 6.5 -41t20.5 -49t42.5 -43t66.5 -17z"/>
<glyph glyph-name="Yacute" horiz-adv-x="665" unicode="Ý" d="M219 861l161 125l65 -91l-174 -108zM403 313v-313h-141v311l-238 389h156l152 -254l152 254h157z"/>
<glyph glyph-name="Thorn" horiz-adv-x="655" unicode="Þ" d="M239 488v-281h93q36 0 63 15.5t39 39.5t17.5 45t5.5 40t-5.5 40.5t-18 45.5t-39 39.5t-62.5 15.5h-93zM340 83h-101v-83h-139v700h139v-89h101q70 0 122 -25.5t79.5 -67t40.5 -84.5t13 -87t-13 -87t-40.5 -84.5t-79.5 -67t-122 -25.5z"/>
<glyph glyph-name="germandbls" horiz-adv-x="665" unicode="ß" d="M306 105q64 0 90.5 25.5t26.5 61.5q-2 20 -17 42t-31.5 38t-30.5 39t-14 47q0 26 19.5 51.5t39 50t19.5 48.5q0 5 -0.5 10t-4.5 18t-11.5 22t-24.5 16.5t-40 7.5q-32 0 -59 -18.5t-28 -66.5v-539h-140v537q0 44 11.5 79t28.5 56.5t41.5 38t44.5 23.5t42.5 11.5t32 5 t16.5 0.5q52 0 93 -14.5t65 -36.5t39.5 -50t21 -52t5.5 -47q0 -39 -13 -68t-30.5 -49.5t-20.5 -27.5q1 -14 23 -36.5t43.5 -57.5t21.5 -82q0 -90 -66 -144t-193 -54v115z"/>
<glyph glyph-name="agrave" horiz-adv-x="548" unicode="à" d="M226 786l161 -125l-52 -74l-174 108zM332 147v54q-41 11 -62 11q-81 0 -81 -58q0 -22 17 -34t42 -12q26 0 50 12t34 27zM258 508q5 0 13 0.5t12 0.5q49 0 84.5 -13t54.5 -32t30 -49.5t13.5 -56.5t2.5 -62v-296h-94l-10 32q-46 -39 -119 -42h-15q-50 0 -86 16t-53 42 t-24 50t-7 49q0 166 214 166q26 0 58 -7q0 49 -15.5 65.5t-51.5 16.5q-53 0 -134 -35l-44 103q90 47 171 52z"/>
<glyph glyph-name="aacute" horiz-adv-x="548" unicode="á" d="M161 661l161 125l65 -91l-174 -108zM332 147v54q-41 11 -62 11q-81 0 -81 -58q0 -22 17 -34t42 -12q26 0 50 12t34 27zM258 508q5 0 13 0.5t12 0.5q49 0 84.5 -13t54.5 -32t30 -49.5t13.5 -56.5t2.5 -62v-296h-94l-10 32q-46 -39 -119 -42h-15q-50 0 -86 16t-53 42 t-24 50t-7 49q0 166 214 166q26 0 58 -7q0 49 -15.5 65.5t-51.5 16.5q-53 0 -134 -35l-44 103q90 47 171 52z"/>
<glyph glyph-name="acircumflex" horiz-adv-x="548" unicode="â" d="M113 660l161 125l161 -125l-52 -74l-109 67l-109 -67zM332 147v54q-41 11 -62 11q-81 0 -81 -58q0 -22 17 -34t42 -12q26 0 50 12t34 27zM258 508q5 0 13 0.5t12 0.5q49 0 84.5 -13t54.5 -32t30 -49.5t13.5 -56.5t2.5 -62v-296h-94l-10 32q-46 -39 -119 -42h-15 q-50 0 -86 16t-53 42t-24 50t-7 49q0 166 214 166q26 0 58 -7q0 49 -15.5 65.5t-51.5 16.5q-53 0 -134 -35l-44 103q90 47 171 52z"/>
<glyph glyph-name="atilde" horiz-adv-x="548" unicode="ã" d="M369 748l82 -43q-46 -102 -133 -102q-23 0 -50.5 17t-43.5 17q-32 0 -50 -39l-78 36q18 59 53.5 83t75.5 24q27 0 55.5 -16t39.5 -16h2q25 0 47 39zM332 147v54q-41 11 -62 11q-81 0 -81 -58q0 -22 17 -34t42 -12q26 0 50 12t34 27zM258 508q5 0 13 0.5t12 0.5 q49 0 84.5 -13t54.5 -32t30 -49.5t13.5 -56.5t2.5 -62v-296h-94l-10 32q-46 -39 -119 -42h-15q-50 0 -86 16t-53 42t-24 50t-7 49q0 166 214 166q26 0 58 -7q0 49 -15.5 65.5t-51.5 16.5q-53 0 -134 -35l-44 103q90 47 171 52z"/>
<glyph glyph-name="adieresis" horiz-adv-x="548" unicode="ä" d="M312 667q0 32 22 54.5t55 22.5q32 0 54 -22.5t22 -54.5q0 -33 -22 -54.5t-54 -21.5q-33 0 -55 21.5t-22 54.5zM83 667q0 32 22 54.5t55 22.5q32 0 54 -22.5t22 -54.5q0 -33 -22 -54.5t-54 -21.5q-33 0 -55 21.5t-22 54.5zM332 147v54q-41 11 -62 11q-81 0 -81 -58 q0 -22 17 -34t42 -12q26 0 50 12t34 27zM87 456q103 53 196 53q49 0 84.5 -13t54.5 -32t30 -49.5t13.5 -56.5t2.5 -62v-296h-94l-10 32q-46 -39 -119 -42h-15q-50 0 -86 16t-53 42t-24 50t-7 49q0 166 214 166q26 0 58 -7q0 49 -15.5 65.5t-51.5 16.5q-53 0 -134 -35z"/>
<glyph glyph-name="aring" horiz-adv-x="548" unicode="å" d="M244 688q0 -11 9 -20t21 -9q11 0 20 9t9 20q0 12 -9 21t-20 9q-12 0 -21 -9t-9 -21zM172 688q0 42 30 72t72 30t71.5 -30t29.5 -72t-29.5 -71.5t-71.5 -29.5t-72 29.5t-30 71.5zM332 147v54q-41 11 -62 11q-81 0 -81 -58q0 -22 17 -34t42 -12q26 0 50 12t34 27zM258 508 q5 0 13 0.5t12 0.5q49 0 84.5 -13t54.5 -32t30 -49.5t13.5 -56.5t2.5 -62v-296h-94l-10 32q-46 -39 -119 -42h-15q-50 0 -86 16t-53 42t-24 50t-7 49q0 166 214 166q26 0 58 -7q0 49 -15.5 65.5t-51.5 16.5q-53 0 -134 -35l-44 103q90 47 171 52z"/>
<glyph glyph-name="ae" horiz-adv-x="816" unicode="æ" d="M564 386q-80 0 -106 -79h179q-2 78 -73 79zM332 147q-10 28 -15 58q-33 7 -47 7q-81 0 -81 -58q0 -22 17 -34t42 -12q26 0 50 12t34 27zM767 227h-313q6 -47 35 -78.5t75 -31.5q66 0 125 45l66 -91q-92 -77 -191 -77q-105 0 -170 58q-60 -56 -149 -62h-15q-50 0 -86 16 t-53 42t-24 50t-7 49q0 166 214 166q17 0 45 -4q8 27 10 35q-6 25 -21 34.5t-43 9.5q-53 0 -134 -35l-44 103q90 47 171 52q5 0 13 0.5t12 0.5q91 0 135 -42q62 40 146 40q98 0 152.5 -58t54.5 -157q0 -21 -4 -65z"/>
<glyph glyph-name="ccedilla" horiz-adv-x="577" unicode="ç" d="M290 -86h-26l-12 13v72q-68 13 -113.5 56.5t-62 92t-16.5 100.5q0 46 11.5 88t38 82.5t78 65t122.5 24.5q109 0 199 -99l-78 -87q-24 26 -57.5 43t-63.5 17q-54 0 -84.5 -39t-30.5 -92q0 -59 34 -93.5t82 -34.5q59 0 110 50l79 -95q-74 -76 -166 -84v-22 q49 -1 72.5 -30.5t23.5 -60.5q0 -53 -34 -81t-83 -28q-60 0 -106 27l30 66q34 -17 66 -17q14 0 25.5 11t11.5 24q0 31 -50 31z"/>
<glyph glyph-name="egrave" horiz-adv-x="547" unicode="è" d="M225 786l161 -125l-52 -74l-174 108zM295 386q-80 0 -106 -79h179q-2 78 -73 79zM498 227h-313q6 -47 35 -78.5t75 -31.5q66 0 125 45l66 -91q-92 -77 -191 -77q-68 0 -119 24.5t-78 64t-40 82t-13 86.5q0 43 13 85t40 82t78 64.5t119 24.5q98 0 152.5 -58t54.5 -157 q0 -21 -4 -65z"/>
<glyph glyph-name="eacute" horiz-adv-x="547" unicode="é" d="M184 661l161 125l65 -91l-174 -108zM295 386q-80 0 -106 -79h179q-2 78 -73 79zM498 227h-313q6 -47 35 -78.5t75 -31.5q66 0 125 45l66 -91q-92 -77 -191 -77q-68 0 -119 24.5t-78 64t-40 82t-13 86.5q0 43 13 85t40 82t78 64.5t119 24.5q98 0 152.5 -58t54.5 -157 q0 -21 -4 -65z"/>
<glyph glyph-name="ecircumflex" horiz-adv-x="547" unicode="ê" d="M112 660l161 125l161 -125l-52 -74l-109 67l-109 -67zM295 386q-80 0 -106 -79h179q-2 78 -73 79zM498 227h-313q6 -47 35 -78.5t75 -31.5q66 0 125 45l66 -91q-92 -77 -191 -77q-68 0 -119 24.5t-78 64t-40 82t-13 86.5q0 43 13 85t40 82t78 64.5t119 24.5 q98 0 152.5 -58t54.5 -157q0 -21 -4 -65z"/>
<glyph glyph-name="edieresis" horiz-adv-x="547" unicode="ë" d="M312 667q0 32 22 54.5t55 22.5q32 0 54 -22.5t22 -54.5q0 -33 -22 -54.5t-54 -21.5q-33 0 -55 21.5t-22 54.5zM83 667q0 32 22 54.5t55 22.5q32 0 54 -22.5t22 -54.5q0 -33 -22 -54.5t-54 -21.5q-33 0 -55 21.5t-22 54.5zM295 386q-80 0 -106 -79h179q-2 78 -73 79z M498 227h-313q6 -47 35 -78.5t75 -31.5q66 0 125 45l66 -91q-92 -77 -191 -77q-68 0 -119 24.5t-78 64t-40 82t-13 86.5q0 43 13 85t40 82t78 64.5t119 24.5q98 0 152.5 -58t54.5 -157q0 -21 -4 -65z"/>
<glyph glyph-name="igrave" horiz-adv-x="266" unicode="ì" d="M85 786l161 -125l-52 -74l-174 108zM201 500v-500h-136v500h136z"/>
<glyph glyph-name="iacute" horiz-adv-x="266" unicode="í" d="M20 661l161 125l65 -91l-174 -108zM201 500v-500h-136v500h136z"/>
<glyph glyph-name="icircumflex" horiz-adv-x="322" unicode="î" d="M0 663l161 125l161 -125l-52 -74l-109 67l-109 -67zM229 500v-500h-136v500h136z"/>
<glyph glyph-name="idieresis" horiz-adv-x="382" unicode="ï" d="M229 667q0 32 22 54.5t55 22.5q32 0 54 -22.5t22 -54.5q0 -33 -22 -54.5t-54 -21.5q-33 0 -55 21.5t-22 54.5zM0 667q0 32 22 54.5t55 22.5q32 0 54 -22.5t22 -54.5q0 -33 -22 -54.5t-54 -21.5q-33 0 -55 21.5t-22 54.5zM259 500v-500h-136v500h136z"/>
<glyph glyph-name="eth" horiz-adv-x="584" unicode="ð" d="M292 118q48 0 74.5 30.5t26.5 72.5q-2 43 -28 72.5t-73 29.5t-73.5 -30t-26.5 -72t27 -72.5t73 -30.5zM161 621l73 96q35 -23 57 -41l59 60l64 -64l-55 -55q166 -170 166 -392q0 -24 -5.5 -51t-22 -60t-41 -59t-67.5 -43.5t-97 -17.5t-96.5 16.5t-67 41.5t-41 56.5 t-22 58t-5.5 49.5q0 38 9.5 73t31.5 70.5t66 58.5t106 26q43 0 69 -12q-22 48 -71 98l-48 -48l-62 62l45 45q-20 16 -45 32z"/>
<glyph glyph-name="ntilde" horiz-adv-x="585" unicode="ñ" d="M388 735l82 -43q-46 -102 -133 -102q-23 0 -50.5 17t-43.5 17q-32 0 -50 -39l-78 36q18 59 53.5 83t75.5 24q27 0 55.5 -16t39.5 -16h2q25 0 47 39zM215 344v-344h-135v500h92l12 -36q54 44 126 44q55 0 95 -15.5t63 -38.5t36 -58t17 -66.5t4 -71.5v-258h-138v258 q0 129 -82 129q-59 0 -90 -43z"/>
<glyph glyph-name="ograve" horiz-adv-x="618" unicode="ò" d="M261 786l161 -125l-52 -74l-174 108zM309 112q35 0 59.5 16t35.5 41t15 44.5t4 36.5t-4 37t-15 45t-35.5 41t-59.5 16t-60 -16.5t-35.5 -41t-15 -44.5t-4.5 -37t4.5 -36.5t15 -44.5t35.5 -41t60 -16zM309 510q68 0 119 -25t78 -66t39.5 -83.5t12.5 -85.5 q0 -44 -12.5 -86.5t-39.5 -83t-78 -65t-119 -24.5t-119 24.5t-78 65t-39.5 83t-12.5 86.5q0 43 12.5 85.5t39.5 83.5t78 66t119 25z"/>
<glyph glyph-name="oacute" horiz-adv-x="618" unicode="ó" d="M196 661l161 125l65 -91l-174 -108zM309 112q35 0 59.5 16t35.5 41t15 44.5t4 36.5t-4 37t-15 45t-35.5 41t-59.5 16t-60 -16.5t-35.5 -41t-15 -44.5t-4.5 -37t4.5 -36.5t15 -44.5t35.5 -41t60 -16zM309 510q68 0 119 -25t78 -66t39.5 -83.5t12.5 -85.5 q0 -44 -12.5 -86.5t-39.5 -83t-78 -65t-119 -24.5t-119 24.5t-78 65t-39.5 83t-12.5 86.5q0 43 12.5 85.5t39.5 83.5t78 66t119 25z"/>
<glyph glyph-name="ocircumflex" horiz-adv-x="618" unicode="ô" d="M148 663l161 125l161 -125l-52 -74l-109 67l-109 -67zM309 112q35 0 59.5 16t35.5 41t15 44.5t4 36.5t-4 37t-15 45t-35.5 41t-59.5 16t-60 -16.5t-35.5 -41t-15 -44.5t-4.5 -37t4.5 -36.5t15 -44.5t35.5 -41t60 -16zM309 510q68 0 119 -25t78 -66t39.5 -83.5t12.5 -85.5 q0 -44 -12.5 -86.5t-39.5 -83t-78 -65t-119 -24.5t-119 24.5t-78 65t-39.5 83t-12.5 86.5q0 43 12.5 85.5t39.5 83.5t78 66t119 25z"/>
<glyph glyph-name="otilde" horiz-adv-x="618" unicode="õ" d="M404 735l82 -43q-46 -102 -133 -102q-23 0 -50.5 17t-43.5 17q-32 0 -50 -39l-78 36q18 59 53.5 83t75.5 24q27 0 55.5 -16t39.5 -16h2q25 0 47 39zM309 112q35 0 59.5 16t35.5 41t15 44.5t4 36.5t-4 37t-15 45t-35.5 41t-59.5 16t-60 -16.5t-35.5 -41t-15 -44.5 t-4.5 -37t4.5 -36.5t15 -44.5t35.5 -41t60 -16zM309 510q68 0 119 -25t78 -66t39.5 -83.5t12.5 -85.5q0 -44 -12.5 -86.5t-39.5 -83t-78 -65t-119 -24.5t-119 24.5t-78 65t-39.5 83t-12.5 86.5q0 43 12.5 85.5t39.5 83.5t78 66t119 25z"/>
<glyph glyph-name="odieresis" horiz-adv-x="618" unicode="ö" d="M347 667q0 32 22 54.5t55 22.5q32 0 54 -22.5t22 -54.5q0 -33 -22 -54.5t-54 -21.5q-33 0 -55 21.5t-22 54.5zM118 667q0 32 22 54.5t55 22.5q32 0 54 -22.5t22 -54.5q0 -33 -22 -54.5t-54 -21.5q-33 0 -55 21.5t-22 54.5zM309 112q35 0 59.5 16t35.5 41t15 44.5t4 36.5 t-4 37t-15 45t-35.5 41t-59.5 16t-60 -16.5t-35.5 -41t-15 -44.5t-4.5 -37t4.5 -36.5t15 -44.5t35.5 -41t60 -16zM309 510q68 0 119 -25t78 -66t39.5 -83.5t12.5 -85.5q0 -44 -12.5 -86.5t-39.5 -83t-78 -65t-119 -24.5t-119 24.5t-78 65t-39.5 83t-12.5 86.5 q0 43 12.5 85.5t39.5 83.5t78 66t119 25z"/>
<glyph glyph-name="divide" horiz-adv-x="461" unicode="÷" d="M162 68q0 29 19.5 48.5t48.5 19.5q28 0 48 -20t20 -48q0 -30 -19.5 -49t-48.5 -19t-48.5 19t-19.5 49zM162 434q0 29 19.5 48.5t48.5 19.5q28 0 48 -20t20 -48q0 -30 -19.5 -49t-48.5 -19t-48.5 19t-19.5 49zM60 299h341v-99h-341v99z"/>
<glyph glyph-name="oslash" horiz-adv-x="618" unicode="ø" d="M194 250q0 -23 6 -45l149 177q-19 7 -40 7q-35 0 -60 -16.5t-35.5 -41t-15 -44.5t-4.5 -37zM309 112q35 0 59.5 16t35.5 41t15 44.5t4 36.5q0 24 -8 52l-153 -181q20 -9 47 -9zM133 -32l-78 65l49 58q-44 67 -44 159q0 43 12.5 85.5t39.5 83.5t78 66t119 25q71 0 124 -29 l54 64l78 -65l-56 -66q49 -69 49 -164q0 -44 -12.5 -86.5t-39.5 -83t-78 -65t-119 -24.5q-77 0 -131 30z"/>
<glyph glyph-name="ugrave" horiz-adv-x="585" unicode="ù" d="M244 786l161 -125l-52 -74l-174 108zM370 156v344h135v-500h-92l-12 36q-54 -44 -126 -44q-55 0 -95 15.5t-63 38.5t-36 58t-17 66.5t-4 71.5v258h138v-258q0 -129 82 -129q59 0 90 43z"/>
<glyph glyph-name="uacute" horiz-adv-x="585" unicode="ú" d="M179 661l161 125l65 -91l-174 -108zM370 156v344h135v-500h-92l-12 36q-54 -44 -126 -44q-55 0 -95 15.5t-63 38.5t-36 58t-17 66.5t-4 71.5v258h138v-258q0 -129 82 -129q59 0 90 43z"/>
<glyph glyph-name="ucircumflex" horiz-adv-x="585" unicode="û" d="M131 663l161 125l161 -125l-52 -74l-109 67l-109 -67zM370 156v344h135v-500h-92l-12 36q-54 -44 -126 -44q-55 0 -95 15.5t-63 38.5t-36 58t-17 66.5t-4 71.5v258h138v-258q0 -129 82 -129q59 0 90 43z"/>
<glyph glyph-name="udieresis" horiz-adv-x="585" unicode="ü" d="M330 667q0 32 22 54.5t55 22.5q32 0 54 -22.5t22 -54.5q0 -33 -22 -54.5t-54 -21.5q-33 0 -55 21.5t-22 54.5zM101 667q0 32 22 54.5t55 22.5q32 0 54 -22.5t22 -54.5q0 -33 -22 -54.5t-54 -21.5q-33 0 -55 21.5t-22 54.5zM370 156v344h135v-500h-92l-12 36 q-54 -44 -126 -44q-55 0 -95 15.5t-63 38.5t-36 58t-17 66.5t-4 71.5v258h138v-258q0 -129 82 -129q59 0 90 43z"/>
<glyph glyph-name="yacute" horiz-adv-x="598" unicode="ý" d="M186 661l161 125l65 -91l-174 -108zM228 40q-30 73 -104.5 237t-100.5 223h155l123 -301q31 81 119 301h152l-297 -699h-141v11z"/>
<glyph glyph-name="thorn" horiz-adv-x="614" unicode="þ" d="M215 365v-230q33 -22 82 -22q36 0 62 15t38.5 39t17.5 44.5t5 38.5t-5 38.5t-17.5 44.5t-38.5 39t-62 15q-49 0 -82 -22zM305 -8q-48 0 -90 14v-205h-135v900h135v-207q42 14 90 14q68 0 119 -25t78 -65.5t39.5 -82.5t12.5 -85t-12.5 -85t-39.5 -82.5t-78 -65.5t-119 -25 z"/>
<glyph glyph-name="OE" horiz-adv-x="1047" unicode="Œ" d="M408 120q59 0 103 26v407q-46 27 -103 27q-51 0 -90 -18.5t-59.5 -45t-34 -60.5t-17 -59t-3.5 -46t3.5 -46t17 -59.5t34 -61t59.5 -45.5t90 -19zM914 280h-262v-150h335v-130h-476q-57 -11 -103 -11q-77 0 -138.5 23.5t-99.5 60.5t-64 86t-36 96.5t-10 95.5q0 47 10 94 t36 96t64 86t99.5 61t138.5 24q50 0 103 -12h476v-130h-335v-160h262v-130z"/>
<glyph glyph-name="oe" horiz-adv-x="925" unicode="œ" d="M673 386q-80 0 -106 -79h179q-2 78 -73 79zM309 112q33 0 57 14.5t35.5 38.5t16 44t5.5 41v6q0 47 -27 90t-87 43q-35 0 -60 -16.5t-35.5 -41t-15 -44.5t-4.5 -37t4.5 -36.5t15 -44.5t35.5 -41t60 -16zM876 227h-313q6 -47 35 -78.5t75 -31.5q66 0 125 45l66 -91 q-92 -77 -191 -77q-113 0 -183 74q-72 -77 -181 -77q-68 0 -119 24.5t-78 65t-39.5 83t-12.5 86.5q0 43 12.5 85.5t39.5 83.5t78 66t119 25q115 0 182 -74q66 71 182 71q98 0 152.5 -58t54.5 -157q0 -21 -4 -65z"/>
<glyph glyph-name="Scaron" horiz-adv-x="642" unicode="Š" d="M321 786l-161 125l52 74l109 -67l109 67l52 -74zM214 514q1 -17 10 -30t31 -24.5t37 -17.5t51 -18q34 -12 47.5 -16.5t45.5 -17.5t46.5 -23t37.5 -27.5t34 -35.5t19.5 -43t8.5 -54v-14q-5 -87 -76 -144t-179 -57q-138 0 -271 71l62 117q119 -57 202 -57q46 0 76.5 18 t35.5 49q1 3 1 10q0 30 -29.5 50.5t-83.5 37.5q-108 33 -144 53q-104 56 -104 166q0 94 63 149t164 55q118 0 255 -64l-51 -119q-124 51 -194 51q-92 0 -95 -65z"/>
<glyph glyph-name="scaron" horiz-adv-x="512" unicode="š" d="M262 586l-161 125l52 74l109 -67l109 67l52 -74zM207 357q0 -19 74 -42q31 -10 47.5 -16t44 -21t42 -31t26 -42.5t11.5 -59.5q0 -68 -53 -110.5t-135 -42.5q-100 0 -204 61l54 106q90 -46 145 -46q23 0 39 8.5t16 22.5q0 20 -20.5 31t-62.5 23q-35 11 -55.5 19.5t-47 26 t-39.5 45t-13 64.5q0 72 46.5 113.5t123.5 41.5q89 0 194 -52l-51 -111q-80 39 -127 39q-55 0 -55 -27z"/>
<glyph glyph-name="Ydieresis" horiz-adv-x="677" unicode="Ÿ" d="M376 867q0 32 22 54.5t55 22.5q32 0 54 -22.5t22 -54.5q0 -33 -22 -54.5t-54 -21.5q-33 0 -55 21.5t-22 54.5zM147 867q0 32 22 54.5t55 22.5q32 0 54 -22.5t22 -54.5q0 -33 -22 -54.5t-54 -21.5q-33 0 -55 21.5t-22 54.5zM409 313v-313h-141v311l-238 389h156l152 -254 l152 254h157z"/>
<glyph glyph-name="circumflex" horiz-adv-x="518" unicode="ˆ" d="M102 663l161 125l161 -125l-52 -74l-109 67l-109 -67z"/>
<glyph glyph-name="tilde" horiz-adv-x="535" unicode="˜" d="M363 735l82 -43q-46 -102 -133 -102q-23 0 -50.5 17t-43.5 17q-32 0 -50 -39l-78 36q18 59 53.5 83t75.5 24q27 0 55.5 -16t39.5 -16h2q25 0 47 39z"/>
<glyph glyph-name="pi" horiz-adv-x="646" unicode="π" d="M455 -4q-38 0 -64 15.5t-36.5 40t-14.5 43.5t-4 37v239h-82v-371h-136v371h-68v129h516v-129h-93v-224q0 -32 19 -32h2q9 0 79 17l23 -112q-83 -24 -141 -24z"/>
<glyph glyph-name="endash" horiz-adv-x="550" unicode="–" d="M471 261h-391v113h391v-113z"/>
<glyph glyph-name="emdash" horiz-adv-x="672" unicode="—" d="M592 261h-512v113h512v-113z"/>
<glyph glyph-name="quoteleft" horiz-adv-x="292" unicode="‘" d="M162 721l70 -34q-37 -63 -56 -128q54 -17 54 -78q0 -35 -23 -58.5t-58 -23.5q-46 0 -67.5 26t-21.5 64q0 45 34 117.5t68 114.5z"/>
<glyph glyph-name="quotesinglbase" horiz-adv-x="332" unicode="‚" d="M150 -168l-70 34q37 63 56 128q-54 17 -54 78q0 35 23 58.5t58 23.5q46 0 67.5 -26t21.5 -64q0 -45 -34 -117.5t-68 -114.5z"/>
<glyph glyph-name="quotedblleft" horiz-adv-x="523" unicode="“" d="M393 721l70 -34q-37 -63 -56 -128q54 -17 54 -78q0 -35 -23 -58.5t-58 -23.5q-46 0 -67.5 26t-21.5 64q0 45 34 117.5t68 114.5zM162 721l70 -34q-37 -63 -56 -128q54 -17 54 -78q0 -35 -23 -58.5t-58 -23.5q-46 0 -67.5 26t-21.5 64q0 45 34 117.5t68 114.5z"/>
<glyph glyph-name="quotedblright" horiz-adv-x="523" unicode="”" d="M130 399l-70 34q37 63 56 128q-54 17 -54 78q0 35 23 58.5t58 23.5q46 0 67.5 -26t21.5 -64q0 -45 -34 -117.5t-68 -114.5zM361 399l-70 34q37 63 56 128q-54 17 -54 78q0 35 23 58.5t58 23.5q46 0 67.5 -26t21.5 -64q0 -45 -34 -117.5t-68 -114.5z"/>
<glyph glyph-name="dagger" horiz-adv-x="553" unicode="†" d="M342 374v-533h-132v533h-130v126h130v200h132v-200h131v-126h-131z"/>
<glyph glyph-name="daggerdbl" horiz-adv-x="553" unicode="‡" d="M342 39v-198h-132v198h-130v126h130v209h-130v126h130v200h132v-200h131v-126h-131v-209h131v-126h-131z"/>
<glyph glyph-name="ellipsis" horiz-adv-x="780" unicode="…" d="M573 77q0 35 25 59.5t59 24.5q35 0 59 -24.5t24 -59.5t-24 -59t-59 -24q-34 0 -59 24.5t-25 58.5zM326 77q0 35 25 59.5t59 24.5q35 0 59 -24.5t24 -59.5t-24.5 -59t-58.5 -24t-59 24.5t-25 58.5zM80 77q0 35 25 59.5t59 24.5q35 0 59 -24.5t24 -59.5t-24.5 -59 t-58.5 -24t-59 24.5t-25 58.5z"/>
<glyph glyph-name="perthousand" horiz-adv-x="1243" unicode="‰" d="M1056 103q25 0 34.5 18.5t9.5 36.5q0 11 -2.5 22t-13.5 22.5t-28 11.5q-18 0 -29 -11.5t-13.5 -22.5t-2.5 -22q0 -10 2.5 -21t13.5 -22.5t29 -11.5zM1056 323q43 0 75 -16t49 -42t25 -53t8 -54t-8 -54t-25 -52.5t-49 -41t-75 -15.5t-75.5 15.5t-49.5 41t-25 52.5t-8 54 q0 28 8 54.5t25 52.5t49.5 42t75.5 16zM667 103q25 0 34.5 18.5t9.5 36.5q0 11 -2.5 22t-13.5 22.5t-28 11.5q-18 0 -29 -11.5t-13.5 -22.5t-2.5 -22q0 -10 2.5 -21t13.5 -22.5t29 -11.5zM667 323q43 0 75 -16t49 -42t25 -53t8 -54t-8 -54t-25 -52.5t-49 -41t-75 -15.5 t-75.5 15.5t-49.5 41t-25 52.5t-8 54q0 28 8 54.5t25 52.5t49.5 42t75.5 16zM604 700l-232 -700h-119l233 700h118zM189 486q25 0 34 18t9 37q0 11 -2.5 22t-13 22.5t-27.5 11.5q-18 0 -29 -11.5t-13.5 -22.5t-2.5 -22t2.5 -21.5t13.5 -22t29 -11.5zM189 706q43 0 75 -16 t49 -42t25 -53t8 -54t-8 -54t-25 -52.5t-49 -41t-75 -15.5q-83 0 -121 50.5t-38 112.5q0 28 8 54.5t25 52.5t49.5 42t76.5 16z"/>
<glyph glyph-name="guilsinglleft" horiz-adv-x="320" unicode="‹" d="M176 256l114 -143l-73 -64l-187 200v13l187 199l73 -64z"/>
<glyph glyph-name="guilsinglright" horiz-adv-x="320" unicode="›" d="M30 113l114 143l-114 141l73 64l187 -199v-13l-187 -200z"/>
<glyph glyph-name="fraction" horiz-adv-x="67" unicode="⁄" d="M261 700l-349 -700h-102l350 700h101z"/>
<glyph glyph-name="Euro" horiz-adv-x="584" unicode="€" d="M38 467h63q21 103 82.5 167t167.5 64q108 0 193 -98l-85 -85q-56 59 -108 59q-87 0 -115 -107h186l-27 -95h-172v-19q0 -2 -0.5 -7.5t-0.5 -8.5t0.5 -9t0.5 -9h144l-25 -95h-100q35 -108 109 -108q24 0 54.5 15.5t55.5 42.5l82 -82q-87 -99 -192 -99t-165.5 64.5 t-83.5 166.5h-92l28 95h52v36v17h-80z"/>
<glyph glyph-name="trademark" horiz-adv-x="659" unicode="™" d="M439 488h-12l-58 108l-32 -105h-83l103 265h7l70 -123l66 123h8l106 -265h-81l-36 108zM109 491v190h-64v76h208v-76h-64v-190h-80z"/>
<glyph glyph-name="arrowleft" horiz-adv-x="616" unicode="←" d="M556 198h-277l125 -136l-80 -75l-264 267v8l263 269l79 -79l-123 -134h277v-120z"/>
<glyph glyph-name="arrowup" horiz-adv-x="664" unicode="↑" d="M271 11v277l-136 -125l-75 80l267 264h8l269 -263l-79 -79l-134 123v-277h-120z"/>
<glyph glyph-name="arrowright" horiz-adv-x="616" unicode="→" d="M337 198h-277v120h277l-123 134l79 79l263 -269v-8l-264 -267l-80 75z"/>
<glyph glyph-name="arrowdown" horiz-adv-x="664" unicode="↓" d="M271 230v277h120v-277l134 123l79 -79l-269 -263h-8l-267 264l75 80z"/>
<glyph glyph-name="partialdiff" horiz-adv-x="586" unicode="∂" d="M292 118q48 0 74.5 30.5t26.5 72.5q-2 43 -28 72.5t-73 29.5t-73.5 -30t-26.5 -72t27 -72.5t73 -30.5zM161 621l69 93q56 -33 105 -77.5t93.5 -104.5t70.5 -139t26 -166q0 -25 -5.5 -52.5t-21.5 -60.5t-41 -59t-68 -43.5t-97 -17.5t-96.5 16.5t-67 41.5t-41 56.5t-22 58 t-5.5 49.5q0 26 5 52.5t20 58t37.5 56t61.5 41.5t89 20q43 0 69 -12q-39 66 -79.5 109.5t-101.5 79.5z"/>
<glyph glyph-name="product" horiz-adv-x="612" unicode="∏" d="M117 0v580h-72v122h522v-122h-70v-580h-139v580h-103v-580h-138z"/>
<glyph glyph-name="summation" horiz-adv-x="521" unicode="∑" d="M248 577l151 -227l-151 -227h243v-123h-458l-3 8l216 342l-215 342l3 8h457v-123h-243z"/>
<glyph glyph-name="minus" horiz-adv-x="557" unicode="−" d="M75 428h414v-97h-414v97z"/>
<glyph glyph-name="radical" horiz-adv-x="685" unicode="√" d="M288 292l175 408h192v-109h-98l-265 -596h-9l-253 505h150z"/>
<glyph glyph-name="infinity" horiz-adv-x="670" unicode="∞" d="M233 247q30 0 49 48q-18 44 -49 44q-20 0 -31.5 -12t-11.5 -32q0 -22 11.5 -35t31.5 -13zM438 248q19 0 31 13.5t12 32.5q0 18 -12 30.5t-31 12.5q-32 0 -50 -43q19 -46 50 -46zM224 143q-72 0 -108 45t-36 107q0 61 36 106.5t108 45.5q65 0 112 -58q43 58 110 58 q72 0 108 -45.5t36 -107.5t-36 -106.5t-108 -44.5q-65 0 -110 55q-43 -55 -112 -55z"/>
<glyph glyph-name="approxequal" horiz-adv-x="609" unicode="≈" d="M162 75l-82 56q67 115 158 115q28 0 71 -22t60 -22q36 0 79 55l81 -62q-62 -113 -159 -113q-25 0 -68 23.5t-66 23.5q-32 0 -74 -54zM162 279l-82 56q67 115 158 115q28 0 71 -22t60 -22q36 0 79 55l81 -62q-62 -113 -159 -113q-25 0 -68 23.5t-66 23.5q-32 0 -74 -54z "/>
<glyph glyph-name="notequal" horiz-adv-x="509" unicode="≠" d="M151 91h-71v113h106l29 87h-135v114h170l34 95h105l-33 -95h74v-114h-108l-30 -87h138v-113h-173l-31 -91h-103z"/>
<glyph glyph-name="lessequal" horiz-adv-x="441" unicode="≤" d="M222 378l189 -120l-57 -100l-324 196v48l324 195l57 -99zM30 111h356v-111h-356v111z"/>
<glyph glyph-name="greaterequal" horiz-adv-x="441" unicode="≥" d="M30 258l189 120l-189 120l57 99l324 -195v-48l-324 -196zM411 111v-111h-356v111h356z"/>
<glyph glyph-name="lozenge" horiz-adv-x="660" unicode="◊" d="M330 496l-104 -148l104 -148l104 148zM60 348l270 373l270 -373l-270 -373z"/>
</font>
</defs>
</svg>
