<?xml version="1.0" encoding="utf-8"?>
<!-- Generator: Adobe Illustrator 18.1.1, SVG Export Plug-In . SVG Version: 6.00 Build 0)  -->
<!DOCTYPE svg PUBLIC "-//W3C//DTD SVG 1.1//EN" "http://www.w3.org/Graphics/SVG/1.1/DTD/svg11.dtd">
<svg version="1.1" id="Layer_1" xmlns="http://www.w3.org/2000/svg" xmlns:xlink="http://www.w3.org/1999/xlink" x="0px" y="0px"
	 viewBox="0 0 293.5 357.8" enable-background="new 0 0 293.5 357.8" xml:space="preserve">
<path d="M65.7,252c-6.7-2.1-12.7-5.6-17.5-10.6c-27.6-28.6-8.7-94.4,42.1-147.1C141.1,41.6,204.7,22,232.2,50.6
	c14.4,14.9,16.1,40,7.3,68.1c14-34.8,13.9-66.8-3.6-84.9C206.3,3,138.1,24,83.5,80.6c-54.6,56.6-74.8,127.3-45.2,158
	C45.4,246,54.8,250.4,65.7,252z"/>
<path d="M237.8,57.1c-3.3-4.9-7.2-9.8-11.3-14.3c0.3-2.8,0.3-5.4,0.3-5.5v-6.2C226.8,9.7,185.5,0,147.1,0
	c-38.4,0-79.7,9.7-79.7,31.1v6.2c0,0,0,2.7,0.4,5.4c-3,3.2-7.5,8.4-11.5,14.6c-7.6,12-7.9,20.9-7.9,21.9v226.3
	c0,5.1,2.3,12.8,12.9,20.6c10.7,18.2,47.3,31.7,85.8,31.7c38.6,0,75.2-13.6,85.8-31.7c10.7-7.8,12.9-15.4,12.9-20.6V79.2l0,0
	C245.8,77.6,245.5,68.5,237.8,57.1z M237.7,78.9c0,0.1,0,0.2,0,0.2v226.3c0,6-5.6,11.2-10.3,14.5c-0.5,0.4-0.9,0.8-1.2,1.4
	c-8.6,15.9-43.3,28.3-79.2,28.3c-35.8,0-70.6-12.4-79.2-28.3c-0.3-0.5-0.7-1-1.2-1.4c-4.7-3.3-10.2-8.5-10.2-14.5V79.2
	c0-0.1,0.1-7.4,6.6-17.5c4.3-6.7,13.2-17,12.9-18.3c-0.4-2.1-0.5-5.1-0.5-6v-6.2c0-12.7,32.1-23,71.6-23c39.5,0,71.7,10.3,71.7,23
	v6.1c0,1-0.1,4-0.5,6.1c-0.2,1.3,0.2,2.6,1,3.5c4.3,4.6,8.4,9.7,11.9,14.7C237.8,71.5,237.7,78.9,237.7,78.9"/>
<path fill="#FFFFFF" stroke="#000000" stroke-miterlimit="10" d="M76,43.3c0,0-6.3-20,13.4-25.8S120.2,6.7,165,8.8s53,19,53,19
	s1.7,9.5,0,17.4c0,0,22.9,22,19.7,33.7l0.3,227.6c0,0-0.4,6.8-10.6,13.4c0,0-8.3,24.6-71,29.4s-90-25.3-89.9-29.4
	c0,0-13.1-6.9-10.2-21.4V79.2c0,0,0-13,10.8-23.5L76,43.3z"/>
<path d="M271.4,30.8c-10.3-10.6-23.4-17.4-38.3-20.6c9.3,3.5,17.7,8.8,24.6,16c39.8,41.1,20.2,128-43.9,194.1
	c-64.1,66.1-148.3,86.4-188.1,45.3C4.9,244,0.3,210.1,9.8,173.2c-15.9,45.6-12.9,88.7,12.3,114.7c42.8,44.1,133.3,22.3,202.1-48.7
	C293,168.2,314.2,74.9,271.4,30.8z"/>
<path d="M147.1,17.5c-26.9,0-65,6.9-65.6,22.3c-0.1,1.5,0.7,2.9,1.9,3.6c12.5,7.6,36.9,12.4,63.7,12.4c26.9,0,51.3-4.7,63.8-12.4
	c1.3-0.8,2-2.2,1.9-3.6C212.1,24.4,174,17.5,147.1,17.5z M147.1,47.6c-22.9,0-44.5-3.7-56.5-9.5c5-5.2,27-12.5,56.5-12.5
	c29.5,0,51.6,7.3,56.5,12.5C191.6,43.9,170.1,47.6,147.1,47.6z"/>
</svg>
