<?xml version="1.0" encoding="utf-8"?>
<!-- Generator: Adobe Illustrator 18.1.1, SVG Export Plug-In . SVG Version: 6.00 Build 0)  -->
<!DOCTYPE svg PUBLIC "-//W3C//DTD SVG 1.1//EN" "http://www.w3.org/Graphics/SVG/1.1/DTD/svg11.dtd">
<svg version="1.1" id="Layer_1" xmlns="http://www.w3.org/2000/svg" xmlns:xlink="http://www.w3.org/1999/xlink" x="0px" y="0px"
	 viewBox="72 244.7 612 625.8" enable-background="new 72 244.7 612 625.8" xml:space="preserve">
<g>
	<path fill="#404040" d="M653.7,423.5c-3.7-7.7-7.7-15.2-12-22.6C442.9,441.9,202.1,549.7,96,709.5c26.1,47.3,64,87,109.8,115.4
		C298.1,646.2,536.8,466.3,653.7,423.5z"/>
	<path fill="#404040" d="M623.7,373.4c-57-78.1-149.3-128.7-253.2-128.7c-134.4,0-249,84.5-293.6,203.5
		C237.5,368.4,488.3,352.8,623.7,373.4z"/>
	<path fill="#404040" d="M396.5,870.5c161-13.3,287.5-148,287.5-312.3c0-42.8-8.6-83.8-24.3-120.9
		C550.6,548.9,440.8,711.7,396.5,870.5z"/>
	<rect x="139.5" y="539.4" fill="#404040" width="9.9" height="89.9"/>
	<path fill="#404040" d="M126.9,469.7c17.5,16.5,23.3,51.8,22.2,69.5c34.9-28.3-3.5-82.7-34-89.6c2.2,13.8,0.7,26.6-1.4,38
		c-4.5,25.2,7.3,49.8,26.3,51.8C140.5,526.5,144.4,508.6,126.9,469.7z"/>
	<path fill="#404040" d="M87.8,547.7c10.4-4.8,36.8-2.5,48.2,0.5C116,518,80,536.7,72,551.3c9.6,1.5,17.7,5.1,24.9,8.8
		c15.8,8.2,34.5,5.6,39.7-6.6C128.2,550.5,99.7,547.5,87.8,547.7z"/>
	<path fill="#404040" d="M187.8,534c-2.5,11.2-20.2,30.9-29.4,38.1c36.2,2.3,42.8-37.6,36-52.8c-7,6.7-14.8,11.1-22,14.5
		c-16.1,7.6-25.2,24.1-18.6,35.7C161.1,564.6,180.8,543.7,187.8,534z"/>
	<rect x="353.9" y="768.3" fill="#404040" width="9.9" height="89.9"/>
	<path fill="#404040" d="M341.3,698.6c17.5,16.5,23.3,51.8,22.2,69.5c34.9-28.3-3.5-82.7-34-89.6c2.2,13.8,0.7,26.6-1.4,38
		c-4.5,25.2,7.3,49.8,26.3,51.8C355,755.6,358.8,737.5,341.3,698.6z"/>
	<path fill="#404040" d="M302.2,776.6c10.4-4.8,36.8-2.5,48.2,0.5c-19.9-30.1-55.9-11.4-63.9,3.1c9.6,1.5,17.7,5.1,24.9,8.8
		c15.8,8.2,34.5,5.6,39.7-6.6C342.8,779.4,314.2,776.4,302.2,776.6z"/>
	<path fill="#404040" d="M402.3,762.8c-2.5,11.2-20.2,30.9-29.4,38.1c36.2,2.3,42.8-37.6,36-52.8c-7,6.7-14.8,11.1-22,14.5
		c-16,7.6-25.2,24.1-18.6,35.7C375.6,793.4,395.2,772.6,402.3,762.8z"/>
	<rect x="266.8" y="469.7" fill="#404040" width="7.3" height="65.3"/>
	<path fill="#404040" d="M257.6,419c12.7,11.9,16.9,37.6,16.1,50.5c25.3-20.6-2.6-60-24.7-65.1c1.5,10,0.5,19.3-1,27.7
		c-3.3,18.2,5.3,36.2,19.2,37.6C267.5,460.4,270.3,447.3,257.6,419z"/>
	<path fill="#404040" d="M229.2,475.5c7.6-3.5,26.7-1.8,35,0.5c-14.5-21.9-40.6-8.3-46.4,2.3c7,1.1,12.9,3.7,18.1,6.3
		c11.4,6,25,4,28.8-4.8C258.5,477.7,237.9,475.5,229.2,475.5z"/>
	<path fill="#404040" d="M302,465.7c-1.8,8-14.7,22.4-21.4,27.7c26.2,1.7,31.1-27.3,26.2-38.4c-5.1,4.9-10.7,8-16,10.5
		c-11.7,5.6-18.2,17.5-13.5,26C282.5,487.9,296.9,472.7,302,465.7z"/>
	<rect x="438" y="655.1" fill="#404040" width="7.3" height="65.3"/>
	<path fill="#404040" d="M428.7,604.5c12.7,11.9,16.9,37.6,16.1,50.5c25.3-20.6-2.6-60-24.7-65.1c1.5,10,0.5,19.3-1,27.7
		c-3.3,18.2,5.3,36.2,19.2,37.6C438.6,645.9,441.4,632.9,428.7,604.5z"/>
	<path fill="#404040" d="M400.2,661.2c7.6-3.5,26.7-1.8,35,0.5c-14.5-21.9-40.6-8.3-46.4,2.3c6.9,1.1,12.9,3.7,18.1,6.3
		c11.4,6,25,4,28.8-4.8C429.7,663.2,409.1,661,400.2,661.2z"/>
	<path fill="#404040" d="M473,651.3c-1.8,8-14.7,22.4-21.4,27.7c26.2,1.7,31.1-27.3,26.2-38.4c-5.1,4.9-10.7,8-16,10.7
		c-11.7,5.6-18.2,17.5-13.5,26C453.6,673.5,467.8,658.4,473,651.3z"/>
	<rect x="385.8" y="425.1" fill="#404040" width="5.1" height="43.7"/>
	<path fill="#404040" d="M378.7,391.1c9.7,8,12.8,25.2,12.4,33.9c19.3-13.8-2-40.3-18.8-43.6c1.2,6.7,0.5,13-0.8,18.5
		c-2.5,12.4,4,24.3,14.5,25.2C386.2,418.9,388.4,410.2,378.7,391.1z"/>
	<path fill="#404040" d="M357.1,429.1c5.8-2.3,20.3-1.2,26.6,0.2c-11-14.7-30.8-5.6-35.2,1.5c5.3,0.7,9.7,2.5,13.7,4.3
		c8.7,4,19,2.7,21.9-3.2C379.5,430.6,363.7,429.1,357.1,429.1z"/>
	<path fill="#404040" d="M412.5,422.5c-1.4,5.4-11.1,15-16.3,18.6c19.9,1.1,23.7-18.2,19.9-25.7c-3.9,3.3-8.2,5.4-12.2,7.1
		c-9,3.7-13.9,11.8-10.3,17.5C397.6,437.4,408.5,427.2,412.5,422.5z"/>
	<rect x="516" y="555.2" fill="#404040" width="5.1" height="43.7"/>
	<path fill="#404040" d="M508.8,521.3c9.7,8,12.8,25.2,12.4,33.9c19.3-13.8-2-40.3-18.8-43.6c1.1,6.7,0.5,13-0.8,18.5
		c-2.5,12.4,4,24.3,14.5,25.2C516.4,549,518.5,540.1,508.8,521.3z"/>
	<path fill="#404040" d="M487.3,559.3c5.8-2.3,20.3-1.2,26.6,0.2c-11-14.7-30.9-5.6-35.2,1.5c5.3,0.7,9.7,2.5,13.7,4.3
		c8.7,4,19,2.7,21.9-3.2C509.6,560.5,493.9,559.2,487.3,559.3z"/>
	<path fill="#404040" d="M542.4,552.6c-1.4,5.4-11.1,15-16.3,18.6c19.9,1.1,23.7-18.2,19.9-25.7c-3.9,3.3-8.2,5.4-12.2,7.1
		c-8.8,3.7-13.9,11.8-10.3,17.5C527.8,567.5,538.6,557.3,542.4,552.6z"/>
	<rect x="483.2" y="402.9" fill="#404040" width="3.4" height="29.6"/>
	<path fill="#404040" d="M478.4,380c6.5,5.4,8.7,17,8.3,22.9c13-9.3-1.2-27.2-12.7-29.5c0.8,4.5,0.2,8.7-0.5,12.5
		c-1.7,8.3,2.7,16.4,9.7,17C483.4,398.7,484.9,392.8,478.4,380z"/>
	<path fill="#404040" d="M463.7,405.6c3.9-1.6,13.7-0.8,18,0.2c-7.4-9.9-20.9-3.9-23.8,1c3.6,0.5,6.6,1.7,9.3,2.9
		c5.9,2.7,12.8,1.8,14.8-2.2C478.8,406.5,468.2,405.6,463.7,405.6z"/>
	<path fill="#404040" d="M501.1,401.1c-0.9,3.7-7.5,10.2-11,12.5c13.4,0.8,15.9-12.4,13.4-17.5c-2.6,2.2-5.6,3.6-8.2,4.8
		c-6,2.5-9.4,7.9-6.9,11.7C491.1,411.2,498.4,404.3,501.1,401.1z"/>
</g>
</svg>
