<?xml version="1.0" encoding="utf-8"?>
<!-- Generator: Adobe Illustrator 18.1.1, SVG Export Plug-In . SVG Version: 6.00 Build 0)  -->
<!DOCTYPE svg PUBLIC "-//W3C//DTD SVG 1.1//EN" "http://www.w3.org/Graphics/SVG/1.1/DTD/svg11.dtd">
<svg version="1.1" id="Layer_1" xmlns="http://www.w3.org/2000/svg" xmlns:xlink="http://www.w3.org/1999/xlink" x="0px" y="0px"
	 viewBox="70.8 276.4 612 604.1" enable-background="new 70.8 276.4 612 604.1" xml:space="preserve">
<g>
	<path fill="#404040" d="M682.8,682.1c0-12.1-6.1-24.4-18.4-24.4c-12.1-6.1-24.4-12.1-36.6-6.1c-36.6-85.3-140.3-109.8-237.8-91.5
		c-42.5,12.1-73,48.8-91.3,91.5c-12.1-12.1-42.6-6.1-42.6,18.4c0,6.1,0,18.4,6.1,24.4c6.1,6.1,12.1,6.1,24.4,6.1
		c-12.2,30.5-18.4,61-18.4,85.3c0,30.5,0,61,30.5,79.3c24.4,18.4,48.8-12.1,54.9-36.6c30.5,12.1,61,12.1,91.5,12.1
		c36.6,0,79.3,0,115.8,0c0,6.1,0,12.1,0,12.1c6.1,6.1,6.1,12.1,12.1,12.1c18.4,24.4,48.8,18.4,67.1-6.1
		c18.4-42.6,12.1-103.6,6.1-146.3C658.4,718.7,682.8,700.5,682.8,682.1z M317.1,670L317.1,670L317.1,670L317.1,670c0,0,0-6.1,0-12.1
		c0,6.1,6.1,6.1,6.1,12.1C317.1,670,317.1,670,317.1,670z M347.6,761.4L347.6,761.4c-12.1,0-18.4-6.1-18.4-18.4
		c-6.1-6.1,0-12.1,6.1-18.4l0,0c6.1,0,6.1,0,12.1,0c6,0,12.1,0,12.1,6.1C371.9,743.1,359.7,755.3,347.6,761.4z M573,761.4L573,761.4
		c-6.1,0-12.1-6.1-12.1-12.1v-6.1c12.1,0,18.4-6.1,30.5-12.1c0,6.1,6.1,6.1,6.1,12.1C597.5,755.3,585.3,761.4,573,761.4z M445,688.3
		L445,688.3c-24.4-6.1-121.9-6.1-115.8-48.8l0,0c18.4-24.4,36.6-42.6,67.1-54.9c79.3-18.4,158.4,0,201.2,67.1l6.1,6.1
		C560.9,694.3,499.9,688.3,445,688.3z"/>
	<path fill="#404040" d="M481.6,487.1c-6.1-6.1-18.4-6.1-24.4,0l0,0c-12.2-67-67.1-103.6-140.3-109.7
		c-79.3-12.1-158.4,30.5-195,103.6c0-6.1-6.1-12.1-18.4-12.1s-24.3,6.1-30.4,18.4c-6.1,12.2,0,24.4,12.1,30.5
		c6.1,6.1,12.1,6.1,24.4,6.1c-18.4,54.9-36.6,121.9,0,158.4c6.1,12.1,42.6,18.4,54.9,12.1c12.2-6.1,12.1-6.1,18.4-18.4
		c6.1-18.4,42.6-12.1,61-18.4v-6.1c6.1,0,6.1-6.1,6.1-12.1c6.1-6.1,12.1-6.1,24.4-12.1c6.1,0,6.1-6.1,6.1-12.1
		c6.1-67.1,115.8-73.1,176.8-79.3c6.1,0,12.1,6.1,18.4,0c12.1,0,18.4-6.1,24.4-18.4C499.9,505.4,493.9,493.2,481.6,487.1z
		 M183,566.4L183,566.4c-6.1,12.1-12.1,12.1-24.4,12.1c-6.1-6.1-6.1-12.1-6.1-12.1c0-6.1,0-6.1,0-12.1l0,0c6.1,0,6.1,0,6.1,0
		c12.1,0,18.4,0,24.4,6.1l0,0l0,0V566.4L183,566.4z M146.3,468.7L146.3,468.7c6.1-6.1,12.1-12.1,18.4-18.4
		c73.1-85.3,243.9-67.1,268.3,36.6C335.3,499.2,244,505.4,146.3,468.7z"/>
	<path fill="#404040" d="M658.4,389.6c-12.1-6.1-24.4-6.1-30.5,0c0,0,0,0-6.1,0c0-6.1,0-12.1-6.1-18.4
		c-30.5-85.3-103.6-103.6-182.9-91.5c-36.6,6.1-115.8,30.5-109.8,79.3h12.1c6.1-42.6,54.9-54.9,91.5-61c67.2-12.1,128.2,6,164.7,67
		c6.1,6.1,6.1,18.4,12.1,30.5c-54.9,18.4-103.6,6.1-158.4,0c-6.1,0-12.1,6.1-6.1,12.1h6.1c-6.1,6.1-12.1,18.4-6.1,24.4
		c18.4,12.1,36.6,30.5,48.8,54.9c6.1,6.1,12.1,12.1,24.4,24.4c0,0,0,12.1,0,18.4c6.1,12.1,18.4,12.1,30.5,12.1
		c12.1,0,30.5,0,48.8,12.1c-6.1,0-6.1,0-6.1,0c0,36.6,36.6,73.1,61,36.6c12.1-24.4,0-61,0-85.3c-6.1-24.4-6.1-42.6-12.1-67.1
		c18.4,6.1,42.6-6.1,42.6-24.4C676.7,401.7,670.7,389.6,658.4,389.6z M664.4,407.7L664.4,407.7c0,0,0,0-6.1,0
		c0-6.1-6.1-6.1-12.1-12.1C652.3,395.6,658.4,401.7,664.4,407.7z M591.3,499.2L591.3,499.2c-12.1,6.1-18.4,0-24.4-12.1
		c-6.1-6.1,0-18.4,6.1-24.4l0,0l0,0l0,0c6.1,6.1,12.1,12.1,18.4,18.4c0,6.1,0,12.1,0,12.1v6H591.3z"/>
</g>
</svg>
