<?xml version="1.0" encoding="utf-8"?>
<!-- Generator: Adobe Illustrator 18.1.1, SVG Export Plug-In . SVG Version: 6.00 Build 0)  -->
<!DOCTYPE svg PUBLIC "-//W3C//DTD SVG 1.1//EN" "http://www.w3.org/Graphics/SVG/1.1/DTD/svg11.dtd">
<svg version="1.1" id="Layer_1" xmlns="http://www.w3.org/2000/svg" xmlns:xlink="http://www.w3.org/1999/xlink" x="0px" y="0px"
	 viewBox="36 229.5 612 612" enable-background="new 36 229.5 612 612" xml:space="preserve">
<g>
	<path fill="#404040" d="M212,607.2v-26.7c0-0.3,0.2-0.6,0.6-0.6c0.3,0,0.6,0.2,0.6,0.6v26.7c0,0.3-0.2,0.6-0.6,0.6
		S212,607.6,212,607.2z M222,607.8c0.3,0,0.6-0.2,0.6-0.6v-26.7c0-0.3-0.2-0.6-0.6-0.6c-0.3,0-0.6,0.2-0.6,0.6v26.7
		C221.5,607.6,221.8,607.8,222,607.8z M231.5,607.8c0.3,0,0.6-0.2,0.6-0.6v-26.7c0-0.3-0.2-0.6-0.6-0.6c-0.3,0-0.6,0.2-0.6,0.6v26.7
		C231,607.6,231.3,607.8,231.5,607.8z M183.8,607.8c0.3,0,0.6-0.2,0.6-0.6v-26.7c0-0.3-0.2-0.6-0.6-0.6c-0.3,0-0.6,0.2-0.6,0.6v26.7
		C183.3,607.6,183.6,607.8,183.8,607.8z M174.4,607.8c0.3,0,0.6-0.2,0.6-0.6v-26.7c0-0.3-0.2-0.6-0.6-0.6c-0.3,0-0.6,0.2-0.6,0.6
		v26.7C173.8,607.6,174,607.8,174.4,607.8z M164.7,607.8c0.3,0,0.6-0.2,0.6-0.6v-26.7c0-0.3-0.2-0.6-0.6-0.6c-0.3,0-0.6,0.2-0.6,0.6
		v26.7C164.2,607.6,164.4,607.8,164.7,607.8z M174.4,670.8c0.3,0,0.6-0.2,0.6-0.6v-43.9c0-0.3-0.2-0.6-0.6-0.6
		c-0.3,0-0.6,0.2-0.6,0.6v43.9C173.8,670.6,174,670.8,174.4,670.8z M164.7,670.8c0.3,0,0.6-0.2,0.6-0.6v-43.9c0-0.3-0.2-0.6-0.6-0.6
		c-0.3,0-0.6,0.2-0.6,0.6v43.9C164.2,670.6,164.4,670.8,164.7,670.8z M155.2,670.8c0.3,0,0.6-0.2,0.6-0.6v-43.9
		c0-0.3-0.2-0.6-0.6-0.6c-0.3,0-0.6,0.2-0.6,0.6v43.9C154.7,670.6,154.9,670.8,155.2,670.8z M222,625.9c-0.3,0-0.6,0.2-0.6,0.6v43.9
		c0,0.3,0.2,0.6,0.6,0.6c0.3,0,0.6-0.2,0.6-0.6v-43.9C222.5,626.2,222.3,625.9,222,625.9z M231.5,625.9c-0.3,0-0.6,0.2-0.6,0.6v43.9
		c0,0.3,0.2,0.6,0.6,0.6c0.3,0,0.6-0.2,0.6-0.6v-43.9C232.1,626.2,231.8,625.9,231.5,625.9z M241.1,670.8c0.3,0,0.6-0.2,0.6-0.6
		v-43.9c0-0.3-0.2-0.6-0.6-0.6c-0.3,0-0.6,0.2-0.6,0.6v43.9C240.6,670.6,240.8,670.8,241.1,670.8z M431.9,754.5h32.4
		c0.3,0,0.6-0.2,0.6-0.6c0-0.3-0.2-0.6-0.6-0.6h-32.4c-0.3,0-0.6,0.2-0.6,0.6C431.4,754.2,431.6,754.5,431.9,754.5z M492.2,754.5
		h32.4c0.3,0,0.6-0.2,0.6-0.6c0-0.3-0.2-0.6-0.6-0.6h-32.4c-0.3,0-0.6,0.2-0.6,0.6C491.7,754.2,491.9,754.5,492.2,754.5z M472.9,746
		h10.8c0.3,0,0.6-0.2,0.6-0.6c0-0.3-0.2-0.6-0.6-0.6h-10.8c-0.3,0-0.6,0.2-0.6,0.6C472.3,745.7,472.6,746,472.9,746z M472.9,737.5
		h10.8c0.3,0,0.6-0.2,0.6-0.6c0-0.3-0.2-0.6-0.6-0.6h-10.8c-0.3,0-0.6,0.2-0.6,0.6C472.3,737.2,472.6,737.5,472.9,737.5z M453.6,746
		h10.8c0.3,0,0.6-0.2,0.6-0.6c0-0.3-0.2-0.6-0.6-0.6h-10.8c-0.3,0-0.6,0.2-0.6,0.6C453.1,745.7,453.3,746,453.6,746z M453.6,737.5
		h10.8c0.3,0,0.6-0.2,0.6-0.6c0-0.3-0.2-0.6-0.6-0.6h-10.8c-0.3,0-0.6,0.2-0.6,0.6C453.1,737.2,453.3,737.5,453.6,737.5z M492.2,746
		H503c0.3,0,0.6-0.2,0.6-0.6c0-0.3-0.2-0.6-0.6-0.6h-10.8c-0.3,0-0.6,0.2-0.6,0.6C491.7,745.7,491.9,746,492.2,746z M492.2,737.5
		H503c0.3,0,0.6-0.2,0.6-0.6c0-0.3-0.2-0.6-0.6-0.6h-10.8c-0.3,0-0.6,0.2-0.6,0.6C491.7,737.2,491.9,737.5,492.2,737.5z
		 M472.9,754.5h10.8c0.3,0,0.6-0.2,0.6-0.6c0-0.3-0.2-0.6-0.6-0.6h-10.8c-0.3,0-0.6,0.2-0.6,0.6
		C472.3,754.2,472.6,754.5,472.9,754.5z M472.9,729.1h10.8c0.3,0,0.6-0.2,0.6-0.6s-0.2-0.6-0.6-0.6h-10.8c-0.3,0-0.6,0.2-0.6,0.6
		S472.6,729.1,472.9,729.1z M453.6,729.1h10.8c0.3,0,0.6-0.2,0.6-0.6s-0.2-0.6-0.6-0.6h-10.8c-0.3,0-0.6,0.2-0.6,0.6
		C453.1,728.7,453.3,729.1,453.6,729.1z M492.2,729.1H503c0.3,0,0.6-0.2,0.6-0.6s-0.2-0.6-0.6-0.6h-10.8c-0.3,0-0.6,0.2-0.6,0.6
		S491.9,729.1,492.2,729.1z M472.9,720.5h10.8c0.3,0,0.6-0.2,0.6-0.6c0-0.3-0.2-0.6-0.6-0.6h-10.8c-0.3,0-0.6,0.2-0.6,0.6
		C472.3,720.2,472.6,720.5,472.9,720.5z M453.6,720.5h10.8c0.3,0,0.6-0.2,0.6-0.6c0-0.3-0.2-0.6-0.6-0.6h-10.8
		c-0.3,0-0.6,0.2-0.6,0.6C453.1,720.2,453.3,720.5,453.6,720.5z M492.2,720.5H503c0.3,0,0.6-0.2,0.6-0.6c0-0.3-0.2-0.6-0.6-0.6
		h-10.8c-0.3,0-0.6,0.2-0.6,0.6C491.6,720.2,491.9,720.5,492.2,720.5z M431.9,763h32.4c0.3,0,0.6-0.2,0.6-0.6c0-0.3-0.2-0.6-0.6-0.6
		h-32.4c-0.3,0-0.6,0.2-0.6,0.6C431.4,762.7,431.6,763,431.9,763z M492.2,763h32.4c0.3,0,0.6-0.2,0.6-0.6c0-0.3-0.2-0.6-0.6-0.6
		h-32.4c-0.3,0-0.6,0.2-0.6,0.6C491.7,762.7,491.9,763,492.2,763z M472.9,763h10.8c0.3,0,0.6-0.2,0.6-0.6c0-0.3-0.2-0.6-0.6-0.6
		h-10.8c-0.3,0-0.6,0.2-0.6,0.6C472.3,762.7,472.6,763,472.9,763z M431.9,771.5h32.4c0.3,0,0.6-0.2,0.6-0.6c0-0.3-0.2-0.6-0.6-0.6
		h-32.4c-0.3,0-0.6,0.2-0.6,0.6C431.4,771.2,431.6,771.5,431.9,771.5z M472.9,771.5h10.8c0.3,0,0.6-0.2,0.6-0.6
		c0-0.3-0.2-0.6-0.6-0.6h-10.8c-0.3,0-0.6,0.2-0.6,0.6C472.3,771.2,472.6,771.5,472.9,771.5z M431.9,780h32.4c0.3,0,0.6-0.2,0.6-0.6
		c0-0.3-0.2-0.6-0.6-0.6h-32.4c-0.3,0-0.6,0.2-0.6,0.6C431.4,779.7,431.6,780,431.9,780z M472.9,780h10.8c0.3,0,0.6-0.2,0.6-0.6
		c0-0.3-0.2-0.6-0.6-0.6h-10.8c-0.3,0-0.6,0.2-0.6,0.6C472.3,779.7,472.6,780,472.9,780z M431.9,788.3h32.4c0.3,0,0.6-0.2,0.6-0.6
		s-0.2-0.6-0.6-0.6h-32.4c-0.3,0-0.6,0.2-0.6,0.6C431.4,788.1,431.6,788.3,431.9,788.3z M472.9,788.3h10.8c0.3,0,0.6-0.2,0.6-0.6
		s-0.2-0.6-0.6-0.6h-10.8c-0.3,0-0.6,0.2-0.6,0.6S472.6,788.3,472.9,788.3z M431.9,797h32.4c0.3,0,0.6-0.2,0.6-0.6
		c0-0.3-0.2-0.6-0.6-0.6h-32.4c-0.3,0-0.6,0.2-0.6,0.6C431.4,796.7,431.6,797,431.9,797z M483.7,661.3h-10.8c-0.3,0-0.6,0.2-0.6,0.6
		c0,0.3,0.2,0.6,0.6,0.6h10.8c0.3,0,0.6-0.2,0.6-0.6C484.2,661.5,484,661.3,483.7,661.3z M483.7,652.8h-10.8c-0.3,0-0.6,0.2-0.6,0.6
		c0,0.3,0.2,0.6,0.6,0.6h10.8c0.3,0,0.6-0.2,0.6-0.6C484.2,653,484,652.8,483.7,652.8z M483.7,669.7h-10.8c-0.3,0-0.6,0.2-0.6,0.6
		c0,0.3,0.2,0.6,0.6,0.6h10.8c0.3,0,0.6-0.2,0.6-0.6C484.2,670,484,669.7,483.7,669.7z M483.7,644.3h-10.8c-0.3,0-0.6,0.2-0.6,0.6
		c0,0.3,0.2,0.6,0.6,0.6h10.8c0.3,0,0.6-0.2,0.6-0.6C484.2,644.5,484,644.3,483.7,644.3z M483.7,678.3h-10.8c-0.3,0-0.6,0.2-0.6,0.6
		c0,0.3,0.2,0.6,0.6,0.6h10.8c0.3,0,0.6-0.2,0.6-0.6C484.2,678.5,484,678.3,483.7,678.3z M483.7,686.7h-10.8c-0.3,0-0.6,0.2-0.6,0.6
		c0,0.3,0.2,0.6,0.6,0.6h10.8c0.3,0,0.6-0.2,0.6-0.6C484.2,686.9,484,686.7,483.7,686.7z M483.7,695.3h-10.8c-0.3,0-0.6,0.2-0.6,0.6
		c0,0.3,0.2,0.6,0.6,0.6h10.8c0.3,0,0.6-0.2,0.6-0.6C484.2,695.5,484,695.3,483.7,695.3z M304.5,577.2c0.3,0,0.6-0.2,0.6-0.6V520
		c0-0.3-0.2-0.6-0.6-0.6c-0.3,0-0.6,0.2-0.6,0.6v56.6C303.9,577,304.3,577.2,304.5,577.2z M317.6,577.2c0.3,0,0.6-0.2,0.6-0.6V520
		c0-0.3-0.2-0.6-0.6-0.6s-0.6,0.2-0.6,0.6v56.6C317.2,577,317.4,577.2,317.6,577.2z M379.5,519.6c-0.3,0-0.6,0.2-0.6,0.6v56.6
		c0,0.3,0.2,0.6,0.6,0.6s0.6-0.2,0.6-0.6v-56.6C380.1,519.9,379.7,519.6,379.5,519.6z M366.4,519.6c-0.3,0-0.6,0.2-0.6,0.6v56.6
		c0,0.3,0.2,0.6,0.6,0.6s0.6-0.2,0.6-0.6v-56.6C366.8,519.9,366.6,519.6,366.4,519.6z M648,535.5c0,168.8-137.2,306-306,306
		S36,704.3,36,535.5s137.2-306,306-306S648,366.7,648,535.5z M204.8,480.3V471l-3.9-6h-5.6l-3.9,6v9.3H204.8z M193.2,511.7
		c-0.6,11-1.2,22.8-3.4,34.6c-0.6,2.9-1.2,6-1.9,8.8h20.4c-0.7-2.9-1.4-5.9-1.9-8.8c-2.3-11.9-2.9-24.1-3.4-34.6
		c-0.5-9.6-0.7-19.4-0.9-27.9h-8C194,492.4,193.8,502.1,193.2,511.7z M170.4,558.8v10.4h55.4v-10.4H170.4z M157.7,572.8v42.3h26.2
		c1,0,1.8,0.8,1.8,1.8v169.4c2.4,1.5,4.8,2.8,7.3,4.3v-210c0-0.3,0.2-0.6,0.6-0.6c0.3,0,0.6,0.2,0.6,0.6v210.7
		c2.8,1.7,5.7,3.2,8.5,4.8V580.5c0-0.3,0.2-0.6,0.6-0.6c0.3,0,0.6,0.2,0.6,0.6v216.1c2.5,1.2,4.8,2.6,7.3,3.6V616.9
		c0-1,0.8-1.8,1.8-1.8h26v-42.3L157.7,572.8L157.7,572.8z M253.8,681.6h-39.6v120.6c2.4,1.1,4.8,2.3,7.3,3.2v-116
		c0-0.3,0.2-0.6,0.6-0.6c0.3,0,0.6,0.2,0.6,0.6v116.5c2.8,1.2,5.7,2.5,8.5,3.6V689.4c0-0.3,0.2-0.6,0.6-0.6c0.3,0,0.6,0.2,0.6,0.6
		V810c2.8,1.1,5.7,2.4,8.5,3.3V689.4c0-0.3,0.2-0.6,0.6-0.6c0.3,0,0.6,0.2,0.6,0.6v124.3c4,1.5,8,2.8,12.1,4.1L253.8,681.6
		L253.8,681.6z M247.6,618.6h-33.3V678h33.3V618.6z M147.4,618.6V678H182v-59.4H147.4z M142.5,681.6v72.1c3.9,3.5,8,7.1,12.1,10.5
		v-74.8c0-0.3,0.2-0.6,0.6-0.6c0.3,0,0.6,0.2,0.6,0.6V765c2.8,2.4,5.7,4.5,8.5,6.7v-82.2c0-0.3,0.2-0.6,0.6-0.6
		c0.3,0,0.6,0.2,0.6,0.6v83.1c2.8,2.2,5.7,4.1,8.5,6.1v-89.2c0-0.3,0.2-0.6,0.6-0.6c0.3,0,0.6,0.2,0.6,0.6v89.9
		c2.4,1.7,4.8,3.2,7.3,4.8V681.7h-39.8v-0.1H142.5z M343.8,427.2h12.9l-13-42.5v42.5H343.8z M340.2,384.8l-12.9,42.4h13L340.2,384.8
		L340.2,384.8z M308.3,430.8v19.6h67.3v-19.6H308.3z M341.8,475.3l-0.9,10.3h2.4l-0.9-10.3H341.8z M342.1,474.3l-0.1-1.8l-0.1,1.8
		H342.1z M391,780v-10.3h-19.2l0.9,10.3H391z M372.9,781l0.9,10.3H391V781H372.9z M391,768.6v-10.3h-20.1l0.9,10.3H391z M391,757.3
		V747h-21.1l0.9,10.3H391z M391,746v-10.3h-22.1l0.9,10.3H391z M391,734.6v-10.3h-23.1l0.9,10.3H391z M391,723.3V713h-24l0.9,10.3
		H391z M391,712.1v-10.3h-25.2l0.9,10.3H391z M391,700.7v-10.3h-26.1l0.9,10.3H391z M391,689.4v-10.3h-27.1l0.9,10.3H391z
		 M391,678.1v-10.3h-28.1l0.9,10.3H391L391,678.1z M391,666.7v-10.3h-29.1l0.9,10.3H391z M391,655.4v-10.3h-30.1l0.9,10.3H391z
		 M391,644.1v-10.2h-31.2l0.9,10.3L391,644.1L391,644.1z M391,632.7v-10.3h-32.1l0.9,10.3H391z M391,621.5v-10.3h-33.1l0.9,10.3H391
		z M391,610.2v-10.3h-34.1l0.9,10.3H391z M391,598.9v-10.3h-35.1l0.9,10.3H391z M391,587.5v-78.2h-42.2l6.9,78.2H391z M391,508.3
		V498h-43.1l0.9,10.3H391z M391,497v-10.3h-44.1l0.9,10.3H391z M343.2,486.7h-2.6l-0.9,10.3h4.3L343.2,486.7z M339.7,498l-0.9,10.3
		h6.3l-0.9-10.3H339.7z M338.8,509.3l-0.9,10.3h8.4l-0.9-10.3H338.8z M336.8,531h10.3l-0.9-10.3h-8.5L336.8,531z M335.8,542.2h12.4
		l-0.9-10.3h-10.5L335.8,542.2z M334.7,553.5H349l-0.9-10.3h-12.6L334.7,553.5z M333.7,564.9H350l-0.9-10.3h-14.5L333.7,564.9z
		 M332.8,576.2H351l-0.9-10.3h-16.5L332.8,576.2z M331.8,587.5h20.3l-0.9-10.3h-18.6L331.8,587.5z M331.8,588.5l-0.9,10.3h22.3
		l-0.9-10.3H331.8z M330.7,599.9l-0.9,10.3h24.5l-0.9-10.3H330.7L330.7,599.9z M329.6,611.2l-0.9,10.3h26.4l-0.9-10.3H329.6
		L329.6,611.2z M328.6,622.5l-0.9,10.3h28.4l-0.9-10.3H328.6z M327.7,633.9l-0.9,10.3h30.5l-0.9-10.3H327.7z M326.7,645.2l-0.9,10.3
		h32.4l-0.9-10.3H326.7z M325.7,656.4l-0.9,10.3h34.5l-0.9-10.3H325.7z M324.7,667.8l-0.9,10.3h36.5l-0.9-10.3H324.7z M323.6,679.1
		l-0.9,10.3h38.5l-0.9-10.3H323.6z M322.6,690.4l-0.9,10.3h40.5l-0.9-10.3H322.6z M321.7,701.8l-0.9,10.3h42.5l-0.9-10.3H321.7z
		 M320.7,713.1l-0.9,10.3h44.4l-0.9-10.3H320.7z M319.7,724.4l-0.9,10.3h46.5l-0.9-10.3H319.7z M318.7,735.8l-0.9,10.3h48.4
		l-0.9-10.3H318.7z M317.6,747l-0.9,10.3h50.4l-0.9-10.3H317.6z M316.6,758.3l-0.9,10.3h52.5l-0.9-10.3H316.6z M315.7,769.6
		l-0.9,10.3h54.4l-0.9-10.3H315.7z M314.7,781l-0.9,10.3h56.4l-0.9-10.3H314.7z M313.7,792.3l-0.9,10.3h58.5l-0.9-10.3H313.7
		L313.7,792.3z M374.9,802.6H391v-10.3h-17.1L374.9,802.6z M391,475.3h-45.1l0.9,10.3H391V475.3L391,475.3z M338.1,475.3H293v10.3
		h44.2L338.1,475.3z M293,486.7V497h43.2l0.9-10.3H293z M293,498v10.3h42.2l0.9-10.3H293z M293,509.3v78.2h35.2l6.9-78.2H293z
		 M293,588.5v10.3h34.2l0.9-10.3H293z M293,599.9v10.3h33.2l0.9-10.3H293L293,599.9z M293,611.2v10.3h32.2l0.9-10.3H293z M293,622.5
		v10.3h31.2l0.9-10.3H293z M293,633.9v10.3h30.3l0.9-10.3H293z M293,645.2v10.3h29.2l0.9-10.3H293z M293,656.4v10.3h28.2l0.9-10.3
		H293z M293,667.8v10.3h27.2l0.9-10.3H293z M293,679.1v10.3h26.2l0.9-10.3H293z M293,690.4v10.3h25.2l0.9-10.3H293z M293,701.8v10.3
		h24.3l0.9-10.3H293z M293,713.1v10.3h23.2l0.9-10.3H293z M293,724.4v10.3h22.2l0.9-10.3H293z M293,735.8v10.3h21.2l0.9-10.3H293z
		 M293,747v10.3h20.2l0.9-10.3H293z M293,758.3v10.3h19.3l0.9-10.3H293z M293,769.6V780h18.2l0.9-10.3H293V769.6z M293,781v10.3
		h17.2l0.9-10.3H293z M293,792.3v10.3h16.2l0.9-10.3H293z M293,803.6V814h15.1l0.9-10.3h-16V803.6z M311.7,813.8h60.4l-0.9-10.3
		h-58.7L311.7,813.8z M375.9,813.8H391v-10.3h-16.1L375.9,813.8z M391,464.1h-46.1l0.9,10.3H391V464.1L391,464.1z M339.2,464.1H293
		v10.3h45.2L339.2,464.1z M293,825.2h14.2l0.9-10.3H293V825.2L293,825.2z M310.8,825.2h62.4l-0.9-10.3h-60.6L310.8,825.2z
		 M376.9,825.2h14.2V815H376L376.9,825.2z M376.9,826.3l0.2,2.8c4.6-0.6,9.2-1.2,13.8-2v-0.9L376.9,826.3L376.9,826.3z M391,453.9
		h-13.6h-33.5l0.8,9h46.2L391,453.9L391,453.9z M293,453.9v9h46.2l0.8-9h-33.5H293z M293,827.1c4.5,0.8,9.2,1.5,13.8,2l0.2-2.8
		h-14.2L293,827.1L293,827.1z M342,831.3c10.7,0,21.2-0.6,31.6-1.7l-0.3-3.3h-62.7l-0.3,3.3C320.8,830.6,331.3,831.3,342,831.3z
		 M438.2,702.8c4.4,1,8.8,1.8,13.5,2.5v-60.4c0.9-13.4,11.6-24.1,24.9-25c7.1-0.5,14.1,1.8,19.5,6.6c5.4,4.6,8.6,11.2,9.1,18.4v60.5
		c4.5-0.7,9-1.5,13.5-2.5V645c-0.9-22-19.7-39.3-41.8-38.4c-20.7,0.9-37.6,17.8-38.4,38.4L438.2,702.8z M471.4,549.1
		c-0.6,2.4-0.7,4.6-0.9,6.9c2.4-0.8,4.6-1.4,7.3-1.4c2.8,0,5.6,0.5,8.2,1.4c-0.1-2.3-0.3-4.5-0.9-7c-0.9-4.2-2.7-8.5-5.2-12.2
		c-0.6-0.8-1.1-1.6-1.7-2.4c-0.6,0.8-1.1,1.6-1.7,2.4C474.1,540.6,472.3,544.8,471.4,549.1z M457.4,578.8L457.4,578.8
		c5.1-4.6,11.8-7.7,19.3-8.2c8.4-0.5,16.3,2.4,22.7,7.9l0.1,0.1c-0.1-5.6-2.4-10.8-6.3-14.6c-4-3.9-9.3-6-14.8-5.9
		C466.6,558.4,457.6,567.5,457.4,578.8z M451.1,597.5c6.5-6,14.7-9.9,24.3-10.7c10.5-0.8,20.7,2.6,28.9,9.4c0.5,0.5,0.9,0.9,1.4,1.4
		c-1-6.2-4-12-8.7-16.3c-5.6-4.9-12.7-7.5-19.9-7C463.7,575.1,453.1,584.8,451.1,597.5z M442.5,621.5c7.7-10.8,19.9-18.1,34-18.7
		c15.3-0.7,29.2,6.8,37.4,18.6c-1.2-8.6-5.4-16.5-12.2-22.3c-7.4-6.3-16.7-9.3-26.2-8.6c-10.2,0.8-19.3,5.7-25.3,13
		c-0.1,0.1-0.2,0.3-0.3,0.5C446.2,608.8,443.4,614.8,442.5,621.5z M518.5,743.7v-23.6c-2.3,0.5-4.3,1-6.6,1.5v22.1H518.5
		L518.5,743.7z M511.8,707.9V718c2.3-0.5,4.3-0.9,6.6-1.5v-10C516.2,707,514,707.4,511.8,707.9z M531.4,743.7v-26.6
		c-3.1,0.8-6.2,1.7-9.3,2.4v24.4h9.3V743.7z M531.4,660.1c-0.3-5.8-4-10.8-9.3-12.8v68.5c3.1-0.8,6.2-1.6,9.3-2.4V660.1z
		 M501.3,705.8v-61c-0.5-6-3.2-11.7-7.9-15.8c-4.6-4.1-10.7-6.1-16.8-5.7c-11.4,0.8-20.7,10-21.5,21.5v60.9
		C470.4,707.8,486.2,707.8,501.3,705.8z M434.6,743.7v-24.4c-3.1-0.8-6.2-1.6-9.3-2.4v26.6h9.3V743.7z M444.8,743.7v-22.1
		c-2.3-0.5-4.3-0.9-6.6-1.5v23.6H444.8L444.8,743.7z M444.8,707.9c-2.3-0.5-4.4-0.9-6.6-1.4v10c2.3,0.5,4.3,1,6.6,1.5V707.9z
		 M434.6,647.2c-5.3,2-9,7-9.3,12.8v53.4c3.1,0.8,6.2,1.7,9.3,2.4V647.2z M425.2,819.3c5.6-1.7,11.1-3.4,16.4-5.3h-9.7
		c-0.3,0-0.6-0.2-0.6-0.6c0-0.3,0.2-0.6,0.6-0.6h12.7c6.1-2.3,12.1-4.8,18.1-7.5H432c-0.3,0-0.6-0.2-0.6-0.6s0.2-0.6,0.6-0.6h32.4
		c0.1,0,0.2,0,0.2,0.1c5.2-2.4,10.3-4.9,15.4-7.6h-7.3c-0.3,0-0.6-0.2-0.6-0.6c0-0.3,0.2-0.6,0.6-0.6h9.2c4.4-2.4,8.7-4.9,13-7.5
		H492c-0.3,0-0.6-0.2-0.6-0.6c0-0.3,0.2-0.6,0.6-0.6h4.5c3.9-2.5,7.8-4.9,11.6-7.5H492c-0.3,0-0.6-0.2-0.6-0.6
		c0-0.3,0.2-0.6,0.6-0.6h17.6c3.5-2.5,7-4.9,10.3-7.5H492c-0.3,0-0.6-0.2-0.6-0.6c0-0.3,0.2-0.6,0.6-0.6h29.2
		c3.3-2.6,6.7-5.2,10-7.9v-15.2H510c-1,0-1.8-0.8-1.8-1.8v-36.9c-1.5,0.2-2.8,0.5-4.3,0.7c-0.2,0.1-0.5,0.2-0.8,0.2
		c-0.1,0-0.1,0-0.2,0c-8.3,1.1-16.4,1.7-24.7,1.7s-16.5-0.7-24.7-1.7c-0.1,0-0.1,0-0.2,0c-0.2,0-0.6-0.1-0.8-0.2
		c-1.5-0.2-2.8-0.3-4.3-0.7v36.9c0,1-0.8,1.8-1.8,1.8H425L425.2,819.3L425.2,819.3z M637.8,535.5c0-163.1-132.7-295.8-295.8-295.8
		S46.2,372.4,46.2,535.5c0,84.5,35.7,160.8,92.7,214.8v-70.5c0-1,0.8-1.8,1.8-1.8h3.1v-61.1c0-1,0.8-1.8,1.8-1.8h8.5v-43.9
		c0-1,0.8-1.8,1.8-1.8h11v-12.2c0-1,0.8-1.8,1.8-1.8h15.6c0.7-3.2,1.5-6.3,2-9.5c2.2-11.6,2.8-23.2,3.3-34
		c0.5-9.6,0.7-19.3,0.9-27.8h-0.8c-1,0-1.8-0.8-1.8-1.8v-11.7c0-0.3,0.1-0.7,0.3-1l4.6-7.3c0.3-0.6,0.9-0.8,1.6-0.8h2v-82.2
		c0-1,0.8-1.8,1.8-1.8s1.8,0.8,1.8,1.8v81.9h2c0.7,0,1.2,0.3,1.6,0.8l4.6,7.3c0.2,0.3,0.3,0.7,0.3,1V482c0,1-0.8,1.8-1.8,1.8h-1
		c0.2,8.5,0.5,18.1,0.9,27.8c0.5,10.3,1.2,22.4,3.3,34c0.6,3.2,1.4,6.5,2,9.5h15.6c1,0,1.8,0.8,1.8,1.8v12.2h11c1,0,1.8,0.8,1.8,1.8
		v44h7.1c1,0,1.8,0.8,1.8,1.8v61h4.3c1,0,1.8,0.8,1.8,1.8v138.9c10.4,3.1,21.1,5.7,32.1,7.7v-374c0-1,0.8-1.8,1.8-1.8h13.6V429
		c0-1,0.8-1.8,1.8-1.8h16.9l16.8-54.6V273c0-1,0.8-1.8,1.8-1.8s1.8,0.8,1.8,1.8v99.4l16.8,54.6h16.9c1,0,1.8,0.8,1.8,1.8v21.3h13.6
		c1,0,1.8,0.8,1.8,1.8v374.3c9.1-1.7,18.2-3.7,27-6.2v-74.8v-85.5l0,0l0,0c0.3-7.8,5.7-14.3,13.1-16.4c0.5-5.4,1.8-10.5,4-15.3v-4.5
		c0.7-8.3,3.6-15.6,8.4-21.6v-1.6c0.3-6.7,2.8-12.7,6.7-17.6v-4c0.1-9.3,5.4-17.3,13.3-21.3c0.1-2.8,0.3-6,1-9.2
		c1-4.6,2.9-9.3,5.8-13.5c0.9-1.4,1.9-2.6,2.8-3.7V413.7c0-1,0.8-1.8,1.8-1.8s1.8,0.8,1.8,1.8v117.2c1,1.2,2,2.5,2.8,3.7
		c2.8,4.1,4.8,8.7,5.8,13.5c0.7,3.2,0.9,6.5,1,9.3c2,1.1,4,2.4,5.7,4c4.6,4.5,7.4,10.7,7.5,17.2v3.9c4,5,6.3,11.1,6.7,17.7v1.7
		c4.8,6.1,7.8,13.6,8.4,21.5v4.4c2.3,4.8,3.5,10,4,15.5c7.4,2.2,12.7,8.6,13,16.4l0,0l0,0v85.5v14.2
		C597.8,705,637.8,624.9,637.8,535.5z"/>
</g>
</svg>
