<?xml version="1.0" encoding="utf-8"?>
<!-- Generator: Adobe Illustrator 18.1.1, SVG Export Plug-In . SVG Version: 6.00 Build 0)  -->
<!DOCTYPE svg PUBLIC "-//W3C//DTD SVG 1.1//EN" "http://www.w3.org/Graphics/SVG/1.1/DTD/svg11.dtd">
<svg version="1.1" id="Layer_1" xmlns="http://www.w3.org/2000/svg" xmlns:xlink="http://www.w3.org/1999/xlink" x="0px" y="0px"
	 viewBox="36 230.1 612 611.4" enable-background="new 36 230.1 612 611.4" xml:space="preserve">
<g>
	<path fill="#404040" d="M328.9,680.2V548.8H201c1.1,47,7.6,91.6,18.4,131.4H328.9L328.9,680.2z"/>
	<path fill="#404040" d="M175.2,523c0.8-47.1,6.6-91.5,16.4-131.4H71.9C50.7,431.1,38,475.7,36,523H175.2z"/>
	<path fill="#404040" d="M199.3,705.9H87.5c42.4,63.2,107.8,109.8,184.1,127.8C241.2,805,216.3,760.6,199.3,705.9z"/>
	<path fill="#404040" d="M198.7,365.9c16.5-53.9,40.8-98,70.2-127.3C193.6,257,129.2,303.3,87.3,365.9H198.7z"/>
	<path fill="#404040" d="M328.9,840.5V705.9H227.2C250.4,775.3,287.1,825.6,328.9,840.5z"/>
	<path fill="#404040" d="M175.2,548.8H36c2,47.3,14.7,91.9,35.9,131.4h120.2C182.1,640.3,176.2,596,175.2,548.8z"/>
	<path fill="#404040" d="M201,523h128V391.7h-110C208.3,431.5,201.9,476.1,201,523z"/>
	<path fill="#404040" d="M328.9,365.9V230.1c-0.5,0-1.1,0-1.7,0c-41.5,15.8-77.7,66.4-100.8,135.8H328.9z"/>
	<path fill="#404040" d="M354.7,230.1v279.3l130-185.1c4.1-5.8,12.1-7.3,18-3.1c5.8,4.1,7.3,12.1,3.1,18L374,526.7l151.4,26.4
		c7,1.2,11.7,7.9,10.5,14.8c-1.1,6.3-6.5,10.7-12.7,10.7c-0.7,0-1.5-0.1-2.2-0.2l-166.1-29v292.2C517.6,835,648,700.3,648,535.9
		S517.6,236.8,354.7,230.1z M470.7,305.2l-19.6,39.3c-2.3,4.5-6.8,7.1-11.4,7.1c-1.9,0-3.9-0.5-5.8-1.4c-6.3-3.2-9-10.9-5.8-17.3
		l19.7-39.3c3.2-6.3,10.9-9,17.3-5.8C471.4,291,474,298.7,470.7,305.2z M530.5,422.3c-2.2,1.5-4.8,2.3-7.3,2.3c-4.1,0-8-2-10.7-5.6
		c-4-5.9-2.5-13.9,3.4-17.9l36.3-24.8c5.9-4,13.9-2.5,17.9,3.4c4,5.9,2.5,13.9-3.3,17.9L530.5,422.3z M481.3,774.1
		c-2,1.2-4.3,1.8-6.5,1.8c-4.4,0-8.7-2.3-11.1-6.3l-22.2-37.9c-3.6-6.1-1.5-14.1,4.6-17.7s14.1-1.5,17.7,4.6l22.2,38
		C489.4,762.6,487.4,770.5,481.3,774.1z M580.2,675.8c-2.4,4.1-6.7,6.3-11.1,6.3c-2.2,0-4.5-0.6-6.6-1.8l-37.9-22.4
		c-6.1-3.6-8.2-11.4-4.5-17.6c3.6-6.1,11.4-8.2,17.6-4.5l37.9,22.4C581.8,661.8,583.9,669.6,580.2,675.8z M605.6,548.8h-44
		c-7.1,0-12.9-5.8-12.9-12.9c0-7.1,5.8-12.9,12.9-12.9h44c7.1,0,12.9,5.8,12.9,12.9C618.5,543,612.8,548.8,605.6,548.8z"/>
</g>
</svg>
