<?xml version="1.0" encoding="utf-8"?>
<!-- Generator: Adobe Illustrator 18.1.1, SVG Export Plug-In . SVG Version: 6.00 Build 0)  -->
<!DOCTYPE svg PUBLIC "-//W3C//DTD SVG 1.1//EN" "http://www.w3.org/Graphics/SVG/1.1/DTD/svg11.dtd">
<svg version="1.1" id="Layer_1" xmlns="http://www.w3.org/2000/svg" xmlns:xlink="http://www.w3.org/1999/xlink" x="0px" y="0px"
	 viewBox="0 270.6 612.2 521.4" enable-background="new 0 270.6 612.2 521.4" xml:space="preserve">
<path fill="#404040" d="M480,352.1c-14.1,10.8-28.7,19.9-51.4,3.2l0.3,1.2c-16.7-36.4-42.8-57.8-59.6-66.4
	c-26.3-13.5-33-19.5-63.3-19.5s-37.1,6.1-63.3,19.5c-16.7,8.5-42.5,29.6-59.2,65.4v-0.2c-22.7,16.7-37.3,7.6-51.4-3.2
	C117.9,341.3,59.3,298.9,0,316.4c6.7,119.9,140.1,117.9,149.6,111.1c8.2-5.9,17.9-3.2,17.8-0.3c-0.1,1.9-0.2,3.8-0.2,5.7
	c0,84.9,37.1,175.2,49.9,214.9c12.8,39.8-10.8,47.2-10.8,95.7S306,792,306,792s99.7,0,99.7-48.5s-23.6-55.9-10.8-95.7
	c12.8-39.7,49.9-130,49.9-214.9c0-1.9-0.2-3.7-0.2-5.6c0-10.9,9.3-6,18,0.2c9.4,6.8,142.8,8.8,149.6-111.2
	C552.7,298.9,494.1,341.3,480,352.1z M197,455.2c-8.6,0-15.5-8.8-15.5-19.5c0-10.8,6.9-19.5,15.5-19.5c8.5,0,15.5,8.8,15.5,19.5
	S205.6,455.2,197,455.2z M239.9,762.6c-11.8,0-21.3-11.1-21.3-24.7c0-13.6,9.6-24.7,21.3-24.7c11.8,0,21.3,11.1,21.3,24.7
	C261.2,751.6,251.7,762.6,239.9,762.6z M369,762.6c-11.8,0-21.3-11.1-21.3-24.7c0-13.6,9.5-24.7,21.3-24.7s21.3,11.1,21.3,24.7
	C390.3,751.6,380.8,762.6,369,762.6z M382.7,355.7c-8.4,10.2-14.8,21.8-17.4,34.8c-5.7,29-4.1,57.6-17.2,84.9
	c-14.1,29.3-32.1,52.1-31.7,86.4c0.4,35.2,14,71.3,38.2,97c3.5,3.7,7.1,7.4,10.6,11c1.5,1.6,3,3.2,4.6,4.8
	c5.2,5.5,10.4,11.1,15.4,16.7c2.4,2.8,4.7,5.7,7.1,8.5c0.9,1.1,3.2,2.7,3.4,4.2c0.1,0.6-0.2,1.2-0.8,1.6c-0.6,0.4-1.5,0.5-2.2,0.2
	c-1.9-1.1-3.2-3.8-4.7-5.4c-4.3-4.5-9.4-8.6-14.5-12.1c-8.2-5.7-18-9.7-27.4-13.1c-11.6-4.1-24.2-5.9-36.5-5.9
	c-9.9,0-20.5,1.3-30.2,3.5c-14.3,3.4-29.3,10-41.7,18c-2.4,1.6-4.7,3-6.9,4.9c-1.9,1.7-4,4.4-6.5,5c-1.9,0.5-3.1-0.5-3-2.5
	c0.1-2.2,2-3.9,3.5-5.4c4.6-4.5,9.1-9.2,13.2-14.2c6.8-8.1,14.5-15.4,21.3-23.4c22.2-26.4,34.8-58.8,35.3-93.5
	c0.4-34.3-17.6-57.1-31.7-86.4c-13.2-27.3-11.6-56-17.2-84.9c-2.9-15-10.9-27.9-21.1-39.1c-5-5.5-14.8-11-14.9-19.1
	c-0.1-13.4,15.9-16.1,25.3-18.4c2.2-0.5,4.4-1,6.5-1.8c6.1-2.2,52.9-10.5,68.5-10.5c15.5,0,45.7,5.6,55.2,10.5
	c9.7,5,35.8,2.4,37.7,17.7C404.2,340.7,388.5,348.7,382.7,355.7z M416.6,455.2c-8.6,0-15.5-8.8-15.5-19.5c0-10.8,6.9-19.5,15.5-19.5
	s15.5,8.8,15.5,19.5S425.2,455.2,416.6,455.2z"/>
</svg>
