<?xml version="1.0" encoding="utf-8"?>
<!-- Generator: Adobe Illustrator 18.1.1, SVG Export Plug-In . SVG Version: 6.00 Build 0)  -->
<!DOCTYPE svg PUBLIC "-//W3C//DTD SVG 1.1//EN" "http://www.w3.org/Graphics/SVG/1.1/DTD/svg11.dtd">
<svg version="1.1" id="Layer_1" xmlns="http://www.w3.org/2000/svg" xmlns:xlink="http://www.w3.org/1999/xlink" x="0px" y="0px"
	 viewBox="72.6 264.9 612 612.7" enable-background="new 72.6 264.9 612 612.7" xml:space="preserve">
<path fill="#404040" d="M386.2,723.4c-20.9,0-38.2-16.7-38.2-38.2c0-20.9,16.7-38.2,38.2-38.2c21.5,0,38.2,16.7,38.2,38.2
	C423.7,706.9,407,723.4,386.2,723.4z M386.2,668.7c-9.7,0-17.3,7.6-17.3,17.3s7.6,17.3,17.3,17.3c9.7,0,17.3-7.6,17.3-17.3
	C403.5,676.3,395.3,668.7,386.2,668.7z"/>
<path fill="#404040" d="M554.2,723.4c-33.3,0-60.3-27.1-60.3-60.3c0-33.3,27.1-60.3,60.3-60.3c33.3,0,60.3,27.1,60.3,60.3
	C615.2,696.4,587.5,723.4,554.2,723.4z M554.2,623.6c-22.2,0-39.6,18-39.6,39.6c0,22.2,18,39.6,39.6,39.6c22.2,0,39.6-18,39.6-39.6
	C594.4,640.9,576.4,623.6,554.2,623.6z"/>
<rect x="409.8" y="513.1" transform="matrix(-0.2503 -0.9682 0.9682 -0.2503 -99.7023 1214.1797)" fill="#404040" width="20.9" height="265.1"/>
<polygon fill="#404040" points="455.6,640.2 434.8,640.2 434.8,515.3 562.5,515.3 562.5,613.1 541.7,613.1 541.7,536.2 455.6,536.2 
	"/>
<polygon fill="#404040" points="275.2,725 359.9,610.4 334.2,610.4 249.6,725 "/>
<rect x="121.9" y="708.2" fill="#404040" width="510" height="20.9"/>
<path fill="#404040" d="M378.6,877.5c-168.6,0-306-137.4-306-306s137.4-306.7,306-306.7s306,137.4,306,306S547.2,877.5,378.6,877.5z
	 M378.6,285.7C221.1,285.7,93.5,414,93.5,571.5s127.6,285.1,285.1,285.1s285.1-127.6,285.1-285.1S536.1,285.7,378.6,285.7z"/>
<path fill="#404040" d="M144.1,663.1h-41.7v-20.9H144c11.1,0,20.1-9.1,20.1-20.1v-21.5h20.9v21.5C185,645.1,167,663.1,144.1,663.1z"
	/>
<path fill="#404040" d="M144.1,607.6H89.3v-20.9H144c11.1,0,20.1-9.1,20.1-20.1v-5.6h20.9v5.6C185,589.6,167,607.6,144.1,607.6z"/>
<path fill="#404040" d="M144.1,557h-29.9v-20.9H144c11.1,0,20.1-9.1,20.1-20.1h20.9C185,538.2,167,557,144.1,557z"/>
<path fill="#404040" d="M144.1,508.4h-14.6v-20.9h14.6c11.1,0,20.1-9.1,20.1-20.1H185C185,490.4,167,508.4,144.1,508.4z"/>
<rect x="164.2" y="430.8" fill="#404040" width="20.9" height="287.3"/>
<path fill="#404040" d="M271.2,663.1h-65.8c-22.2,0-40.9-18-40.9-40.9v-21.5h20.9v21.5c0,11.1,9.1,20.1,20.1,20.1h65.8L271.2,663.1
	L271.2,663.1z"/>
<path fill="#404040" d="M253.8,607.6H206c-22.2,0-40.9-18-40.9-40.9v-5.6h20.9v5.6c0,11.1,9.1,20.1,20.1,20.1h47.8V607.6z"/>
<path fill="#404040" d="M235,557h-29.8c-22.2,0-40.9-18-40.9-40.9h20.9c0,11.1,9.1,20.1,20.1,20.1H235V557L235,557z"/>
<path fill="#404040" d="M220.4,508.4h-14.6c-22.2,0-40.9-18-40.9-40.9h20.9c0,11.1,9.1,20.1,20.1,20.1h14.6V508.4z"/>
</svg>
