<?xml version="1.0" encoding="utf-8"?>
<!-- Generator: Adobe Illustrator 18.1.1, SVG Export Plug-In . SVG Version: 6.00 Build 0)  -->
<!DOCTYPE svg PUBLIC "-//W3C//DTD SVG 1.1//EN" "http://www.w3.org/Graphics/SVG/1.1/DTD/svg11.dtd">
<svg version="1.1" id="Layer_1" xmlns="http://www.w3.org/2000/svg" xmlns:xlink="http://www.w3.org/1999/xlink" x="0px" y="0px"
	 viewBox="52.6 263.3 612 600" enable-background="new 52.6 263.3 612 600" xml:space="preserve">
<g transform="scale(1 -1)">
	<g transform="translate(0 -75)">
		<g>
			<path marker-end="none" marker-start="none" fill="#404040" d="M64.5-787.9l-11.9,23.6l11.9,22.6c-3.1,11.9,0,25,8.5,39.4
				l-13.7-0.2l6.7,9.5l-1.8,8.7l5.6,3.7l7.1,12.7l8.3-14.1c0.8,0.8,1.8,1.5,2.6,2.2c-5,7.1-8.3,15.2-5.6,22.6
				c6.8,18,27,30.3,51.7,25.7l13,1.7c-6.9,5.6-11.9,13.5-13.4,22.9l-0.9,6.2c-3.1,19.7,10.4,38.2,30.1,41.3
				c17.8,4.1,39.7,8.6,63.7,12.9l-2,12.9l-81.1-12.7l-15.1,97.2h0.3l-2.7,17.9l66.3,10.1c7.8,1.2,15.1-4.1,16.3-11.9l0.6-3.5
				l39.4,6.1l0.2-0.2l77.1-33.4l94.3,1.8l4.2-27.4c1-7-3.7-13.6-10.8-14.7l-82.7-12.9l2-12.6c31.4,4.3,60.7,7.8,83.5,9.7
				c19.7,3.1,38.2-10.4,41.3-30.1l0.9-6.2c0.3-2,0.5-4,0.5-6l50.3,34.7l9.1-14.7l-18.7-46.9l119.1-40.2l-8.8-31.5
				c18.7-7.1,32-24.3,32-44c0-5.7-1.1-11.2-3.2-16.4l14.1-2.7l11.9-63.9H64.5V-787.9z M168.2-621l25.3,46.7l83-30.3l33,5.2
				l24.5,27.4l27.7,4.2l13.7-8.8c7.5,4,16.2,6.1,25.4,6.1c8.4,0,16.2-1.8,23.1-5l14.3,1.6c3.3,4.1,4.9,9.5,4,15.1l-0.9,6.2
				c-1.7,10.5-11.7,17.9-22.2,16.2l-0.6-0.1h-0.6c-65.6-5.6-186.9-24.3-250.9-39.1l-0.7-0.1l-0.7-0.1c-10.5-1.7-17.9-11.7-16.2-22.2
				l0.9-6.2C151.5-613.8,159.2-620.4,168.2-621z M568.2-594.5c-18.5,1.9-36.2,9.3-54.2,15.8l2.6,10c11.8-1.8,23.5-3.9,35.6-0.3
				l27.2,94.1l-8.2,5.6l-37.5,145.2L445-402.5c-11.1-8.6-21-21.6-29.6-38.3l-0.3,0.1c-7.7,21.1-19.7,51.9-31.7,75.5
				c0.8,0.6,1.6,1.1,2.4,1.7l133.7,94.3l-5.7,22.1l39.8,56c4.2,3.6,9.3,4.9,17.1-3.4l36.8-65.8l9.3-206.4l-1-2.3
				C693-501.8,654.6-603.4,568.2-594.5z M97.1-540.1L94.5-523l0,0l-11.2,71.9c-1,7,3.7,13.6,10.8,14.7l20.1,3.2l2.6-17.1l15.2-97.2
				l-20.1-3.2C104.7-552,98.2-547.2,97.1-540.1z M302.8-443.8l-56.1,24.4c-1.4,24.9-1.5,42.5-2.8,67.4l37.2,13.5l77.4,12
				c3.3-4.8,6.3-9.5,9.3-14.3l-78.7-13L302.8-443.8z"/>
		</g>
	</g>
</g>
</svg>
