<?xml version="1.0" encoding="utf-8"?>
<!-- Generator: Adobe Illustrator 18.1.1, SVG Export Plug-In . SVG Version: 6.00 Build 0)  -->
<!DOCTYPE svg PUBLIC "-//W3C//DTD SVG 1.1//EN" "http://www.w3.org/Graphics/SVG/1.1/DTD/svg11.dtd">
<svg version="1.1" id="Layer_1" xmlns="http://www.w3.org/2000/svg" xmlns:xlink="http://www.w3.org/1999/xlink" x="0px" y="0px"
	 viewBox="313.3 169.9 520.2 792.4" enable-background="new 313.3 169.9 520.2 792.4" xml:space="preserve">
<path fill="#404040" d="M611.3,898.1h-99.9c0.9-1.5,1.8-2.8,2.6-4.1c4.8-7.6,10.6-15.1,16.4-22.4h63.2c-9.1-12-19.5-23.9-30.8-35.6
	c3.2-3.4,6.5-6.5,9.7-9.7c3.1-3.1,6.2-6.2,9.2-9.2c17,17.9,32.7,35.9,45.2,55.4c14.7,22.9,26,49.1,28,76.6c0.6,7.3-6,13.3-13.3,13.3
	s-12.8-6-13.3-13.3C626.7,931.7,619.6,913.2,611.3,898.1z"/>
<path fill="#404040" d="M514.5,498.9c-68.5-28.3-237.6,7.6-194.2-279c65,95.3,201.7,84.5,227.8,248C495,416.6,417.5,410,354.3,307.8
	c56.9,114.5,136.1,127.9,184.9,167.6C530.7,482.7,522.4,490.5,514.5,498.9z"/>
<path fill="#404040" d="M466.1,962.2c-7.3,0-13.9-5.9-13.3-13.3c2.1-28,12.9-53.1,28-76.6c17-26.3,39.6-50.2,63.7-74.4
	c23.2-23.2,44.7-45.9,60.1-70c14.8-23.2,24.3-47.7,24.3-75.5c0-27.7-9.5-52.4-24.3-75.5c-10.3-16-23.3-31.4-37.7-46.8
	c6.7-5.7,13.8-11.1,21.3-16.3c14.5,15.7,27.7,31.7,38.7,48.5c17.6,27.1,28.6,56.2,28.6,89.9c0,33.4-11.1,62.8-28.6,89.8
	c-17,26.3-39.6,50.2-63.7,74.4c-23.2,23.2-44.7,45.9-60.1,70c-12.5,19.2-21.7,39.7-23.6,62.2C478.8,956.2,473.4,962.2,466.1,962.2z"
	/>
<path fill="#404040" d="M594.1,490.1c-26.5,15.4-54,37.3-80.2,72h63.2c5.9,7.2,11.4,14.8,16.4,22.4c0.9,1.5,1.8,2.8,2.6,4.1h-99.9
	c-8.8,16-14.8,32.7-16.9,50.7h135.4c0.6,4.3,0.9,8.8,0.9,13.3c0,4.4-0.3,8.9-0.9,13.3H479.4c2.1,18.2,8.1,34.8,16.9,50.7h99.9
	c-0.9,1.5-1.8,2.8-2.6,4.1c-4.8,7.8-10.6,15.1-16.4,22.4h-63.2c9.1,12,19.5,23.9,30.8,35.6c-3.2,3.4-6.3,6.5-9.7,9.7
	c-3.1,3.1-6.2,6.2-9.2,9.2c-17-17.9-32.7-35.9-45.2-55.4C463,715.4,452,686.3,452,652.7c0-33.6,11.1-62.8,28.6-89.9
	c24.3-37.7,52.5-66.3,82.6-90.3c88.1-70.4,158-71.3,222.3-200.6c-73.3,118.8-163.4,126.6-225.1,186.3
	c3.4-149.2,189.1-177.3,264.6-288.2C876.4,508.9,682,439.3,594.1,490.1z"/>
</svg>
