<?xml version="1.0" encoding="utf-8"?>
<!-- Generator: Adobe Illustrator 18.1.1, SVG Export Plug-In . SVG Version: 6.00 Build 0)  -->
<!DOCTYPE svg PUBLIC "-//W3C//DTD SVG 1.1//EN" "http://www.w3.org/Graphics/SVG/1.1/DTD/svg11.dtd">
<svg version="1.1" id="Layer_1" xmlns="http://www.w3.org/2000/svg" xmlns:xlink="http://www.w3.org/1999/xlink" x="0px" y="0px"
	 viewBox="72 368.7 612 592.7" enable-background="new 72 368.7 612 592.7" xml:space="preserve">
<g>
	<path fill="#404040" d="M424.9,597c-2,0-3.4-0.7-4.8-2c-2.7-2.7-2-6.8,0.7-9.5L444,565l-44.2-2l25.2-48.3l-44.2,30.6l5.4-63.9
		l-29.9,48.3L338.6,446l-17.7,83.6L291,481.4l5.4,63.9l-44.2-30.6l25.2,48.3l-43.5,1.4l23.1,20.4c2.7,2.7,2.7,6.8,0.7,9.5
		c-2.7,2.7-6.8,2.7-9.5,0.7l-47.6-42.8l55.1-2l-40.1-77.5l65.3,45.6l-8.2-93.2l42.2,68.7l23.8-111.5l23.8,111.5l42.2-68.7l-8.2,93.2
		l65.3-45.6l-40.1,77.5l55.1,2L429,594.9C428.3,596.3,426.3,597,424.9,597z"/>
</g>
<path fill="#404040" d="M596.3,388.2c3.4-11.6-6.8-21.8-18.4-19l-141.4,35.4l7.5,34.7l32,6.1l6.8,33.3l30.6,6.8l8.2,33.3l34.7,8.8
	l0,0L596.3,388.2z"/>
<path fill="#404040" d="M607.8,784.7l-62.6-108.8c-6.1-10.2-20.4-10.2-26.5,0l-28.6,49.6l-20.4-35.4l-44.9-77.5L393.6,631
	l-29.2-17.7L337.9,631l-28.6-18.4L282.8,631l-29.9-18.4L208,690.1l-47.6,83h22.4h13.6v13.6v129.9h82.3c-8.2,3.4-16.3,7.5-24.5,11.6
	c-4.8,2-8.2,4.1-12.2,6.1c0,0-23.8,13.6-54.4,13.6c-19.7,0-41.5-8.2-48.3-32h43.5V786h-30.6h-18.4v-72.1h35.4c3.4,0,6.1-2.7,6.1-6.1
	v-6.1c0-3.4-2.7-6.1-6.1-6.1H84.9c-3.4,0-6.1,2.7-6.1,6.1v6.1c0,3.4,2.7,6.1,6.1,6.1h35.4V786H72v129.9h5.4h48.3
	c7.5,33.3,38.1,45.6,62.6,45.6c34,0,59.8-15,60.5-15c3.4-1.4,7.5-3.4,11.6-5.4c17.7-8.8,46.9-23.1,59.8-23.8h18.4h67.3h125.8h68.7
	H684L607.8,784.7z"/>
</svg>
