<?xml version="1.0" encoding="utf-8"?>
<!-- Generator: Adobe Illustrator 18.1.1, SVG Export Plug-In . SVG Version: 6.00 Build 0)  -->
<!DOCTYPE svg PUBLIC "-//W3C//DTD SVG 1.1//EN" "http://www.w3.org/Graphics/SVG/1.1/DTD/svg11.dtd">
<svg version="1.1" id="Layer_1" xmlns="http://www.w3.org/2000/svg" xmlns:xlink="http://www.w3.org/1999/xlink" x="0px" y="0px"
	 viewBox="221.5 85.7 537.8 791.9" enable-background="new 221.5 85.7 537.8 791.9" xml:space="preserve">
<g>
	<path fill="#404040" d="M593,821.1c-1.2-3.8-3.1-7.2-5.3-10.4L345.9,468c-5.1-7.4-3.4-17.4,3.9-22.5l37.3-26.5
		c8.1-5.7,11-16.7,5.8-25.1c-5.7-8.9-17.4-11.1-25.9-5.1l-137.1,96.9c-8.1,5.7-11,16.7-5.8,25.1c5.7,8.9,17.4,11.1,25.9,5.1l38.2-27
		c7.4-5.1,17.4-3.4,22.5,3.9l241.9,342.6c2.2,3.3,5,6,8.1,8.6l42.1,32.8c3.6,2.7,8.6-0.7,7.2-5L593,821.1z"/>
	<path fill="#404040" d="M758.4,478.3l-31.6-43.1c-2.4-3.3-5.1-6-8.2-8.4l-335-252.1c-7.2-5.3-8.6-15.5-3.3-22.5l27.5-36.5
		c6-7.9,5.3-19.3-2.2-25.6c-8.1-6.7-19.9-5.3-26.3,2.9l-101,134.2c-6,7.9-5.3,19.3,2.2,25.6c8.1,6.7,19.9,5.3,26.3-2.9l28.2-37.3
		c5.3-7.2,15.5-8.6,22.5-3.3l335,252.1c3.1,2.4,6.7,4.3,10.3,5.7l50.2,18.4C757.4,486.8,761.2,481.8,758.4,478.3z"/>
</g>
</svg>
