<?xml version="1.0" encoding="utf-8"?>
<!-- Generator: Adobe Illustrator 18.1.1, SVG Export Plug-In . SVG Version: 6.00 Build 0)  -->
<!DOCTYPE svg PUBLIC "-//W3C//DTD SVG 1.1//EN" "http://www.w3.org/Graphics/SVG/1.1/DTD/svg11.dtd">
<svg version="1.1" id="Layer_1" xmlns="http://www.w3.org/2000/svg" xmlns:xlink="http://www.w3.org/1999/xlink" x="0px" y="0px"
	 viewBox="94.1 109.9 455.5 419.3" enable-background="new 94.1 109.9 455.5 419.3" xml:space="preserve">
<g>
	<path fill="#404040" d="M461.5,252.8c13.2-62.4-10.3-110-70.9-142.6c61.9,101.2,42.5,161.9-58.2,181.9l-0.4,11.8
		c4.2,1.4,8.1,3.9,11.6,7.4c6.3,6.3,9.5,13.7,9.6,22.3c-0.2,1.8-0.3,3.7-0.5,5.3v0.4l10,5.4c68.4-71.9,130.5-58.2,186.3,40.7
		C554.1,324.4,525,280.4,461.5,252.8z"/>
	<path fill="#404040" d="M391,401.8c-11.6,11.6-24.6,19.5-38.9,24.2c0.7,9.3,2.8,17.7,6.3,25.3c18.9-5.8,36-16.1,51-31l0.2-0.2
		c24-24.4,36.1-53.7,36.1-87.9c0-8.1-0.7-15.6-1.9-23c-8.4,0.3-16.8,2.3-25.3,5.8c0.7,5.6,1.2,11.2,1.2,17.2
		c0,27-9.5,50.2-28.6,69.5L391,401.8z"/>
	<path fill="#404040" d="M352.6,362.5l-9.8-6.5c-5.8,5.8-12.6,8.6-20.7,8.6c-7.7,0-14.6-2.6-20.3-8.1l-9.8,6
		C319.9,458.1,277,505.3,163.1,504c50.2,34.9,103.1,31.8,158.9-9.7c47.7,42.6,100.7,46.1,159.5,10
		C362.6,507.2,319.6,460,352.6,362.5z"/>
	<path fill="#404040" d="M282,450.5c3.7-7.5,6.3-15.8,7.4-25.3c-13.9-4.6-26.5-12.5-37.5-23.7v0.2c-19.3-19.3-28.8-42.6-28.8-69.6
		c0-7.2,0.5-13.9,1.9-20.3c-8.6-3.9-17-6-25.3-6.3c-1.8,8.4-2.6,17.4-2.6,26.7c0,34.2,12.1,63.5,36.1,87.9v0.2
		C247.7,434.6,264,444.6,282,450.5z"/>
	<path fill="#404040" d="M257,257.6c18.1-15.8,39.5-23.8,64.4-23.8c26.1,0,48.6,8.8,67.4,26.5c7.7-5.4,13.7-11.8,18.2-18.8
		c-23.9-22.4-52.4-33.7-85.6-33.7c-31.6,0-58.9,10.2-81.9,30.3C243.8,245.3,249.6,251.8,257,257.6z"/>
	<path fill="#404040" d="M281.3,344.8l10-5.3v-0.2c-0.2-1.9-0.4-3.9-0.4-5.8c0-8.6,3-16,8.8-22.3c3.7-3.5,7.7-6,12.3-7.4l-0.4-11.8
		c-96.8-23.3-116.1-84.2-58.1-182.3c-55.4,26.1-79.1,73.5-71,142.4c-61,19.8-90.5,64.2-88.4,133.1
		C151,280.9,213.4,267.4,281.3,344.8z"/>
</g>
</svg>
