<?xml version="1.0" encoding="utf-8"?>
<!-- Generator: Adobe Illustrator 18.1.1, SVG Export Plug-In . SVG Version: 6.00 Build 0)  -->
<!DOCTYPE svg PUBLIC "-//W3C//DTD SVG 1.1//EN" "http://www.w3.org/Graphics/SVG/1.1/DTD/svg11.dtd">
<svg version="1.1" id="Layer_1" xmlns="http://www.w3.org/2000/svg" xmlns:xlink="http://www.w3.org/1999/xlink" x="0px" y="0px"
	 viewBox="42.7 340.1 612 539.2" enable-background="new 42.7 340.1 612 539.2" xml:space="preserve">
<g>
	<g>
		<path fill="#404040" d="M270.3,858.1L64,651.9l-4.1-4.1c-2.2-2.2-5.7-2.2-7.6,0l-8,8c-2.2,2.2-2.2,5.7,0,7.6l214.2,214.2
			c2.2,2.2,5.7,2.2,7.6,0l8-8c2.2-2.2,2.2-5.7,0-7.6L270.3,858.1z"/>
	</g>
	<g>
		<path fill="#404040" d="M372.5,756L166.2,549.9l-4.1-4.1c-2.2-2.2-5.7-2.2-7.6,0l-8,8c-2.2,2.2-2.2,5.7,0,7.6l4.1,4.1l-77.9,77.7
			L279,849.5l77.9-77.9l4.1,4.1c2.2,2.2,5.7,2.2,7.6,0l8-8c2.2-2.2,2.2-5.7,0-7.6L372.5,756z"/>
	</g>
	<g>
		<path fill="#404040" d="M474.3,654.1L268.3,447.9l-4.1-4.1c-2.2-2.2-5.7-2.2-7.6,0l-8,8c-2.2,2.2-2.2,5.7,0,7.6l4.1,4.1
			l-77.9,77.9l206.3,206.2l77.9-77.9l4.1,4.1c2.2,2.2,5.7,2.2,7.6,0l8-8c2.2-2.2,2.2-5.7,0-7.6L474.3,654.1z"/>
	</g>
	<g>
		<path fill="#404040" d="M564.7,571.7c2.2,2.2,5.7,2.2,7.6,0l8-8c2.2-2.2,2.2-5.7,0-7.6l-4.1-4.1L370,345.8l-4.1-4.1
			c-2.2-2.2-5.7-2.2-7.6,0l-8,8c-2.2,2.2-2.2,5.7,0,7.6l4.1,4.1l-77.9,77.7l206.3,206.3l77.9-77.9L564.7,571.7z"/>
	</g>
	<g>
		<path fill="#404040" d="M588.9,592.6c0,0-65.8,77.9-65.8,114.4c0,36.3,29.6,65.8,65.8,65.8c36.3,0,65.8-29.6,65.8-65.8
			C654.9,670.3,588.9,592.6,588.9,592.6z"/>
	</g>
</g>
</svg>
