<?xml version="1.0" encoding="utf-8"?>
<!-- Generator: Adobe Illustrator 18.1.1, SVG Export Plug-In . SVG Version: 6.00 Build 0)  -->
<!DOCTYPE svg PUBLIC "-//W3C//DTD SVG 1.1//EN" "http://www.w3.org/Graphics/SVG/1.1/DTD/svg11.dtd">
<svg version="1.1" id="Layer_1" xmlns="http://www.w3.org/2000/svg" xmlns:xlink="http://www.w3.org/1999/xlink" x="0px" y="0px"
	 viewBox="47.6 206.8 612 636.2" enable-background="new 47.6 206.8 612 636.2" xml:space="preserve">
<g>
	<path fill="#404040" d="M648.7,798.9h-56.8c0-0.5,0.1-0.8,0.1-1.2v-47.8c0-6-4.9-10.9-10.9-10.9h-10.5V537l32.1,15.5
		c4.4,2.2,9.3,3.2,13.9,3.2c11.9,0,23.5-6.8,29-18.1c7.7-16,0.9-35.2-15.1-43L246.4,309.7c2.2-3.7,4.1-7.6,5.3-11.4
		c1.7-4.9,2.6-9.6,3.1-14.3c0.5-4.5,0.6-8.7,0-12.5c-0.2-3.6-0.9-6.8-1.5-9s-0.9-3.4-0.9-3.4c-11.4-33.2-44.7-55.8-81.1-52
		c0,0-1.4,0.1-3.5,0.6c-2.2,0.6-5.3,1.1-8.7,2.5c-3.6,1.1-7.4,2.9-11.3,5.2c-4,2.3-7.9,5.2-11.7,8.7c-3.7,3.5-7.1,7.8-10.3,12.6
		c-3.3,4.6-6.5,9.7-9.6,15.2c-6.3,10.8-12,22.9-17,35.6c-5.1,12.6-9.6,25.5-14.4,37.2c-4.6,11.8-9.3,22.8-12.6,32.4
		c-3.3,9.6-5.8,18-7.3,23.9c-1.6,5.9-2.2,9.4-2.2,9.4c-1.9,11,0.3,23,7.1,33c6.7,9.6,16.5,15.8,27.2,18.1v357.7H58.5
		c-6,0-10.9,4.9-10.9,10.9v22c0,6,4.9,10.9,10.9,10.9h590.2c6,0,10.9-4.9,10.9-10.9v-22C659.6,803.9,654.7,798.9,648.7,798.9z
		 M506.6,738.9c-6,0-10.9,4.9-10.9,10.9v1.6l-93.8-295.6L516,510.7v228.1L506.6,738.9L506.6,738.9z M449.5,691.1l-69.1-38l48.6-26.6
		L449.5,691.1z M420.6,599.8l-42.2-29.7l26.7-19L420.6,599.8z M386,491.3l5.7,17.9l-14.1-11.1L386,491.3z M367.4,489.8l-10.4-8.2
		h20.6L367.4,489.8z M398.4,531h-61.5l30.6-24.6L398.4,531z M392.9,543.8l-25.7,18.4l-26-18.4H392.9L392.9,543.8z M367.2,578
		l46,32.5h-91.6L367.2,578z M408.2,623.3L366.9,646l-41.4-22.7H408.2L408.2,623.3z M443.5,702.4H290.4l76.6-41.9L443.5,702.4z
		 M437.6,715.4l-71.7,31.1l-70.2-31.1H437.6L437.6,715.4z M458.7,720.2l24.8,78.3l-101.8-45L458.7,720.2z M369.9,440.4l9,28.2h-22.7
		l9.5-30.3L369.9,440.4z M349,491.5l8.2,6.6l-13.8,11.1L349,491.5z M329.9,551.6l26.2,18.5l-41.5,29.5L329.9,551.6z M305.9,627.1
		l47.6,26.1l-67.7,37.1L305.9,627.1z M276.2,720.8l73.6,32.5l-97.2,42L276.2,720.8z M365.7,760.5l87,38.5h-176L365.7,760.5z
		 M551.4,738.9h-16.1V520l16.1,7.7V738.9z M109.7,442.1c7.5-0.7,14.8-3.2,21.5-7.7c0,0,3.1-2,7.7-5.9c4.8-3.9,11.3-9.5,18.7-16.7
		c7.4-7.1,15.5-15.8,24.3-24.9c7.7-8.2,16.1-16.5,24.5-25l136.1,65.4L224.5,799H109.7V442.1z"/>
</g>
</svg>
