<?xml version="1.0" encoding="utf-8"?>
<!-- Generator: Adobe Illustrator 18.1.1, SVG Export Plug-In . SVG Version: 6.00 Build 0)  -->
<!DOCTYPE svg PUBLIC "-//W3C//DTD SVG 1.1//EN" "http://www.w3.org/Graphics/SVG/1.1/DTD/svg11.dtd">
<svg version="1.1" id="Layer_1" xmlns="http://www.w3.org/2000/svg" xmlns:xlink="http://www.w3.org/1999/xlink" x="0px" y="0px"
	 viewBox="72.7 265 612 612.7" enable-background="new 72.7 265 612 612.7" xml:space="preserve">
<path fill="#404040" d="M378.7,877.6c-168.6,0-306-137.4-306-306S210.1,265,378.7,265s306,137.4,306,306S547.3,877.6,378.7,877.6z
	 M378.7,285.8c-157.5,0-285.1,128.3-285.1,285.8s127.6,285.1,285.1,285.1s285.1-127.6,285.1-285.1S536.2,285.8,378.7,285.8z"/>
<path fill="#404040" d="M596,736.2c-29.8,0-56.9-10.4-73.6-27.1c-16.7,16.7-43.7,27.1-73.6,27.1c-29.8,0-57.6-10.4-74.2-27.8
	c-16,17.3-43.7,27.8-74.2,27.8c-29.8,0-57.6-10.4-73.6-27.8c-16,16.7-43.7,27.8-73.6,27.8c-10.4,0-20.9-1.4-30.5-3.5l4.9-20.1
	c8.3,2,16.7,3.5,25.6,3.5c27.8,0,53.4-11.1,63.8-27.1l2.7-4.9h14.6l2.7,4.9c10.4,16,36,27.1,63.8,27.1s53.4-11.1,63.8-27.1l2.7-4.9
	h14.6l2.7,4.9c10.4,16,36,27.1,63.8,27.1c27.8,0,53.4-11.1,63.8-27.1l3.5-4.9h13.1l2.7,4.9c10.4,16,36,27.1,63.8,27.1
	c13.1,0,25.6-2,36.7-6.9l7.6,19.4C627.1,733.4,611.8,736.2,596,736.2z"/>
<path fill="#404040" d="M615.3,617.4c-31.2-26.4-102.7-45.8-162.4-4.2l-11.8-17.3c69.4-47.1,151.2-24.9,188.1,5.6L615.3,617.4z"/>
<path fill="#404040" d="M625.1,679.9c-34.7-22.9-147-38.9-204,0l-11.8-17.3c64.5-44.4,188.1-26.4,227.6,0L625.1,679.9z"/>
<polygon fill="#404040" points="344.7,527.2 324,527.2 324,430.2 132.4,430.2 132.4,409.2 344.7,409.2 "/>
<path fill="#404040" d="M346.1,723.5h-20.9c0-75.6,34-139.4,48.5-163.1l-154.1-84L86.6,557.8l-11.1-18l144.3-86.7l183.9,100.5
	l-6.9,9.7C396.7,563.4,346.1,636.8,346.1,723.5z"/>
<path fill="#404040" d="M520.9,453.1c-2.7-1.4-6.9-3.5-11.8-5.6l-63.1,27l14.6,0.7c-2,43-13.8,140.1-77.6,222.8l16.7,12.5
	c73.6-95,82.5-210.9,81.1-249.8c11.8,2,40.2,12.5,69.4,38.9c33.3,29.8,86,98.5,67.3,219.3l20.9,3.5
	C660.4,580.7,591.8,490.5,520.9,453.1z"/>
<rect x="442.9" y="343.1" transform="matrix(0.4076 0.9132 -0.9132 0.4076 701.3533 -133.219)" fill="#404040" width="20.9" height="261.6"/>
<rect x="210.7" y="361.4" fill="#404040" width="20.9" height="58.9"/>
<path fill="#404040" d="M536.2,497.4c-10.4-18.7-20.9-34.7-30.5-48.5L475.3,462c20.9,69.4,23.6,190.2-13.1,256.7l18,9.7
	c22.9-42.3,34-108.2,29.8-180.4c-1.4-22.2-4.2-46.5-9.1-69.4c36,56.2,75.6,142.9,51.3,229.7l20.1,5.6
	C591.1,648.6,578.6,573.7,536.2,497.4z"/>
</svg>
