<?xml version="1.0" encoding="utf-8"?>
<!-- Generator: Adobe Illustrator 18.1.1, SVG Export Plug-In . SVG Version: 6.00 Build 0)  -->
<!DOCTYPE svg PUBLIC "-//W3C//DTD SVG 1.1//EN" "http://www.w3.org/Graphics/SVG/1.1/DTD/svg11.dtd">
<svg version="1.1" id="Layer_1" xmlns="http://www.w3.org/2000/svg" xmlns:xlink="http://www.w3.org/1999/xlink" x="0px" y="0px"
	 viewBox="72.6 354.3 611.8 612.3" enable-background="new 72.6 354.3 611.8 612.3" xml:space="preserve">
<polygon fill="#404040" points="486.7,611.2 495.4,623.6 497.1,623.1 497.9,615.4 498.2,607 497.3,601.9 494.7,601.5 490.8,605.1 
	484.3,607.4 "/>
<path fill="#404040" d="M666.4,557.4c-0.5-1.2-0.9-2.4-1.4-3.6c-1.6-4.4-3.4-8.8-5.2-13.1c-0.8-2-1.7-3.9-2.6-5.8
	c-0.6-1.4-1.2-2.9-1.9-4.3c-1.7-3.5-3.4-7.1-5.2-10.5c-0.2-0.3-0.5-0.7-0.6-1c-2.8-5.4-5.8-10.7-9-15.9c-0.2-0.3-0.5-0.7-0.6-1
	c-3.3-5.6-6.8-10.9-10.5-16.1c-0.1-0.1-0.2-0.2-0.2-0.5c-22.9-33-51.6-60.3-84.1-81.5c-0.2-0.1-0.5-0.2-0.6-0.5
	c-5.3-3.4-10.7-6.7-16.1-9.7c-0.5-0.3-0.9-0.5-1.4-0.8c-5.3-2.9-10.8-5.8-16.3-8.4c-0.5-0.3-1.1-0.5-1.6-0.8
	c-5.6-2.6-11.2-5.1-16.9-7.4c-0.5-0.1-0.7-0.3-1.1-0.5c-5.8-2.3-11.7-4.4-17.6-6.3c-0.2-0.1-0.5-0.2-0.7-0.2
	c-6.2-2-12.4-3.9-18.7-5.4c-0.2-0.1-0.5-0.1-0.6-0.2l0,0c-24.6-6.3-50-9.5-75.6-9.5c-1.8,0-3.7,0.1-5.6,0.1c-1.2,0-2.4,0.1-3.6,0.1
	c-10.3,0.3-20.6,1.1-31.1,2.5c-1.5,0.2-2.9,0.5-4.6,0.6c-2.9,0.5-5.8,0.9-8.7,1.4c-2,0.5-4,0.8-6,1.2c-3.6,0.7-7.3,1.5-10.9,2.4
	c-3.1,0.7-6.2,1.5-9.3,2.3c-2,0.5-4,1.1-6,1.7c-3.2,0.9-6.3,1.9-9.4,2.9c-1.5,0.5-2.9,1-4.5,1.5c-4.6,1.6-9.2,3.3-13.8,5.1
	c-1,0.5-2,0.8-2.9,1.2c-4,1.6-7.9,3.4-11.8,5.2c-0.7,0.3-1.2,0.6-2,0.9c-0.5,0.2-0.8,0.5-1.2,0.6c-4.2,2-8.4,4.1-12.5,6.3
	c-0.8,0.5-1.6,0.9-2.4,1.2c-3.2,1.7-6.3,3.5-9.4,5.3c-1.9,1.1-3.7,2.3-5.6,3.4c-1.8,1.2-3.7,2.3-5.6,3.5c-2.2,1.4-4.4,2.8-6.5,4.3
	c-1,0.7-2,1.4-2.9,2.2c-8.5,6-16.7,12.4-24.4,19.2c-0.5,0.5-1.1,0.9-1.6,1.4c-2.6,2.3-5.2,4.6-7.8,7.1c-0.3,0.3-0.6,0.6-0.9,0.9
	c-7.9,7.5-15.3,15.4-22.3,23.6c-0.6,0.7-1.2,1.2-1.7,2c-1.9,2.3-3.9,4.6-5.6,7c-0.9,1.2-1.9,2.4-2.8,3.6c-1.7,2.2-3.3,4.3-4.9,6.5
	c-1.1,1.5-2.2,3.1-3.2,4.6c-1.4,2-2.8,4-4.2,6.1c-2.3,3.4-4.5,6.9-6.6,10.5c-0.9,1.5-1.7,2.9-2.6,4.5c-1.4,2.4-2.8,4.9-4.1,7.3
	c-0.9,1.7-1.8,3.3-2.6,5c-1.2,2.4-2.5,4.8-3.6,7.3c-0.8,1.7-1.6,3.4-2.4,5c-1.2,2.6-2.3,5.1-3.4,7.7c-0.7,1.6-1.4,3.2-2,4.8
	c-0.2,0.6-0.5,1.2-0.8,1.8l0.1-0.1c-9.3,23.9-15.9,49-19.3,74.5l0,0c-0.1,1-0.2,1.9-0.3,2.9c-0.6,4.6-1.1,9.1-1.4,13.7
	c-0.1,1.2-0.1,2.6-0.2,3.9c-0.3,4.3-0.5,8.7-0.6,13c0,1.2,0,2.5,0,3.7c0,4.4,0,9,0.1,13.3c0,1.1,0.1,2.2,0.2,3.4
	c0.2,4.5,0.5,9.1,0.9,13.6c0.1,1,0.2,2,0.3,2.9c0.5,4.6,1,9.2,1.7,13.8c0.1,1,0.3,2,0.5,2.9c0.7,4.5,1.5,9.1,2.4,13.6
	c0.2,1,0.5,2.2,0.6,3.1c0.9,4.3,2,8.6,3.1,12.9c0.3,1.2,0.6,2.4,1,3.7c1.1,3.9,2.3,7.9,3.5,11.8c0.5,1.5,1,3.1,1.5,4.6
	c1.2,3.4,2.4,6.8,3.7,10.2c0.7,2,1.4,3.9,2.2,5.9c1.2,2.9,2.4,5.8,3.7,8.8c1,2.3,2,4.6,2.9,6.9c0.2,0.5,0.5,0.9,0.6,1.4
	c1.9,4,3.9,7.9,5.9,11.8c0.5,0.8,0.9,1.6,1.2,2.4c2.2,4.2,4.6,8.3,7,12.4c0.3,0.5,0.5,0.9,0.8,1.4c2.9,4.8,5.9,9.4,9,14.1l0,0
	c57.8,85.2,153.8,134,253.4,134c43.7,0,88.1-9.4,130.1-29.1C652.6,870.3,719.2,704.5,666.4,557.4z M503.2,926.9
	c-39.6,18.5-81.5,28-124.8,28c-90.3,0-174.8-42-230.1-110.8c-0.8-2.2-1.6-4.1-2.4-6.2c3.4,0.5,6.8,0.8,10.1,1.2
	c1.8-0.6,3.7-1.1,5.6-1.7c0.6-4,1.2-8,1.9-12.1c-0.5-4.8-1-9.6-1.4-14.4c-0.9-2.3-1.8-4.6-2.7-7c1.2-0.8,2.4-1.6,3.6-2.4
	c0.6-2.3,1.1-4.5,1.7-6.8c1.8-1.2,3.5-2.4,5.3-3.6c0.2-4.1,0.5-8.2,0.7-12.4c-1-2.3-2.2-4.6-3.1-7c-2.3-1.2-4.6-2.6-7-3.9
	c-2.3-4-4.6-8-7-12.1c-3.1-1.8-6.3-3.5-9.4-5.3c-3.7-2.2-7.4-4.5-11.1-6.8c-2.2-3.9-4.2-7.5-6.3-11.3c-2.9-3.9-6.1-7.7-9.1-11.6
	c0-3.7,0-7.4,0-11.1c-1-3.4-2.2-6.8-3.1-10.1c-2.9-4.4-5.8-8.8-8.7-13.3c-2.2-5.2-4.2-10.4-6.3-15.8c-0.8-5.3-1.6-10.7-2.4-15.9
	c-0.9-3.4-1.8-6.9-2.6-10.4c-2.8-5.9-5.6-11.9-8.4-17.8c1.2-11,3.3-21.9,5.8-32.8l3.4,9.5l4.9,7.3l3.9,2.2l-4.3-9.3l-3.1-11
	l-0.2-10.4l-0.5-3.5c7.5-26,18.5-50.7,32.9-73.6c2.4-1.8,4.6-3.5,7.1-5.3c2.9-2.7,5.9-5.6,8.8-8.2c4.4-1.7,8.8-3.4,13.1-5.1
	c2.4-1,4.8-2,7.3-2.9c0.3,1.7,0.5,3.4,0.8,5.1c2.4,0,4.8,0.1,7.3,0.2c3.5-1.2,7-2.3,10.4-3.5c-3.2-1.2-6.3-2.3-9.6-3.5
	c2.2-1.9,4.2-3.9,6.3-5.7c1.7-1.7,3.4-3.5,5.1-5.2c-0.7-1.8-1.5-3.7-2.2-5.6c2-0.2,4-0.5,6-0.6c2.3,2.2,4.5,4.2,6.8,6.3
	c2.4-0.1,4.6-0.1,7.1-0.2c2.2-0.1,4.3-0.2,6.5-0.3c1.6-2.8,3.2-5.6,4.6-8.4c1.1-4,2.2-7.9,3.3-11.9c5.2-6.3,10.3-12.6,15.5-19.2
	c-3.6,0.9-7.3,1.9-10.9,2.8c2.7-3.4,5.4-6.7,8.2-10.1c1.8-2.9,3.7-5.9,5.6-9c-3.1,1.4-6.1,2.7-9.2,4.1c-4.4,3.4-8.8,6.8-13.3,10.1
	c-3.4,1.6-6.9,3.2-10.3,4.6c-4.8,1.9-9.6,3.9-14.4,5.7c4.5-3.9,9-7.7,13.4-11.6c1.2-1.8,2.3-3.7,3.4-5.6
	c11.6-8.3,23.8-15.9,36.9-22.7c2.2,0.2,4.1,0.5,6.2,0.7c0.3,2.2,0.5,4.4,0.8,6.6c-1.7,2.9-3.4,5.8-5.1,8.7c-1.4,2.4-2.7,4.8-4.1,7.3
	c3.9,0.1,7.7,0.1,11.6,0.2c4.1-2.2,8.2-4.3,12.4-6.5c4.6-2.2,9.5-4.4,14.2-6.6c4.2-1.8,8.4-3.7,12.6-5.6c-1.6-0.9-3.3-1.9-4.9-2.8
	c-0.2-1.6-0.3-3.3-0.5-4.9c1.8-2.2,3.6-4.1,5.4-6.2c0.9-2.2,1.9-4.1,2.8-6.2c1.4,1.2,2.8,2.5,4.3,3.9c0.7-0.9,1.4-1.8,2.2-2.7
	c1.6,0.5,3.3,1.1,4.9,1.6c2.9,0.3,5.8,0.5,8.7,0.8c-1.9,2.6-3.9,5.2-5.8,7.7c-1.1,1.2-2.2,2.5-3.3,3.9c-2.2,2.6-4.4,5.3-6.6,7.9
	c-3.5,3.1-7.1,6.1-10.7,9.2c-2.3,0.7-4.6,1.5-7,2.2c-2.4,2.5-4.8,5-7.3,7.4c-2.4,1.2-4.8,2.5-7.3,3.9c-2.5,2.5-5.1,5.1-7.6,7.6
	c-1.2,2-2.4,4-3.6,6c0.6,0.6,1.2,1.2,1.9,1.9c-0.5,1.5-0.9,3.1-1.4,4.6c1.6,0.8,3.1,1.6,4.6,2.4c1.6-1.4,3.3-2.7,4.9-4.1
	c2.3-1.4,4.5-2.8,6.8-4.3c2.7-1.6,5.4-3.3,8-4.9c2.8-0.3,5.7-0.6,8.5-0.9c3.4-1.2,6.8-2.3,10.3-3.5c1.7-1.1,3.5-2.2,5.2-3.3
	c1.7,0.5,3.5,0.8,5.2,1.2c4.4-0.7,8.8-1.4,13.1-2.2c1.7-1.2,3.5-2.4,5.2-3.6c2.2-2.2,4.2-4.3,6.3-6.5c3.1-2.8,6.1-5.7,9.2-8.5
	c1.7-1.9,3.5-3.9,5.2-5.7c2.3-2.2,4.6-4.3,7-6.5c1.8-0.7,3.7-1.5,5.6-2.2c-1.2-2.3-2.3-4.5-3.5-6.8c2.4,1.2,4.6,2.4,7.1,3.6
	c4.3,0.7,8.5,1.4,12.8,2.2c4.1-0.1,8.2-0.2,12.4-0.3c5.2-0.9,10.3-1.8,15.5-2.7c1.2-1.7,2.6-3.4,4-5.1c2.9,0.7,5.8,1.5,8.7,2.2
	c1.4-0.1,2.7-0.2,4.1-0.3c-0.3-2.2-0.5-4.3-0.8-6.5c1.7-1.1,3.4-2.2,5.1-3.3c2.5-0.9,5-1.8,7.4-2.7c2.9,0.1,5.8,0.2,8.7,0.3
	c0.1-1.2,0.3-2.6,0.5-3.9c-0.2-0.2-0.5-0.5-0.7-0.6c5.6,1.2,11.1,2.7,16.7,4.3c-0.2,0.9-0.5,1.8-0.6,2.7c-1.5-0.9-2.9-1.7-4.4-2.6
	c-2.8,0.6-5.6,1.2-8.5,1.8c0.8,2.2,1.5,4.3,2.3,6.3c3.5,3.5,6.9,7.1,10.4,10.7c-0.1,2.9-0.3,5.9-0.5,8.8c2.4,1.9,4.9,3.9,7.3,5.8
	c-1.8,2.9-3.6,5.9-5.4,8.8c1.2,0.2,2.3,0.5,3.5,0.6c1.1,1.2,2.2,2.5,3.2,3.7c-3.1,0.9-6.1,1.8-9.2,2.7c-1.1,2.6-2.2,5.2-3.2,7.8
	c-1.1,0.8-2.2,1.6-3.2,2.4c-1.6,1.1-3.2,2.2-4.9,3.3c-1.2-1-2.6-2-3.9-2.9c-1-0.8-2.2-1.6-3.1-2.4c-1.8-0.6-3.6-1.1-5.4-1.7
	c-2.7-0.2-5.4-0.5-8-0.6c-1.4-0.2-2.8-0.5-4.2-0.6c-0.8-0.1-1.6-0.3-2.4-0.5c-0.9-0.9-1.9-1.7-2.8-2.6c-1.6,0-3.2,0-4.9,0
	c-1.8,0.3-3.6,0.7-5.4,1c-2,0.5-3.9,1-5.9,1.5c-1.4,1.7-2.7,3.4-4.1,5.1c-0.9,1.9-1.7,3.9-2.6,5.8c-1.1,1.5-2.2,2.9-3.2,4.4
	c-1.7,1.8-3.3,3.5-5,5.2c-1.6,1-3.2,2.2-4.6,3.1c-1.7,2-3.4,4-5.1,6c-1.8,1.7-3.7,3.3-5.6,5c-0.3,1.6-0.6,3.2-0.9,4.9
	c0.1,1.2,0.3,2.6,0.5,3.9c0.3,1.2,0.7,2.5,1,3.7c0.6,1,1.2,2.2,1.8,3.1c0.9,0.5,1.8,0.9,2.7,1.4c1.5-0.7,3.1-1.5,4.6-2.2
	c0.1-1.1,0.2-2.2,0.3-3.2c2.2-0.5,4.1-0.9,6.1-1.4c0.1,0.8,0.2,1.5,0.3,2.3c0.9,1.7,1.9,3.4,2.8,5.1c0.7,1.2,1.4,2.4,2.2,3.6
	c-0.1,0.7-0.3,1.5-0.5,2.2c0.1,1.1,0.2,2.2,0.3,3.2c1.5,0.2,2.9,0.5,4.5,0.6c0.9-0.8,1.8-1.5,2.7-2.3c1.5-1.1,3.1-2.2,4.6-3.2
	c-0.5-1.4-0.9-2.7-1.4-4.1c-0.2-1.4-0.3-2.7-0.5-4.1c2.3-0.9,4.5-1.9,6.8-2.8c-0.8-1.2-1.6-2.5-2.4-3.7c-1.5-0.9-3.1-1.8-4.6-2.7
	c0.1-2.7,0.2-5.6,0.3-8.2c1.8-1.5,3.7-2.9,5.6-4.5c0.6-1.7,1.1-3.3,1.7-5c0.8-1.2,1.6-2.6,2.4-4c2,0,3.9,0.1,5.9,0.1
	c0.3,1.5,0.6,2.9,0.9,4.4c-1.7,1.2-3.3,2.6-5,4c-0.5,1.6-1,3.2-1.5,4.9c0.9,2.2,1.7,4.1,2.6,6.2c0.8,1.2,1.6,2.4,2.4,3.6
	c2.3-0.1,4.6-0.3,6.9-0.5c1.2-1.2,2.3-2.4,3.5-3.6c2.6,0.6,5.2,1.2,7.8,1.8c0,0.6-0.1,1.2-0.1,1.9c-1,0.6-2.2,1.1-3.1,1.7
	c-2.2,0.8-4.3,1.5-6.3,2.3c-1.5,0.5-3.1,0.8-4.6,1.2c-0.8,1.4-1.5,2.7-2.3,4.1c0.6,0.6,1.1,1.2,1.7,1.9c-1,0.3-2,0.7-2.9,1
	c0.3,2,0.6,4,0.9,6c0.8,1.2,1.5,2.6,2.3,3.9c-1.8,1.2-3.6,2.4-5.4,3.6c-1.1,0.3-2.2,0.5-3.2,0.8c-0.7-0.6-1.4-1.2-2-1.8
	c-0.5,0.3-1,0.7-1.5,1c-1.1,0.7-2.2,1.4-3.2,2.2c-1.2,0.6-2.3,1.1-3.5,1.7c-0.5,0.9-0.9,1.9-1.2,2.8c-1-0.9-2-1.7-2.9-2.6
	c-0.6-1-1.2-2.2-1.9-3.1c-0.8,0.8-1.5,1.5-2.3,2.3c-2.2-0.2-4.2-0.3-6.3-0.5c-0.7-1.2-1.5-2.3-2.2-3.5c0.5-1.4,0.9-2.8,1.2-4.2
	c0.6-1.2,1.1-2.5,1.7-3.7c-0.9-1.2-1.8-2.6-2.7-4c-1,0.9-2,1.7-2.9,2.6c-1,1.2-2.2,2.3-3.1,3.5c0.6,2.2,1.2,4.4,1.9,6.5
	c0.1,1.5,0.2,2.9,0.3,4.5c-1.2,0.5-2.6,0.9-3.9,1.4c-1.6,0-3.2,0-4.9,0c-1,0.7-2,1.4-2.9,2c-0.9,1.4-1.7,2.8-2.6,4.2
	c-1.2,1-2.3,2-3.5,2.9c-2,0.7-4,1.5-6,2.2c-0.1,1-0.3,2-0.5,3.1c-1.5,0.9-2.9,1.7-4.5,2.6c-0.1,0.6-0.3,1.2-0.5,1.8
	c-2.2-0.3-4.4-0.5-6.5-0.8c-0.3,1-0.5,2-0.8,2.9c-0.8,0.3-1.6,0.6-2.4,0.9c-1.6-0.6-3.2-1.2-4.9-1.8c-1.4,0.7-2.8,1.5-4.2,2.2
	c0.6,0.7,1.2,1.5,1.9,2.2c2.2,0.8,4.4,1.6,6.5,2.4c0.3,1.2,0.6,2.6,0.9,4c0.8,0.8,1.5,1.5,2.3,2.3c-0.2,0.9-0.5,1.8-0.6,2.7
	c-0.5,2.5-0.8,5-1.2,7.6c-0.9,1-1.8,2.2-2.7,3.1c-2.3,0.1-4.5,0.2-6.8,0.3c-3.5-0.7-6.9-1.4-10.4-2.2c-2.2,0.2-4.2,0.5-6.3,0.6
	c-1.2,1.5-2.4,3.1-3.6,4.6c-1.7,2.2-3.3,4.4-5,6.5c0.2,1.9,0.5,3.9,0.6,5.6c-0.5,1.7-0.9,3.3-1.4,5c0.6,1.8,1.1,3.6,1.7,5.4
	c1,1,2,2,2.9,2.9c1.8,0.5,3.7,0.9,5.6,1.4c0,1.5,0.1,3.1,0.1,4.6c0.8,0.5,1.5,0.9,2.3,1.4c1.6-0.7,3.2-1.4,4.6-2.2
	c3.5,0,7-0.1,10.5-0.1c0.8-0.5,1.6-1,2.4-1.5c1.4-1,2.8-2,4.2-2.9c0.8-0.9,1.6-1.7,2.4-2.6c-0.6-1.6-1.2-3.2-1.8-4.6
	c0.3-1.6,0.6-3.2,0.9-4.6c1.5-1.8,3.1-3.5,4.6-5.3c2-0.7,4.1-1.4,6.1-2.2c1.1-1.6,2.2-3.2,3.2-4.9c0.2-1.1,0.5-2.2,0.6-3.3
	c1.8-0.5,3.5-0.9,5.3-1.2c1.8,0.6,3.5,1.1,5.2,1.7c2.8-1.1,5.7-2.2,8.5-3.2c2.2-0.6,4.1-1.2,6.2-1.9c1.1,0.5,2.2,1,3.3,1.5
	c0.5,1.1,1,2.3,1.5,3.4c1.4,1.4,2.8,2.9,4.2,4.4c1.2,1.2,2.5,2.4,3.7,3.6c1.9,0.8,3.7,1.6,5.6,2.4c1.6,0.8,3.1,1.7,4.6,2.5
	c1.1,0.9,2.3,1.8,3.4,2.7c0.7,1.2,1.4,2.4,2.2,3.6c-0.1,1.1-0.2,2.2-0.3,3.2c-0.5,0.8-0.8,1.5-1.1,2.3c0.5,0.7,0.9,1.5,1.4,2.2
	c0.6-0.6,1.2-1.2,1.9-1.9c0.7-1,1.5-2,2.2-2.9c0.3-0.7,0.6-1.2,0.9-2c-0.5-0.6-0.8-1.2-1.1-2c-0.6-0.6-1.2-1.2-1.8-1.8
	c0.3-0.5,0.7-1,1-1.6c0.3-0.5,0.6-0.8,0.8-1.2c1,0.6,1.9,1.2,2.9,1.9c0.5,0.6,0.8,1.2,1.2,1.8c0.6-0.5,1.1-0.8,1.7-1.2
	c-1-1-2-2.2-2.9-3.1c-1.2-0.9-2.5-1.7-3.7-2.6c-1.2-0.9-2.5-1.9-3.7-2.8c-0.6,0-1.2,0.1-2,0.1c-1.4-0.5-2.8-0.8-4.1-1.2
	c-0.9-1.1-1.7-2.2-2.6-3.3c-0.8-1.5-1.5-2.9-2.3-4.4c-1.1-0.5-2.2-1-3.3-1.6c-0.7-1.2-1.2-2.4-2-3.5c0.2-0.5,0.5-0.9,0.6-1.4
	c-0.3-0.7-0.7-1.4-1-2.2c0.5-0.5,0.8-1,1.2-1.6c1.2-0.3,2.4-0.6,3.5-0.8c1,0.7,1.9,1.4,2.9,2.2c0.8,1,1.5,2,2.3,2.9
	c0.8,1.1,1.7,2.2,2.5,3.2c0.9,0.8,1.9,1.5,2.8,2.3c1.1,0.5,2.2,0.8,3.3,1.1c0.6,0.7,1.2,1.5,1.8,2.2c1.9,0.5,3.9,0.9,5.8,1.2
	c1,1.5,2.2,2.9,3.1,4.6c-0.3,1.2-0.7,2.5-1,3.7c0.9,1,1.9,1.9,2.8,2.9c1.4,1.1,2.8,2.2,4.2,3.2c1.9,0.3,3.7,0.6,5.6,0.8
	c0.7,1.2,1.2,2.4,2,3.6c2.5,1.1,5,2.2,7.6,3.3c0.5-1,0.9-2,1.4-2.9c-1.6-1.1-3.1-2.2-4.6-3.2c-0.6-1.1-1.2-2.2-1.9-3.2
	c-0.5-1-0.8-2-1.2-2.9c1.1-1.2,2.3-2.6,3.4-3.9c1.6-0.1,3.2-0.3,4.9-0.5c1.5,0,2.9,0,4.4,0c1.5-0.6,2.9-1.2,4.6-1.9
	c0.7-0.7,1.2-1.4,2-2.2c-1.4-2.8-2.8-5.6-4.2-8.3c2.3-1,4.6-2,6.8-2.9c2.9-2.2,5.9-4.4,9-6.5c2.2,0.2,4.4,0.5,6.5,0.6
	c1.8-1.4,3.6-2.8,5.4-4.2c2.7,0.2,5.3,0.5,8,0.6c2.8,1.2,5.6,2.6,8.3,3.9c2.2,1.2,4.2,2.6,6.2,3.9c0,1.8,0,3.6,0,5.4
	c-1.7,0.7-3.4,1.4-5.1,2.2c-2.3,0.5-4.6,1-6.8,1.5c-2.4-0.9-4.8-1.8-7.1-2.7c-2.8-0.2-5.6-0.5-8.3-0.6c-1.7,1.5-3.4,2.9-5.1,4.5
	c-2,0.6-4,1.2-5.9,1.8c-2.2,1.1-4.2,2.2-6.2,3.3c-2.4,1.1-4.8,2.2-7.1,3.3c0.2,2,0.5,4,0.6,5.9c2.2,2,4.2,4,6.2,6
	c2.2,2.6,4.4,5.2,6.5,7.7c1.9-0.5,3.9-1,5.7-1.5c0.7-1.2,1.4-2.4,2.2-3.6c1.2,1,2.6,2,3.9,2.9c2.7-0.5,5.4-0.8,8-1.2
	c0.9-1.2,1.8-2.4,2.7-3.6c2.8,0.2,5.6,0.5,8.3,0.6c-0.2,1.6-0.5,3.1-0.7,4.6c-0.1,4.1-0.2,8.2-0.3,12.4c0.3,2.8,0.7,5.6,1,8.4
	c0.9,0.2,1.8,0.5,2.7,0.6c0.7,2.6,1.4,5.1,2.2,7.7c-0.5,1.5-0.8,3.1-1.2,4.6c0.2,2.3,0.5,4.5,0.6,6.8c1,0.7,2,1.4,2.9,2.2
	c2.2,2.5,4.2,5,6.2,7.4c1.8,2.6,3.6,5.2,5.3,7.7c1.2,0.8,2.6,1.6,3.9,2.4c1.5,3.1,2.9,6.2,4.5,9.2c1.5,2.2,2.9,4.4,4.5,6.5
	c2,0.8,4,1.6,5.9,2.4c1.1,2,2.2,4,3.3,5.9c2.3,2.4,4.6,4.8,6.8,7.1c2.9,7.3,6,14.6,9,21.9c5.2-3.9,10.3-7.5,15.5-11.3
	c4.2-4,8.3-7.9,12.5-11.9c1.4-1.4,2.8-2.8,4.2-4.2c0.2-2.2,0.5-4.2,0.6-6.2c1.9-1.8,3.9-3.6,5.7-5.3c1.2-1.2,2.6-2.4,3.9-3.6
	c0.5-2.4,1-4.8,1.5-7.1c1.2-1,2.4-2,3.6-2.9c-0.7-2.2-1.4-4.2-2.2-6.2c1-2.5,2-5,2.9-7.4c0.5-2.2,0.8-4.2,1.2-6.2
	c-2.2-1.5-4.2-2.9-6.2-4.5c-1.6,0.3-3.2,0.6-4.8,0.9c-1.2-0.9-2.6-1.8-3.9-2.7c-1.2-2.9-2.6-6-3.9-9c-0.9,2.9-1.8,6-2.7,9
	c-1,1.9-2,3.9-2.9,5.7c-1.7,0.9-3.4,1.8-5,2.7c-1-0.5-2-0.8-2.9-1.2c-0.1-1.2-0.2-2.6-0.3-3.9c-0.5-1.7-1-3.4-1.5-5.1
	c-0.7,0.5-1.4,1-2.2,1.5c0,1.4,0,2.8,0,4.2c-0.9-1.1-1.8-2.2-2.7-3.3c-1.4-1.7-2.8-3.4-4.2-5c-2.5-2.3-5-4.6-7.4-6.8
	c-0.5-2-0.8-4-1.2-5.9c1.8-1,3.6-2,5.4-2.9c2.2,2.2,4.4,4.4,6.5,6.5c0.9,1.2,1.8,2.6,2.7,3.9c1.2-0.1,2.4-0.2,3.6-0.3
	c1.8,1,3.6,2,5.4,2.9c1.2,0,2.4,0,3.6,0c1.6-2,3.2-4,4.8-5.9c1-0.1,2-0.2,2.9-0.3c1,2.2,2,4.2,2.9,6.2c4-1.2,7.9-2.4,11.9-3.6
	c2.8-1.5,5.6-2.9,8.3-4.5c1.9-1.2,3.9-2.4,5.7-3.6c0.2-0.1,0.5-0.2,0.6-0.3c2,1.9,4,3.9,5.9,5.7c2.2,0.7,4.2,1.4,6.2,2.2
	c1.5-1.2,2.9-2.4,4.5-3.6c2,2.2,4,4.2,6,6.2c2.4,5.6,4.8,11.1,7.1,16.7c2.2,4.1,4.4,8,6.5,12.2c2.5,4.4,5,8.7,7.4,13.1
	c1.4,4.3,2.8,8.5,4.2,12.8c0.6-4.4,1.2-8.7,1.8-13.1c-0.2-6.9-0.5-13.9-0.6-20.9c-1.5-2.9-2.9-5.8-4.5-8.6c0.7-4.8,1.4-9.5,2.2-14.3
	c-0.8-5.9-1.6-11.7-2.4-17.6c-0.3-3.3-0.6-6.5-0.9-9.9c0.5-1.6,1.1-3.3,1.6-4.9C702.2,710.3,638,863.6,503.2,926.9z"/>
<polygon fill="#404040" points="331.1,451.1 328.6,445.1 324.3,444.7 318.9,444.1 312.9,443.3 310.2,445.6 311.8,448.5 309.6,451.9 
	312.4,453.9 318.7,454.7 324.6,453.2 "/>
<polygon fill="#404040" points="320.1,509.9 325.9,508.5 329.6,507.4 332.2,503.8 333.5,500 335.4,497.8 332.8,493.1 328.5,492.3 
	326,496.6 323.2,497.7 322.8,501.3 321.2,502.7 320.8,504.5 318.9,505.9 318.6,509.2 "/>
<polygon fill="#404040" points="331.8,518 335.6,516.5 337.6,517 341.3,515.2 347.7,515.2 354.1,514.6 356.1,512.9 354.9,510.8 
	357.7,508.2 354.5,505.5 352.2,502 350.5,498.3 348.4,496 348.1,493.6 345.5,491.3 346,488.5 348.6,486.4 349.2,482.8 349,478.1 
	336.9,479 335.4,484.6 336.2,489.6 337.4,494.2 340.9,496.9 343,501 340,503.3 337.9,503.3 338.2,507.4 335.8,508.5 334.8,510.2 
	336.5,512.6 "/>
<polygon fill="#404040" points="543.6,867.5 552.3,863.6 556.7,856.5 564.3,843.2 569.9,832.2 575.8,821.2 575.1,805.8 570.8,813.6 
	569.4,813.6 567.6,817.3 562.6,823.3 557,827.9 551.5,831 550.7,834.5 548.5,837 549.5,842.4 548.5,846.6 545.5,849.8 542.1,854.3 
	539.6,858 540.9,860.3 539.3,864.2 "/>
<polygon fill="#404040" points="428.6,916.7 421.4,912.2 422.1,908.5 416.3,897.2 412.7,896.7 408.2,877.7 395.9,859.1 397.3,846.8 
	407.6,833.7 403.2,823.7 405,816.9 397.6,805.6 382.1,785.2 387.8,765.1 381.9,756.1 366.5,756.5 361.5,754.3 354.9,745.1 
	328.2,750.1 322.3,753.3 313.8,749.7 292.4,753.3 271.1,733.9 256.1,723.8 243.9,719.3 251.6,694.3 258.8,677.1 256.6,659.4 
	261.6,647.6 268.8,642.2 270.2,634.8 279.7,626.3 296.5,618 301.4,601.4 310.5,595.8 317.8,589 324.2,592.6 331.9,594.5 
	341.3,590.5 352.3,585.8 368.3,585.8 379,587.7 384.9,584.6 391.7,586.3 387.2,599.4 391.4,603.2 408.2,609.4 415,614.4 
	427.2,618.6 432.6,615.3 431.3,609.4 434.5,605 451.2,608.5 469.9,610.3 477.6,609.4 486.7,611.2 503,639 509,648.1 514.3,651.7 
	520.2,667.6 527,672.5 533.4,683 542.1,689.8 552.4,699.3 556.2,704.3 560.6,700.2 566.9,699.3 571.1,694.3 581.9,686.6 
	581.9,704.8 572.4,730.2 556.2,754.3 537.9,777.5 533.8,792.8 536.5,810.6 537.5,831.3 525.7,841.9 513.9,849.1 506.6,856.4 
	508.4,867.7 505.2,873.6 491.6,880.4 489.8,888.6 480.9,895.8 465.3,908.5 451.2,915.3 437.2,921.2 "/>
<polyline fill="#404040" points="408.5,578.7 403.2,580.6 398.7,581.2 398.1,583.7 404.4,586 407.8,587.2 410.2,584.6 409.1,582 "/>
<polyline fill="#404040" points="471.2,590.6 475.1,589.1 478.5,587.2 482.8,583.7 482.8,585.2 481.5,586.6 481,588.4 481.8,589.4 
	482.8,591.1 481.4,592.3 479.4,593.1 476.9,594.8 471.2,594.8 469.9,593.1 "/>
<polyline fill="#404040" points="377.6,562.9 376.2,564.8 376.9,566.5 378.7,567.9 378.7,566.7 379.3,564 "/>
</svg>
