<?xml version="1.0" encoding="utf-8"?>
<!-- Generator: Adobe Illustrator 18.1.1, SVG Export Plug-In . SVG Version: 6.00 Build 0)  -->
<!DOCTYPE svg PUBLIC "-//W3C//DTD SVG 1.1//EN" "http://www.w3.org/Graphics/SVG/1.1/DTD/svg11.dtd">
<svg version="1.1" id="Layer_1" xmlns="http://www.w3.org/2000/svg" xmlns:xlink="http://www.w3.org/1999/xlink" x="0px" y="0px"
	 viewBox="142.8 161.4 612 749.8" enable-background="new 142.8 161.4 612 749.8" xml:space="preserve">
<g>
	<path fill="#4D4D4D" d="M142.8,657.5v253.8h612V657.5H142.8z M250.2,905.1h-98.7V776.7h98.7V905.1z M360.2,905.1L360.2,905.1h-98.7
		V776.7h98.7V905.1L360.2,905.1z M510.3,859H480v-36.3h30.4V859z M510.3,817.2H480v-29.2h30.4V817.2z M550.1,859h-34.3v-36.3h34.3
		V859z M550.1,817.2h-34.3v-29.2h34.3V817.2z M589.8,859h-34.2v-36.3h34.3V859H589.8z M589.8,817.2h-34.2v-29.2h34.3v29.2H589.8z
		 M629.7,859h-34.3v-36.3h34.3V859z M629.7,817.2h-34.3v-29.2h34.3V817.2z M669.5,859h-34.3v-36.3h34.3V859z M669.5,817.2h-34.3
		v-29.2h34.3V817.2z M707.1,859H675v-36.3h32.1V859z M707.1,817.2H675v-29.2h32.1V817.2z"/>
	<polygon fill="#4D4D4D" points="231,248.8 201.6,248.8 187,644.6 245.7,644.6 	"/>
	<polygon fill="#4D4D4D" points="301.2,248.8 271.9,248.8 257.4,644.6 315.9,644.6 	"/>
	<polygon fill="#4D4D4D" points="371.4,248.8 342.3,248.8 327.5,644.6 386.2,644.6 	"/>
	<path fill="#4D4D4D" d="M530.4,198.8c-6.6,0-12.5,2.6-17,6.8c-6.9-25.4-30.3-44.2-57.9-44.2c-22.9,0-42.7,12.8-52.9,31.7
		c-5.7-3.7-12.5-6-19.8-6c-19.7,0-35.8,16-35.8,35.8h207.9C554.7,209.6,543.8,198.8,530.4,198.8z"/>
	<path fill="#4D4D4D" d="M679.7,210.2c-3.5,0-6.6,1.4-8.8,3.6c-3.6-13.4-16-23.2-30.4-23.2c-12,0-22.4,6.8-27.9,16.5
		c-3.1-1.9-6.6-3.2-10.5-3.2c-10.4,0-18.8,8.4-18.8,18.8h109.3C692.4,216,686.8,210.2,679.7,210.2z"/>
	<rect x="422.7" y="551.5" fill="#4D4D4D" width="227.1" height="66"/>
	<rect x="423.4" y="629" fill="#4D4D4D" width="303.2" height="14.7"/>
	<path fill="#4D4D4D" d="M659.3,617.5h66.3c0.1-1.7,0.3-3.3,0.3-5.1c0-32.2-29.5-58.4-66.6-60.5V617.5L659.3,617.5z"/>
	<path fill="#4D4D4D" d="M428.7,513.5h215.1c-3.3-95.5,3.1-104-107.7-104S432.1,418,428.7,513.5z"/>
	<rect x="520.8" y="391.8" fill="#4D4D4D" width="31.3" height="13.8"/>
	<rect x="422.7" y="520.8" fill="#4D4D4D" width="227.1" height="20.6"/>
</g>
</svg>
