<?xml version="1.0" encoding="utf-8"?>
<!-- Generator: Adobe Illustrator 18.1.1, SVG Export Plug-In . SVG Version: 6.00 Build 0)  -->
<!DOCTYPE svg PUBLIC "-//W3C//DTD SVG 1.1//EN" "http://www.w3.org/Graphics/SVG/1.1/DTD/svg11.dtd">
<svg version="1.1"
	 id="Layer_1" xmlns:cc="http://creativecommons.org/ns#" xmlns:dc="http://purl.org/dc/elements/1.1/" xmlns:rdf="http://www.w3.org/1999/02/22-rdf-syntax-ns#" xmlns:svg="http://www.w3.org/2000/svg" xmlns:inkscape="http://www.inkscape.org/namespaces/inkscape" xmlns:sodipodi="http://sodipodi.sourceforge.net/DTD/sodipodi-0.dtd"
	 xmlns="http://www.w3.org/2000/svg" xmlns:xlink="http://www.w3.org/1999/xlink" x="0px" y="0px" viewBox="28 221.6 614.1 614"
	 enable-background="new 28 221.6 614.1 614" xml:space="preserve">
<g transform="translate(0,-952.36218)">
	<path fill="none" stroke="#000000" stroke-width="5" d="M624.2,1385.8c52.5,159.7-34.4,331.7-194.1,384.3S98.4,1735.7,45.8,1576
		s34.4-331.7,194.1-384.3c39.7-13.1,81.4-17.8,123-14"/>
	<path fill="none" stroke="#000000" stroke-width="5" d="M359.2,1180.6c0,67.7,77.2,63.7,77.2,63.7s0,33.8,33.8,67.7
		c33.8,33.9,101.5,33.8,101.5,33.8s18,77.4,51.8,43.7"/>
	<path stroke="#000000" stroke-width="0.5954" d="M251.2,1246c-43.5,20.6-51.8,62.1-32.3,62.1s43.5-20.6,47.6-41.5
		C270.7,1246,251.2,1246,251.2,1246"/>
	<path stroke="#000000" stroke-width="0.4813" d="M282.4,1644.5c-36.2-8.5-57.6,15.8-45,26.1c12.8,10.3,36.2,8.5,46.8-3.7
		C294.9,1654.7,282.4,1644.5,282.4,1644.5"/>
	<path stroke="#000000" stroke-width="0.5729" d="M353.7,1431.9c-29.8,31.4-15.9,67.1,2.6,60.3c18.3-6.8,29.8-31.4,22.9-49.1
		C372.1,1425.1,353.7,1431.9,353.7,1431.9"/>
	<path stroke="#000000" stroke-width="0.7371" d="M171.1,1517.6c-51.4-18-85.5,18.3-68.4,36.5c17.1,18.1,51.4,18,68.4-0.1
		C188.3,1535.6,171.1,1517.6,171.1,1517.6"/>
	<path stroke="#000000" stroke-width="0.1883" d="M259.7,1375.1c-14.6-1.6-18.4-13.2-12.1-15.3c6.3-2.1,14.6,1.6,16.4,7.3
		C266.1,1373.1,259.7,1375.1,259.7,1375.1"/>
	<path stroke="#000000" stroke-width="0.1883" d="M174.8,1331c-3.2,14.3,6.5,21.6,10.5,16.3c4-5.3,3.2-14.3-1.7-18
		C178.8,1325.6,174.8,1331,174.8,1331"/>
	<path stroke="#000000" stroke-width="0.4141" d="M517.1,1413.9c-30.3-17-51.1-2.9-41.3,9.2c10,12.1,30.3,17,40.7,10
		C527,1426,517.1,1413.9,517.1,1413.9"/>
	<path stroke="#000000" stroke-width="0.4177" d="M473.6,1636.4c-23.4-22.5-49.6-13.8-44.5-0.2c5.1,13.5,23.4,22.5,36.5,18.1
		C478.7,1649.8,473.6,1636.4,473.6,1636.4"/>
	<path stroke="#000000" stroke-width="0.3117" d="M526.8,1530.5c-24.5,2.6-30.9,21.3-20.3,24.7c10.6,3.4,24.5-2.6,27.7-12
		C537.4,1534,526.8,1530.5,526.8,1530.5"/>
	<path stroke="#000000" stroke-width="0.117" d="M328.2,1559.9c-1.8,6.9,6,12.4,8.8,10.4c2.8-2.1,1.8-6.9-2.1-9.6
		C331,1557.8,328.2,1559.9,328.2,1559.9"/>
	<path stroke="#000000" stroke-width="0.117" d="M347.5,1316.3c-1.8,6.9,5.9,12.5,8.6,10.4c2.8-2.1,1.8-6.9-2-9.6
		C350.2,1314.3,347.5,1316.3,347.5,1316.3"/>
	<path stroke="#000000" stroke-width="0.117" d="M155.6,1457.4c5,5.1,13.8,1.3,13.4-2.1c-0.3-3.4-5-5.1-9.4-3.2
		C155.2,1453.9,155.6,1457.4,155.6,1457.4"/>
	<path fill="none" stroke="#000000" stroke-width="5" d="M469.8,1187.5c5.2,2.2,10.2,4.5,14.9,6.8c64,31.2,73.3,62.7,63.7,67.2
		c-10.3,4.8-52.6-7.1-59.5-3.9s-23-11.8-20.1-18.1c2.9-6.3,7.1-32.2,0.3-38.6c-6.8-6.4-10.8-12.5,2.6-12.9"/>
	<path fill="none" stroke="#000000" stroke-width="5" d="M581.7,1299.2c-16.9-0.9-22,5.4-10.2,13.1c11.9,7.7,24.1,6,25.4,1.2
		c1.2-4.7-6-10.2-7.7-11.9C587.6,1300,581.7,1299.2,581.7,1299.2z"/>
</g>
</svg>
